<mxfile host="app.diagrams.net" modified="2024-05-02T12:32:20.686Z" agent="Mozilla/5.0 (Windows NT 10.0; Win64; x64) AppleWebKit/537.36 (KHTML, like Gecko) Chrome/124.0.0.0 Safari/537.36 Edg/124.0.0.0" etag="SRgQ18LxXR1bnDIs5-iP" version="24.3.1" type="device">
  <diagram name="Page-1" id="2YBvvXClWsGukQMizWep">
    <mxGraphModel dx="1093" dy="1261" grid="1" gridSize="1000" guides="1" tooltips="1" connect="1" arrows="1" fold="1" page="1" pageScale="1" pageWidth="1654" pageHeight="1169" math="0" shadow="0">
      <root>
        <mxCell id="0" />
        <mxCell id="1" parent="0" />
        <mxCell id="uvfPK4nCeen5NzdSy093-60" style="edgeStyle=orthogonalEdgeStyle;rounded=0;orthogonalLoop=1;jettySize=auto;html=1;exitX=0.5;exitY=1;exitDx=0;exitDy=0;fontFamily=Helvetica;fontSize=12;fontColor=default;" edge="1" parent="1" source="uvfPK4nCeen5NzdSy093-26" target="uvfPK4nCeen5NzdSy093-28">
          <mxGeometry relative="1" as="geometry" />
        </mxCell>
        <mxCell id="uvfPK4nCeen5NzdSy093-26" value="" style="rounded=1;whiteSpace=wrap;html=1;strokeColor=#000000;align=center;verticalAlign=middle;fontFamily=Helvetica;fontSize=12;fontColor=default;fillColor=#FFFFFF;" vertex="1" parent="1">
          <mxGeometry x="500" y="1672" width="270" height="210" as="geometry" />
        </mxCell>
        <mxCell id="uvfPK4nCeen5NzdSy093-3" style="edgeStyle=orthogonalEdgeStyle;rounded=0;orthogonalLoop=1;jettySize=auto;html=1;entryX=0;entryY=0.5;entryDx=0;entryDy=0;" edge="1" parent="1" source="uvfPK4nCeen5NzdSy093-1" target="uvfPK4nCeen5NzdSy093-2">
          <mxGeometry relative="1" as="geometry" />
        </mxCell>
        <mxCell id="uvfPK4nCeen5NzdSy093-1" value="Pfizer" style="rounded=1;whiteSpace=wrap;html=1;" vertex="1" parent="1">
          <mxGeometry x="96" y="40" width="120" height="60" as="geometry" />
        </mxCell>
        <mxCell id="uvfPK4nCeen5NzdSy093-5" value="" style="edgeStyle=orthogonalEdgeStyle;rounded=0;orthogonalLoop=1;jettySize=auto;html=1;" edge="1" parent="1" source="uvfPK4nCeen5NzdSy093-2" target="uvfPK4nCeen5NzdSy093-4">
          <mxGeometry relative="1" as="geometry" />
        </mxCell>
        <mxCell id="uvfPK4nCeen5NzdSy093-10" style="edgeStyle=orthogonalEdgeStyle;rounded=0;orthogonalLoop=1;jettySize=auto;html=1;entryX=0;entryY=0.5;entryDx=0;entryDy=0;" edge="1" parent="1" source="uvfPK4nCeen5NzdSy093-2" target="uvfPK4nCeen5NzdSy093-7">
          <mxGeometry relative="1" as="geometry" />
        </mxCell>
        <mxCell id="uvfPK4nCeen5NzdSy093-2" value="Challenges" style="rounded=1;whiteSpace=wrap;html=1;" vertex="1" parent="1">
          <mxGeometry x="275" y="40" width="320" height="60" as="geometry" />
        </mxCell>
        <mxCell id="uvfPK4nCeen5NzdSy093-4" value="&lt;div&gt;&lt;ul&gt;&lt;li&gt;Difficulty finding relevant information.&lt;/li&gt;&lt;li&gt;Difficulty in understanding complex documents.&lt;/li&gt;&lt;li&gt;Time-consuming research&lt;/li&gt;&lt;li&gt;Information overload.&lt;/li&gt;&lt;li&gt;Lack of access to expert knowledge.&lt;/li&gt;&lt;li&gt;Language barriers.&lt;/li&gt;&lt;/ul&gt;&lt;/div&gt;" style="rounded=1;whiteSpace=wrap;html=1;align=left;" vertex="1" parent="1">
          <mxGeometry x="277.5" y="140" width="315" height="120" as="geometry" />
        </mxCell>
        <mxCell id="uvfPK4nCeen5NzdSy093-9" style="edgeStyle=orthogonalEdgeStyle;rounded=0;orthogonalLoop=1;jettySize=auto;html=1;entryX=0.5;entryY=0;entryDx=0;entryDy=0;" edge="1" parent="1" source="uvfPK4nCeen5NzdSy093-7" target="uvfPK4nCeen5NzdSy093-8">
          <mxGeometry relative="1" as="geometry" />
        </mxCell>
        <mxCell id="uvfPK4nCeen5NzdSy093-7" value="Solution" style="rounded=1;whiteSpace=wrap;html=1;" vertex="1" parent="1">
          <mxGeometry x="665" y="40" width="320" height="60" as="geometry" />
        </mxCell>
        <mxCell id="uvfPK4nCeen5NzdSy093-8" value="&lt;span style=&quot;background-color: initial;&quot;&gt;&lt;font style=&quot;font-size: 16px;&quot;&gt;GenAI Chatbot with RAG&lt;/font&gt;&lt;/span&gt;&lt;div&gt;&lt;span style=&quot;font-size: 16px;&quot;&gt;&lt;br&gt;&lt;/span&gt;&lt;div&gt;&lt;div style=&quot;text-align: left;&quot;&gt;&lt;span style=&quot;background-color: initial;&quot;&gt;&amp;nbsp; &amp;nbsp; &amp;nbsp;Advantages:&lt;/span&gt;&lt;/div&gt;&lt;ul&gt;&lt;li style=&quot;text-align: left;&quot;&gt;Efficient in accurate information retrieval&lt;/li&gt;&lt;li style=&quot;text-align: left;&quot;&gt;&lt;span style=&quot;background-color: initial;&quot;&gt;Adaptable to New Domain Knowledge&lt;/span&gt;&lt;br&gt;&lt;/li&gt;&lt;li style=&quot;text-align: left;&quot;&gt;Understands User Context&lt;/li&gt;&lt;li style=&quot;text-align: left;&quot;&gt;Securing Information with User-level Access&lt;/li&gt;&lt;li style=&quot;text-align: left;&quot;&gt;Preserves User Conversation&lt;/li&gt;&lt;li style=&quot;text-align: left;&quot;&gt;Language Translation&lt;/li&gt;&lt;li style=&quot;text-align: left;&quot;&gt;Feedback Collection and Analysis&lt;/li&gt;&lt;li style=&quot;text-align: left;&quot;&gt;Cost-effectiveness &amp;amp; Scalable&lt;/li&gt;&lt;/ul&gt;&lt;/div&gt;&lt;/div&gt;" style="rounded=1;whiteSpace=wrap;html=1;align=center;" vertex="1" parent="1">
          <mxGeometry x="667.5" y="140" width="315" height="220" as="geometry" />
        </mxCell>
        <mxCell id="uvfPK4nCeen5NzdSy093-13" style="edgeStyle=orthogonalEdgeStyle;rounded=0;orthogonalLoop=1;jettySize=auto;html=1;entryX=0;entryY=0.5;entryDx=0;entryDy=0;" edge="1" source="uvfPK4nCeen5NzdSy093-14" target="uvfPK4nCeen5NzdSy093-17" parent="1">
          <mxGeometry relative="1" as="geometry" />
        </mxCell>
        <mxCell id="uvfPK4nCeen5NzdSy093-14" value="Pfizer" style="rounded=1;whiteSpace=wrap;html=1;" vertex="1" parent="1">
          <mxGeometry x="132.5" y="385" width="120" height="60" as="geometry" />
        </mxCell>
        <mxCell id="uvfPK4nCeen5NzdSy093-15" value="" style="edgeStyle=orthogonalEdgeStyle;rounded=0;orthogonalLoop=1;jettySize=auto;html=1;" edge="1" source="uvfPK4nCeen5NzdSy093-17" target="uvfPK4nCeen5NzdSy093-18" parent="1">
          <mxGeometry relative="1" as="geometry" />
        </mxCell>
        <mxCell id="uvfPK4nCeen5NzdSy093-16" style="edgeStyle=orthogonalEdgeStyle;rounded=0;orthogonalLoop=1;jettySize=auto;html=1;entryX=0;entryY=0.5;entryDx=0;entryDy=0;" edge="1" source="uvfPK4nCeen5NzdSy093-17" target="uvfPK4nCeen5NzdSy093-20" parent="1">
          <mxGeometry relative="1" as="geometry" />
        </mxCell>
        <mxCell id="uvfPK4nCeen5NzdSy093-17" value="Challenges" style="rounded=1;whiteSpace=wrap;html=1;" vertex="1" parent="1">
          <mxGeometry x="311.5" y="385" width="320" height="60" as="geometry" />
        </mxCell>
        <mxCell id="uvfPK4nCeen5NzdSy093-18" value="&lt;ul&gt;&lt;li&gt;&lt;span style=&quot;background-color: initial;&quot;&gt;Difficulty in retrieving relevant information from RDMS.&lt;/span&gt;&lt;br&gt;&lt;/li&gt;&lt;li&gt;Difficulty in understanding complex schemas.&lt;/li&gt;&lt;li&gt;Time-consuming query writing process.&lt;/li&gt;&lt;li&gt;Lack of expert knowledge in SQL.&lt;/li&gt;&lt;li&gt;Language barriers when interacting with the database.&lt;/li&gt;&lt;/ul&gt;" style="rounded=1;whiteSpace=wrap;html=1;align=left;" vertex="1" parent="1">
          <mxGeometry x="314" y="485" width="315" height="120" as="geometry" />
        </mxCell>
        <mxCell id="uvfPK4nCeen5NzdSy093-19" style="edgeStyle=orthogonalEdgeStyle;rounded=0;orthogonalLoop=1;jettySize=auto;html=1;entryX=0.5;entryY=0;entryDx=0;entryDy=0;" edge="1" source="uvfPK4nCeen5NzdSy093-20" target="uvfPK4nCeen5NzdSy093-21" parent="1">
          <mxGeometry relative="1" as="geometry" />
        </mxCell>
        <mxCell id="uvfPK4nCeen5NzdSy093-20" value="Solution" style="rounded=1;whiteSpace=wrap;html=1;" vertex="1" parent="1">
          <mxGeometry x="701.5" y="385" width="320" height="60" as="geometry" />
        </mxCell>
        <mxCell id="uvfPK4nCeen5NzdSy093-21" value="&lt;span style=&quot;font-size: 16px;&quot;&gt;NSQL Chatbot&lt;/span&gt;&lt;br&gt;&lt;div&gt;&lt;span style=&quot;font-size: 16px;&quot;&gt;&lt;br&gt;&lt;/span&gt;&lt;div&gt;&lt;div style=&quot;text-align: left;&quot;&gt;&lt;span style=&quot;background-color: initial;&quot;&gt;&amp;nbsp; &amp;nbsp; &amp;nbsp;Advantages:&lt;/span&gt;&lt;/div&gt;&lt;ul&gt;&lt;li style=&quot;text-align: left;&quot;&gt;&lt;span style=&quot;background-color: initial;&quot;&gt;Efficient and accurate information retrieval from RDMS.&lt;/span&gt;&lt;br&gt;&lt;/li&gt;&lt;li style=&quot;text-align: left;&quot;&gt;Capable of executing analytical queries.&lt;/li&gt;&lt;li style=&quot;text-align: left;&quot;&gt;Provides quick data insights.&lt;/li&gt;&lt;li style=&quot;text-align: left;&quot;&gt;Adaptable to new domains and schemas.&lt;/li&gt;&lt;li style=&quot;text-align: left;&quot;&gt;Understands user context for more relevant results.&lt;/li&gt;&lt;li style=&quot;text-align: left;&quot;&gt;Secures information with user-level access controls.&lt;/li&gt;&lt;li style=&quot;text-align: left;&quot;&gt;Preserves user conversation history for continuity.&lt;/li&gt;&lt;li style=&quot;text-align: left;&quot;&gt;Collects and analyzes user feedback for continuous improvement.&lt;/li&gt;&lt;li style=&quot;text-align: left;&quot;&gt;Cost-effective and scalable solution for data retrieval needs.&lt;/li&gt;&lt;/ul&gt;&lt;/div&gt;&lt;/div&gt;" style="rounded=1;whiteSpace=wrap;html=1;align=center;" vertex="1" parent="1">
          <mxGeometry x="704" y="485" width="315" height="300" as="geometry" />
        </mxCell>
        <mxCell id="uvfPK4nCeen5NzdSy093-56" style="edgeStyle=orthogonalEdgeStyle;rounded=0;orthogonalLoop=1;jettySize=auto;html=1;entryX=0;entryY=0.5;entryDx=0;entryDy=0;fontFamily=Helvetica;fontSize=12;fontColor=default;" edge="1" parent="1" source="uvfPK4nCeen5NzdSy093-22" target="uvfPK4nCeen5NzdSy093-23">
          <mxGeometry relative="1" as="geometry" />
        </mxCell>
        <mxCell id="uvfPK4nCeen5NzdSy093-22" value="" style="sketch=0;outlineConnect=0;fontColor=#232F3E;gradientColor=none;fillColor=#232F3D;strokeColor=none;dashed=0;verticalLabelPosition=bottom;verticalAlign=top;align=center;html=1;fontSize=12;fontStyle=0;aspect=fixed;pointerEvents=1;shape=mxgraph.aws4.user;rounded=1;fontFamily=Helvetica;" vertex="1" parent="1">
          <mxGeometry x="205.5" y="2017" width="78" height="78" as="geometry" />
        </mxCell>
        <mxCell id="uvfPK4nCeen5NzdSy093-55" style="edgeStyle=orthogonalEdgeStyle;rounded=0;orthogonalLoop=1;jettySize=auto;html=1;exitX=0;exitY=0.5;exitDx=0;exitDy=0;fontFamily=Helvetica;fontSize=12;fontColor=default;" edge="1" parent="1" source="uvfPK4nCeen5NzdSy093-23" target="uvfPK4nCeen5NzdSy093-22">
          <mxGeometry relative="1" as="geometry" />
        </mxCell>
        <mxCell id="uvfPK4nCeen5NzdSy093-23" value="Query / Feedback" style="rounded=1;whiteSpace=wrap;html=1;strokeColor=#000000;align=center;verticalAlign=middle;fontFamily=Helvetica;fontSize=12;fontColor=default;fillColor=#FFFFFF;" vertex="1" parent="1">
          <mxGeometry x="332.5" y="2026" width="120" height="60" as="geometry" />
        </mxCell>
        <mxCell id="uvfPK4nCeen5NzdSy093-24" value="&lt;div&gt;&lt;br&gt;&lt;/div&gt;&lt;div&gt;&lt;span style=&quot;background-color: initial;&quot;&gt;Chroma / Open Search&lt;/span&gt;&lt;br&gt;&lt;/div&gt;" style="strokeWidth=2;html=1;shape=mxgraph.flowchart.database;whiteSpace=wrap;rounded=1;strokeColor=#000000;align=center;verticalAlign=middle;fontFamily=Helvetica;fontSize=12;fontColor=default;fillColor=#FFFFFF;" vertex="1" parent="1">
          <mxGeometry x="532" y="1753" width="80" height="63" as="geometry" />
        </mxCell>
        <mxCell id="uvfPK4nCeen5NzdSy093-27" value="&lt;b&gt;&lt;font style=&quot;font-size: 12px;&quot;&gt;Vector DB&lt;/font&gt;&lt;/b&gt;" style="text;strokeColor=none;fillColor=none;spacingLeft=4;spacingRight=4;overflow=hidden;rotatable=0;points=[[0,0.5],[1,0.5]];portConstraint=eastwest;fontSize=12;whiteSpace=wrap;html=1;fontFamily=Helvetica;fontColor=default;" vertex="1" parent="1">
          <mxGeometry x="532" y="1724" width="80" height="30" as="geometry" />
        </mxCell>
        <mxCell id="uvfPK4nCeen5NzdSy093-52" style="edgeStyle=orthogonalEdgeStyle;rounded=0;orthogonalLoop=1;jettySize=auto;html=1;exitX=1.004;exitY=0.43;exitDx=0;exitDy=0;fontFamily=Helvetica;fontSize=12;fontColor=default;exitPerimeter=0;entryX=0;entryY=0.912;entryDx=0;entryDy=0;entryPerimeter=0;" edge="1" parent="1" target="uvfPK4nCeen5NzdSy093-35">
          <mxGeometry relative="1" as="geometry">
            <mxPoint x="817.5" y="1964" as="targetPoint" />
            <mxPoint x="771.0799999999999" y="1964.3000000000002" as="sourcePoint" />
          </mxGeometry>
        </mxCell>
        <mxCell id="uvfPK4nCeen5NzdSy093-61" style="edgeStyle=orthogonalEdgeStyle;rounded=0;orthogonalLoop=1;jettySize=auto;html=1;fontFamily=Helvetica;fontSize=12;fontColor=default;" edge="1" parent="1" source="uvfPK4nCeen5NzdSy093-28" target="uvfPK4nCeen5NzdSy093-26">
          <mxGeometry relative="1" as="geometry" />
        </mxCell>
        <mxCell id="uvfPK4nCeen5NzdSy093-28" value="" style="rounded=1;whiteSpace=wrap;html=1;strokeColor=#000000;align=center;verticalAlign=middle;fontFamily=Helvetica;fontSize=12;fontColor=default;fillColor=#FFFFFF;" vertex="1" parent="1">
          <mxGeometry x="500" y="1942" width="270" height="210" as="geometry" />
        </mxCell>
        <mxCell id="uvfPK4nCeen5NzdSy093-29" value="" style="outlineConnect=0;dashed=0;verticalLabelPosition=bottom;verticalAlign=top;align=center;html=1;shape=mxgraph.aws3.ec2;fillColor=#F58534;gradientColor=none;rounded=1;strokeColor=#000000;fontFamily=Helvetica;fontSize=12;fontColor=default;" vertex="1" parent="1">
          <mxGeometry x="517.5" y="2011" width="76.5" height="93" as="geometry" />
        </mxCell>
        <mxCell id="uvfPK4nCeen5NzdSy093-30" value="&lt;b&gt;EC2&lt;/b&gt;" style="text;strokeColor=none;fillColor=none;spacingLeft=4;spacingRight=4;overflow=hidden;rotatable=0;points=[[0,0.5],[1,0.5]];portConstraint=eastwest;fontSize=12;whiteSpace=wrap;html=1;fontFamily=Helvetica;fontColor=default;" vertex="1" parent="1">
          <mxGeometry x="533.5" y="1981" width="40" height="30" as="geometry" />
        </mxCell>
        <mxCell id="uvfPK4nCeen5NzdSy093-32" value="" style="shape=image;verticalLabelPosition=bottom;labelBackgroundColor=default;verticalAlign=top;aspect=fixed;imageAspect=0;image=data:image/png,iVBORw0KGgoAAAANSUhEUgAAAN0AAADACAYAAACAjGZfAAAAAXNSR0IArs4c6QAAAARnQU1BAACxjwv8YQUAAAAJcEhZcwAADsMAAA7DAcdvqGQAAP+lSURBVHhe7P2Hm2xHke4L64/77nPvnXMYkNmmvfe9e3t5L2QACQYvQAPD4N0weCGczNa27bur2lV77035qu6O7/1F1urdEnvuCASDzgOSQlVdtWqtzMh4w2Vk5l0HBwf2t6OiHTrl/T20f2BOhcNAeb3PHxxa7hAqWN4p63RwkDZLJ82KBTvIpezA8payrG0eZmzHirZaLNpm0WzTzJZFI6IfFcweW9q36tm0lS1krXYq7VQ1nbey2aKdmDuwe+cP7eTsoZXPHFjNyJ49kMjZv+om1/T7BdGe6FDtsn2zbN4so3vmRPt61oFe9WhdINI/2XzGcuqfLvWPDnmTE2VE+i3X+mf8pqD/5UUFXQDtZ+xQfdnXxXlR1l/Dv/uHgW+2n9Jv1aKibljUb4p8pnvoP7HYyXmqBvMbJzUAKoiK+jel+20VMrarFupuTmk1Nq3bid3qRCD6RlP5c1e0JBoWvSr60orZk7GCXRjctzP6sEXMrh81a0iY1U2aNeq1WdQq6pgw6xo/tLMTafuMfvsLkS4xjaQV9b8DPSCp0VxWS1b0bkujaXl9kVGDMvDowAqFfdvJqx/q151l64NLH1jQRcCLQOd0BLqcg24f0CEVSINeDw4Rx6ItZ3ZdKADbumhCkvLaQsH+dWzXno7vWEds08ondq1iLme1iYw1TGSsRsCqnCxY2dSBnZ4+0Kvp731rShSsZWjbzt9atKd7FuzLsWX7+dyuDUjOETqeIZFwcO+ClRKQAu1LOApWVPsKEo7iwb4ViwemZqpTIrULwIkVpQ5D+iE3cfDk1KcAjrxIqsb/1R1LvOMawAbwSoCTouFe0X2P8/M28FACCGzedrNpQVm8LTVpTwpsM5m0dH7flYTfVuzN6X6AAn5O6X1f7tBe12O/MLltz45s2wO9a3ame8Pa+tLWFjdrGjerFbgqx8wq9L5SVK33dWP71jCat+aRrLWN7NjZ8TX7+NyW/WylYHENWkr31iN9/BbVsoXDXUurxz7OapftiOCT/tEn/wDdn05BeADL0ft3CYrkVnQYSMIbSBq6ZO0yAt4hYpnSMEmo87kDHzTAMCP67U7R/nVizZ65lrD7r07bhf416xhJOtiqJ7LWNJK31riEIF7UewnEyKE0NISm1utIweqGd612cMMah5asLTZnZ0dm7P7ErH10cta+ubpl19TGeT1rS5SWzGd29IH0gQMP+ZD0HurNPlQSEjp2qA7yN4D0z7zDJdL76HtxR4ALr3907b6gIn64dfPfOBucuOTddMR3gOdWT+3VLZJ7UmI57sV9QFnSMrvranfRu+LKS/SGvv7acsae6F+0tjdidmlo0bpEnYMr1jK8bk2jSaufkAKbKFrZxIGdGJf34JS3U+MZOz2esoqxHYFxW7xdt67hNQF2zj56a9q+LP6+Op+0QVm6OT2LMVzKpy1F/+hQTq/uUqgj4ql6W+rP/1n0gQSdUyQ0GmSAt++g29drAN2+CNBtFXdtRz5JURo+uYsrFty/uN58a3rNnuoZt0u3Enaue94uxnbsogSibTxnFfG0nRpMWmNclmy4aK3Q0EGJ5B7JRWqKHej7otWNFgRSWUXc0Jk9K5tet/sml61qdMYeiE3ax4cn7Rt61lu7h279cM+w0pmkgJXVG/6QpUZMICxMTj5UppgWkIpOAACeADSAA9H/vH5W8u78PZ85mFHzIq6/zc9jfHsX8bkT7/3a8DwMKzz2e2LOUrjswXLqClckQ3r94caWfXxsxi72TVm7LH7bwJZ1DO9Z+4is2+i63EkAtyle7ViNPIoqAawykZdHkbMy8a5cSq48IcAl9kT6Xp5GvYB3dlhj0rtqF27O2aWrE/bo9bh9cWTW3pLPjiu/DeULlsXXVdud1OBCXkpiX2rM+/J/Fv3NQRe5O38EuohKQnFQPAxMFgIB3oEINzMpcUxLPDL6HgsnL8X6JTNfjC3Y5asjdg7rFF+3dmngttGMNcbSVi2qGM1ZVWJfMZssWUwWbnjfGkXNQ/vWorikVdQyVLDW2KEDr1bgrJBVPD0hminYaUlEw2zOLkvQHuiZssvXR+3pgSn7+vKuvan2EqMgMHtqy4HAZynQo1cJM8piT63Gccp4nIYLGSxP4EsACl4UmI0I0AEcBxydxTDpbz73GLj0G7HJ6QhoogjIgQK44Xd+P63vBWlc2qxuLP/uIHMoQQ99+NL4jD2TkHWfWLT68RWrHdtwa9Y5UpTF3xdv09Yqz6FZnzUp/m2QYquP6TWuv0ez1jD2TqofTx8RLmZz766dGUja2dG0nRUI2wf0rJ4xe3Fs1n68su2xOK4m1vhALi0dZewP1RG8hz+WqQ8+/Y1Bh9Y/Drro89sCAuggZ7aABegicquHNi7k3LoolrebCnE+1Ss38tqEuy6tcmdwd+rGigJY3ql6rGDVkwdWO0vMkbdKWTI+rxXVydVsiOUFTgnEsIREvg6ga1RMUif/ijilKmFWpr/LZR07+3fs4dE9e2AyqVhx0Rpuxe3iwJj921rSbqk9iwDH218iuYRYuV0pCyijlhdEJEuw+AEM7wQdOZcIdGJXuE8JdFwXWcEj0IkcaFx7BzoCnzMWryEtr02k38HHaX38s4WkvdA/bZcG5q05turuYNlE0q1XrYLkBgHO+SJe1Cv+bRA1Jg6tYVxKbCQtlzzpbjngaxAwobp4VjzOlsZB3oMUWaO8iYZYQb+TwpsS32UBGwbnrb17zB6+Pmy/2d53150+ohfyKXVefVV07Hy8raj+z6EPBOiAThTrQAjekZC4Cv9jCgAUySXCgDAwf9CAfHxUmnJozmr7F6x97kAadd9qS4Ahi4aAALiy8aydGNktuT3B9Sl31+e2+1M9vmdViu5rx3KK7/atPi7BktvZqtfWmGjQ7Lxc0faBlFX2bdjJoVU7OS4BTSxLi0tgu+P2s+2CJ1221EZ5yMiLZ2L31GtsXEHvDgS/w0NMopBUSoQAGqwViaTjlg6wOF88yyn+8T1/6jtYEwHuNv+OvS/REeh0cWZvVx8deMym7ti/b+7Yo+NzsvbwcMWtEe431h+Xu1GxLvwsH1e8NnFo/6T3/694+88C373i7ylRmeK5Slm1ytGUVY3JJReh3Mql7E5rPE7qdyf0G+i0fndScfSpISk/KTl4XTe2Z41j63ZmeN69h1+s5Wy51D9XJHol67q3L2X1D9D9aQTQjoMOilwfhMPpGNAiCoArWUCFICh9YcBeiE1Y9c1ha5xTvDBXtPvkRmKZaiQYZM8q9L4qIQs3WfSMJfEHcUXduGKR8XVdu6bYbcWqj2hNv1uVkO3q2oxVy+rVDR5ak4BG3NfUb7IC0vJjJes3vW8nZgTmqV2r0P2a4wvWdS1mnx1btNd3Dm1abcTlJAtIckJOksRdiDzUpwd6JROJOifQon8CBpYLQDmwRGKbrtOXpQwnrOJ7XiHnnfNPFJk+T87wXbgnX/MxFpT4F4X12/S+vTQjV3x43Mpi03ZqfEOASIt3Qdm00OfSVEAdoBMv71Gf/7eU2D+JPqS/7xYBuGq54LiPDVJaTVJsjaMaDwGwdiyjWE9u+jhJFoFNv+cep2Z0TzGnSe/rxg6tciRjFQJe3ahc2ZsJe1YK4HcredtQOxnyrBTtXi6l9yE8uZNsfZDpAwC6kJH7I9CVBOeQ4F5vndvS2kVJWE6mTZeGVLYMxIbevxyftbbeuNXMbdi9M7t2aqpoJ+X+nOqXtQNsEoz7pGlPynK1zeTsogb1zK0F67g+Lhqz9puj1ibXsKU3Zk0Dw3Irh612KC5BmJOVXLK6xJYspWIRCUeN7gWIT0nrn9Df9+jve0p/V48f6tpDd2lrBerO2aS1xObsQn/CPj+9ZteFlTUER5Tnf26KBEPm2jKinD4sWTsr4EKH6ZKcEMM8Jdlbj8EUi5leQ2IJfpRQRTbT8/wiPhMwi1m5rrjjuiXTXNv6akuXrerJV0SfWTK7PLAmV3lZFnzVWie3rVntrpHLjPA3zKg/9Hn00CoEwAopGqhM76vV/yp4QnwcT1ld/7pc7AVrvTVjnbemreXNEeu8Pmlne+V59CxYww1Z0BtLip33NA6HVi3En5g6tBqNUZOoNn4ovkkx6p510zlrnti2cwML9tEbY3ZNbCKxsy0/uCiFhcq6k1x90OlvDjoAd0fQuXYW6T9Skh5E86fe5wQ8vbjLhcX4tVzCx3vGpVXnrGx+xz4ym7F7RnI+L1QtDV0r7YxglE8pmJ/cs9NvxO3c72P2GbmD313O2X/u7Ntrkv0/6F6/E/1UN//mXspe3tiyBwW8i8MT1jk867FG1eCSBG5T985ZhTT0h+ak7UX3lYDYqGe1Qnp2Q6Lo7mrZxLpVy+pxjxdHV+yXSwUT7h14GfmQR/ONApBl9ekuE1bSJvBBVo14l0RLICa2if/CxHkum7S8NM9+TvcoyHblRUUAqVfdM5tkFtFsJ52zlWTWLS2CSzr+V0s5e1bxGQmj+v60lEPOmgScesWoZCBPx+UBzOXslN6fUGwGEFoUB9fI4lVJmXWqj809G1JW6tt1xdE3Ju3J3jn73MSmfW+9aL9SM36n7vxOff2NQP4Lvf++Hv656ZQ93j1nrW+OW1XfqpXHsWqK6xQn1jGprvvWy+oRO9bJYjYqNr80MGevLOz4ZDxt3yOzovFHVu4kWx9k+j8GdMgjTMYtSonf+s+zWgq17Jk3RqVJZ6xlesdOjG3JzStY+TDJEAn+8KF1LQgUw5t2t65hnu2Lq1n7rYKYRf0ebY/lIaZhMCPCleE75vq69YwfK674tFzNh/tnratn2joGF901PTFftA/Ph8l0XCPcznZRh6xAmzR3RVyxTSIrSyBB1m9ark9IMBfsu3MFuyVc8SySFylZNKosvM/0vwAAJbVMgJNoEkSL7yJm7oqFEtiKWD+9Us5xKCmHBFGswXY2724kzyIbKINs31Lc+7FrU/bwUNE6JMntai/xWqX+Lo8XrFr9qZUyIeVfN7uvuCxpZbKGLXq9qL/bh7esXorrqTeH7cu9Cfv53Lb16vHCpfMNYDM+9A3YR0CHzzJw1r2V82TNRwdX7KzuW9cn116Ab9FzcdfrYuIl4BspWFVsyxrHV6xT4cP30wWfw9vew4rrjehOsvVBpg8u6CKCsRokSCJpKf29I5Ko+ZzYVyd27OzbU3ZW2rhlOmsnh7bd1WmW1anvy1ibBq1pmDT2irUOTts3JYskDFzYdUPJiWX0GLLleX2H0ZE8B1TrOWqS/4nQEPsMiH6yvW+flNB2vDlkDXFp6pFNCYzcJVnXsyMCuQSmTWBvlqvUMHYgd/NAVi+v97iaW9Y1uGYPDa3bxwTCN+UySc4c5JtqT5q4lf6KP5aVyAIiB1gAWrB24V/sX2ikXiGujUCn76je2RJ4EX7ajgK5rmd88takfVQu38W3xLf+pHUKcF1SEAh5La6j/i4TAE/rbzyEUyMpqxmRmzctl3xAFv+3N+3x3jH7RerABuV1zOQPbEXN3Va7YV80ZGqM/hDwFX8yr5bXe9hK6+gVY/C2uvjydNrOdM8oVl6zNgGapFVtX8HOMIbxA0/IlE1u2MmBUXtmZtGu63fMwHjX1Z87ydYHmT4AoJN4iI5AJ1fK4xOSBQ5AMVf/8MJg7Wkc0Z5o7pt7h3bhWsLOjDFXJJoohLS03KROSXLjYNLOTujvt8btIVmoN/UbyZFbtk0hbWc7JW+OmEd3JgUK+ig6JNOBpKKiS6/kOXwqi9+KZLzs6s6hfUou5yP9C3axd97OSWi65JoxH0ilS9NIUZbh0JpiRQlUzt03JubbJvW9LF+74qf7r43b9+Tm4TYxGUyWblsMoQLHU3Wycjz1UOSWTZzAfpXgFnhFGZxiuP18Sm/TPvWQlYXcEOAAM4CTt2bfnNu1x29M2RNDm9bVvWLnpSiahjaklBTDDSStqS9rrdIqJEzqSnEbwKue3reK4WWrervfnhketVfleqMoVtWONbVpS61JutO7L9BlpRhTlsruWDq9qZhTbZImwx0uHOjzYtJ29vdsW7SpdsPiXiH1i9Obdn5wTu75hjyIrBcmkKQiiVM9VrQTiR0rH1+0dgHv2+t7bjGj4pQ7ydYHmf72iRQx7b8Cnb/qH4o50vIrARxgAwerev/dUQXnvUvWIn+jomdXA1WwTklXdb+EKVGQtUtac9+CPaQ447dCKu4keNpSbKNbSrCBEBZCgk2BMdXLVD4wF+QVv6JdgVHgdpOI/KNZ9WdRxL3i+vzV1YJ9aXTVnsD17JuzOoGwJrZtjZP7ViOwMZ/VMiIhGj2Qu6RYczxjVQBvOmPNvct2qXvBPicQ/kGPxhohUFgMPUL/U1sAHnN40kBwRJ84z2gDtZwkSYpqfz4nwdYr19BcrA/egOTWvjq5ZU/3LwlsS1Z7Y9naxaea0aw1zyhmmtyR67tpNf071hqT66i4CoFvE+DaR4tWfX3OOm9M2FfX054lxn0UjBz+Sb1L6mkpESV5Wbm4BfE1qAVZNsWbBSmDfVngoDSywNL29ndtN7frigwlektt/cTkqjUoBGhMpK2NGFzWrk4Wt0rewil5CU0ze9bYPWIfH5n1ifs1jQWZ2zvJ1geZPrCgOwKf/slKqPYU7xw3QBN7OfvMtZh1jO1ZpdRu9aAsiwjBRphOj1Pft2511+L2U0kw7iGmsriqP4okm9O2c7BheQ0+iQwEAiEiTZEW7erZm/t5uUxFPfPAQZDRK3WAacVPlHBldY1uaRtqvzBvP1pO2scmVq1zcNaqZcUA1gm5RuVyd8ny1SYOrWo0b5UxuWskLKTRu6QJavvWremtSXtxZMteVyejlQzM55FEobA5FIWX+CVhiwiHQJc5+LJS/TldQJvg06zolvTKFwam7dEbcicH1u1soujzbP97oGAVMoGnJtQ+uY3lU0mrms0ojstZldpR07NgZ3uW7NxrQ/ZjaTiUAR4CFT+49xk9M1hcZvnUEP3/kPZKE5R0BBf41CNJMP9Ml3GNfqqx1u8I1JP6Qp8D5F+IyZfjSwKa4kU1/oRcS6YmTsflbo5krVNKlNj9id4J+6liQqwtMvFuufqg098UdBBCFJH+LL3yRiMrwhqlCxkJPQ5WYPKiBunKRsqeFqDa4kkflLOS1JqhfTvZK404dyjQrVm5tOIX1lK+pMc14pruiwmQcKZyOEZJWQsore/RwP6JBPbwCNxk++Qk6RXQAzIAWwggpf5Tbmle7QEkWJXX1exPz67Z2eEZuWgLVi0LczqxayclMKfHMl4N49UXajNuZ3l/ypqltrvkGp+Ry0di4eebh15cjBtLlYhX4LDigOkBPYvnMZMC8Tc8y+fVblnpHfUNBUNCA+vx9JVBzxSe716V1d/2KpBKJrHJuo4f2olptYEM5UzSyqYUDzMvKaG+2D1unxtZtiHxzS0bz9MAgBNArj+dABGmnzYeKraLACYG+QXkdsSqo7/Ro0V1gFpZ1xr8RgqUsQXYX56Tte2Z9gKFMikF5lZPS5mS2WSa4XJs0x4ZmLNPxGY8VIDvxzOYgPk2RZ+XAH90XcgIv7MK6n+OPjCgE498OgBw8LeXYuQZLWxPToEz9RtisnwRhPGF3lGPAS4olqNiogrfX5L2z8NZaxQAy2/G7eHBuPXoWjT+noRFchsEQO/tgJS74g1JCMyPBoqkDrnCkC+8TfztSR9BjuuiQcsrHmQwmUvD/SWGwvX5RTptLySmrGNwRKBatEYJU7VcyIrhXcUpxZDd7D+wtqGitUmgailFG2fJS9ouKs762mzeFA66hU2n8qVVFClXELhxGbUDy4s11GWWTcvFS1NaFizlT7aSdvnGsJ0fXndhbejPW/2QFFP80CqoJhHY7psr2IfkKVTM561xNms1csMb3xi0Z3sn7bWtfXfHUToUvzjfSvxDH4IZwK8h9HGEQhIsEvA/pnDtO69XN47uCz4n9NFHe+JWN7VgpxcoSsip3cE6M61wYSJvF+SSPyKLd0PXA7qDrLwB3QuL68u+dENSNiSSeB7P9ueI/DrGXNchV38L4P3tQefaSMwQQwAdc29MCwTQaTQkZJRKpeX5ow2ZhprWx/f3jktAl+2CXLXOQblKZNyErg+NFK1GFzTeGLLPjifcYhAjpbid7k9plQ8CCJSLiAt7p3a9V2KRalQ7mlV7WY8WCX6/6FsbO7Iag1b+Zo81DS9bx2TOazubZUK6pKrbKKqO5xW3FK1sbN9OK4aq6N20y70b9spk0ou3sbguM/spS2c3xA+WneYsKfDRlbWtbdcjxEak07+RWLRL14fsQqk4mTpH0vCt0gYNEt5TQ2m7e2THTk2nrWlZfw+s2L2vx6zrRsK+vpSxbvHKAaebAy4AIXTrFXon6MDNnfjy3kj3RWPQeAZX92Rd4jen5qSoJuz0/IoXUqNUmTyvHN2XR7BvZ/o2PHH1moYQz4cCCvcGHGo5gTesPHTXV8+4M+jC4uC/Y9CJMzBExLgegY7khuCWPtgSexAyuSX6/upiwbpujkmgcOP2rEOCW64Iv1yW7h6pyqqRbevqjtsPNrbcyiG0XtiiWzoxCAT7xdT7Ah2WD5WAJZTOVBvlgso6e/ypdmKRyRz+fvPAPh9fs4duzVpH36q1jKV84vx0LBkydeNFa1QsCjAorK6RtW4YkGAJpJ+cWLQrul9IrijqzMv2wSg9j+RJNgMAZc0luMy/fX0xZ5fkTrb3y52M7fpktxccD+s1lnVrQSlWeak+sro7zB0+Ojhv39woumdAm+EZCpCKmOAG6gHMHUq4qYBheLCyfwnQOSgAnl53GV/dvCMxbhXTCx4+tCu2o3a2YkSfSzGdGdyxrh61dzlYdn7LHCeWjqmULF6RLNk/QPdfUHDVxJnjoBM58ihlEmNS+9sS6oJty4XD3frR0Jq13hi3xoltax9SDDCcE+gOrUyavDwh96lvyR4bnrIrug8rD3BbeIQw4q8uKF5CRTr7/YEuKZGndbt6BRR5CWRBnchnBESZHp6FBZKc23cm0/bwzVlf/dAym7HK6aRXrNRMpI11fSwtapLFBnw1E3KT1b/GvjF7cXrefreT9JgR2UHIqLZHmGDVqv4mq/h8/7y19ZCZLM0PyupjVZviGasb2rLK3hWfT2yXcuL7iqtLduaNMXt5YsPe0o2YVsBSAuAt+ZTIqic7vKxMpohpCV/HSLE2ZWn7R0rzzyFPnPEM8cg7pkfhkRCP3j+ZsLrxeQGOecRDr1DBm2mWtWuL7Vlr74J9cmTJlRFKNKf2uusvwv0GdEG2wvfIlvPrH6CDSlnKElPAmoPOkaF4SYxJHu64NcFykCT44rUpayU1P7XnE98swSmTFiTTxcR49a05+8z0qgfaXA849HPXpKT7uTUrz3HX3i/o8Iqo098UiPcO5NLwLNovARIWHXFqvm/vMafn/8dq0R4ZmLHGoSnFeVuyzgLDVEoAK3pipWHQjFXrVVOHVjmT9YLr9ti0ry/73VbaK0rSegThLkYIJTSo/z1zc8ouje7YCVm0fxrM2WnxoorJZd0LQONmNo/vWou8gMb+DSmtDbt8Zd5eVRA6pE5wX/hLjOS5DwFrn31XvMZTThzr7iTM8C2nf7HwiO37BV1GoOaVsYFnaRGu+YsLS9Y2Oh88GZb/qC+AjniYOdkGucSP9kz5MiRkJqP/ofAcdPJgfHcB6lR5FmA7Ap1kgDEXKJ3+/kBH50M6PCAhvAA6d/s82JWlO2Q2KAjFtL577s1xX7FcrZikPrbj7hPJgbKxsJ6r+caMfX8zE1LvaGP2DvF5iQA63pKtZLL2/TAdYVGT3b0jqYEQZhXTFXHFfD2OvsDM4QMhUHqR7NhPd4r2bGLeam8NqN3zdmpizeonMtYo16l2WBZKwlUjq105eWDVU1mrH1m1c/0z9vHhWfvlctrdP26JC9gtrfLpm4v2wMC6nZKVO0lcK1Px/w7L6useXuw9lPc1bp1TOWsdWLbm10ftuf51e02/BWw0EaDtqSNMzwQNJYEt6CkA7mBX/U1qbEKW9zboAmDuxJv3Qvw2uR/2tQkDL+9AXgJTE9/by9nF2Jx1DWx53Fs/on7AFykm5jrrYlt2/mbCunfEc7GaMjosL/YuJ9ARZxc17uFZ6gJj74CD/s5B5xkkdd4jc/2nj91awDRmzQoa3r3DlDRwGIwbUsWPvDHuAsTSE9ZesWMXS3ZY2U3279ytGXtdAsT1KWIgyqnY/0NoY2w1FCKyXHIIS+7tn0O4KvsZuXmKQUidI0Ts/JWXGwbwDimZoNZMLwA+pW6iOHATb+mzz4zOWGv/hJ2S5SuLb/i6M2pGq4alPHAzBRwyd/VDoXyso3/OHhfwfqIuUY72ulD3/LU1e5rFpD3rXh95r1zVE/IRSbd/BJdbKD+te1UM5ay+b8sudC/YZ0aW7Yr4SFtok2sO8cXjtWxGXmTS412SWA42KT0AF6ZWBDlZwUDvz9IxzoCX8XDTLZ5JJIyZHTKTjwxM2bm+dWvup8rIrFrAq5bVI9NbPZ6yju5p+83irltnFFpa98PFzOYVq+sdhQLhWQFwjD0Uge5Q1vAfoCuGlDMDif5jXTUzdLsa+B25IWjlX60V7fxbE9Yxf2j3jqU8HqoW6FhuQ3Fx6/CuPdA9Y326lvR9NiNtncK/07AQpzC++jyklSO//05t++/Jb4bAOsnqSWgK0tz0iv9nFAepOxLsvKgogUUwZKF0PXWWTO5+YmzRumIL1jK6Zo0J1pyxYPbQOiRgbUMCXs+B1VCeJevVrJiwRi7Vg+PL9vn5Ha8wuX8wb2wt0cqSosm8r6S4Z3zP7h7N2Gk94N5huayyeI2Dsph/mLIX+xdNt3TAMcHtYCPLlJatYx2f+2HikNxJ3/6vBDZ3x0suW0ikhFK1O/HlvVJwz0MSyldJ4CGoPWvZA592+WhPws73rcodFl/wAHC7FfdWkQyazFmbYtj/mFkPygOiXSgDgY5BIekUnnUbcE7qI4D7uwVdtMmQZ8bIkmGN9qkKYQsG5qPSpf+H1P9X4it2sWfR6hJFOzlZtKoJVicnfTV4TTxnLX0b9vHRDQ/G0YC+zCUv4DH9gCbXI8i6+XyOBOn9Wjq3YqDYEz/6TH1C2zKrSJJlU/3YEPG6J4HAfWNyGImneJt2fl2K5KxcpRYJERacLeoo+KXyn8WjrFavlsBVTOTChj7j7Gi2YB1xuaUjBascOvC1aDXxjK90b5rXZyymlRfQKHfz9NVla39r3v5d1o9CATyALfEcN8yVnW/7J+L9PlaARAN7toS0u5MAEqwaliLERlD4+518ea/EPbFJuOVF90bkj4uPTMTjDVBad65v0b2XJgXogI5lWtXj+3KdpWxiq/aVoRmXC9xtZASlQOncoeLRg3wmeCMMkxRMRAF0UZXP3xno6DzCD/AcDZgCEXMuKYS0BDdSwGhlmPt5ge5M34onTE4KaBWKhQBdLXuexDLW1r1qnx7f9CwcG5b67qV5WTpWjOq+nuoWoRF57vtnOsLHcyLifuzwxXKavNqcsRXRqmhbRG2iUWCdFElK5tQ84cVeE3CfHlqwpuuTxn6QrRKsMlk4Co9xqyokdOVyFVlqQ7UGq9qrEptWxT6dVLfoJkw9VA/vyUXdsPJRuaMrBbv3rRG7LOv2/aVDn2yPhJPCZOogw6LXADbP7KlDgAtABDdcvBK5sHpf9YcujygA7908eW/E/Rkj9t10S8cWewI/Bg/r9e/j63ZWiojVGYCOuC6A7tBB1yKlQ4kbc4okzNy+eeCmG5BtLWRdCbrnhGjpe+g46N7PlNGfS39j0MEMhB8rJ66I5xD1e3t6sx2BTq4OhgTQfWpkydoHFb8ohjuVQBDlXsq/981yYlnruLliX5rc82QDW/7YvsSsoCGRxQPMEeii7fzu1K73SghmSKCEvviscclqMKD8S951wykjwRDopEAQBktDuo+kABAwtfGGdMNLY7JKvVNWM7pptVL398nPYluDcgldlTQ9Ffdsb1c2xep49nhJWd3UvidhqvpSspJFa5d1q4ptWtmNEbu/f8x+vJUW6EsCR5ZPoI/mF+lD1J/IIrhw8nqM4L+DLgKcWAu9X9ARq5PE8W0AiOsUB1Nah5fy45ltr2NlLWKjgEYmlkWuNdIegK5ZoHupbyIUP4tQKA46GokykVy556E+ittO9A3L/fcNOjHJGcUgAjo4o5Hf1Qdb+sPFQ4BhwBGcF2JyN4bXrXLi0E5Ju1ewd4mEEGFsknvZfm3J/n0x56DDvbMDSXJRoBNwcVsBHAQ+vIrhDu16r8RgoqkhYjgGMAKdfEgfVCzKrgjw7Tro5NKSis+JfItwvd1WW6Wm0dY39NHzYwtWNzRl1fMpu2cm59tBADosHkJH/eapyYydpFBZAkksxy5mtYrbWErUyvKmnjlruzZkr0rL4MLqtnqWmLu7o5CNmg2yn0Hwg2Vztv8R2I4AB7hK8nwEOr1G1vHPIZ4HuBx0LgO6qUBXSLsNtl8vZ6xD7mPl5I41ThxYg/rOUh/fRyURLN1z3aO+igJ31EEXLYkKA+xjEoGO5wTxCmEAwHw/7f9z6W8OOjJgBOU+iBFnNBoUNh2BjsBYY4I1eHZ43tdcsdzD3S35+3XjbOtW8AWrHVflSsk3AXQ7utkBk2QHWwJt1gHuriUCxPP0nPcnNGTfigIdQoIbUxrsI+BJi8qaYsk928e/evWJW3epZWkpCkXyBD7khWkOdlH+xMqmne4ZcYt2crLgfXXQScLYQ6SCDX7kWjfMsKqbLG7RzsinZg3hyd+M2CODS/Zb3QsrEGJbMTcldGflz6qdsHpT7UPzMw4oNcjBx+sxAnB856ATHV18zCX9c4hnqTXeFhk8PUw3F98AHVVnV9Tc1uEpOz2z5RU8TfHDsGXfyL7XqbbGNuzJ63HP5EZ1ojQLsB25zCXQIVZ4FP8AnYOOjXfgRIkjcEaSAOg29QG2ghQ2oFvWdU8NzcqVUiwjze9xjuI4NgGqlqZn7VfblXn7iTBKTLflkAig80ldPYt1qoDOn6fnvB/3yC21nhARbgvxXBjQ0sCXwIc08DnA5DpAymuBnD0SpvYw9bAr5KG12TDoU8u71jqy5pacLe8AnruY7mYVBT6RXM/GGVmAyUOrie1aY/eyPZvYsd+on1TtewaXeBmXFutaCGvuyPRBCODtPgVg/ZfE994/rDjZv/eXiAB0xGFu6XR/r6wWn/bTeD9m3fqiKT5lJ+Y23Jqz7T2LW3mtK4HusWvDnqlGyQI6t3Qgz3ke3EvGJsSxt0Hn4/M+lcafS39b0KnvJEiwPgDgvwLdPtpZPFqWYD6uwLke0I2wNs2scjjj1RzVwwXrHD20ljdn7Zf6PaDb0G+JqvYFPzKVBOwOOt3Ln/c+QceAHXclmXEK6YmgXbnGTYUHkjxPrwiVvotiQXXfcgID6W2O8WC6ARYAvLcldE/0LFjHsGI39ZF9JYnxAJ8LHxPgsn61kjimTMp0bWd3wn6UPPD+z1OKpv4hfzkRE8gUZO/peXm5miwXiuKaIKj6UUQoJaj0dxBOAQwrrZaT6nq/ZVSAzsEAE3gOjdVz2IoekPfr+Y0jCbt3PoCO8yYofuaV3aLbh9fs4avD1qufBs9GtwG8/M9Ldt4JOqwqAD8CnRjzd2npwnxP4IELJlzRK0mQXb1hjmifdLKumdcgPNY/ZU3jW15xjqUrG0476OoGC9YlEDa+JdCJpwzC1mFK7FbkcoilS8ugBPcSIfxLgM4b7ZO6DHBIsbPkBvsKoHxwo2fRN0gqnH6TxOBatlVga3MEOL+ftKyAgO6Z1P++MbBqT3SvWefQnruT904diNRnga4+FqYSKAS+lyU7+vyS/O/23kn9Jm7XxEcygEk9n8XwSVnTPYEO9tIctU58x/2OrFUQQPgBebuPA4/vsGwCXahFYYQEPlnuO/HmvdB/BTqUk762Yf15G3TZO4LugatDvpN2BDp1Q23W/8iElvpF3Eq/eVZk6Vxh/j1auuMdjwL2CAx870tmJISFnARaA4D2fqRnwlonduz0CBUpptesVQ4lfX1ae3/O3avv6/dMpLNVuG/kerhpvnZOA+CP1L1uu0t3btt7IQedbw6rAS6BDisXrFgYYJ53JMQi+grocC2DXUOqFeulZZczpFzMErrlF3s37ZFbO3aeBMpwzsriKd+V+uRIxsr0Gdv9lQE83OyBrLvXXr85smfN3fP2wtiGCyPJJyr32QtGqJHCCfuniBuK9UrAP6KQWAEM72i3Ay/0Fx4G9zj0lb7ciTfvhSLQoYtQqq4d0IiZor8MqMmNQ+N23+y6l8mxHUejPBpqSdkLp3lozS7cGHJXHNDhqnp7PQOkRhdREKFf8JWPffzV5kB/vsJ4P/S3BR1qCa2kwURIocA0XktCLcblZUnwzFim82hvwtrHA+jYwvv0WM6qhlPWJQHs7MtZQ8+yfUe/9+pzFt+VQMcCUJ7nlk0UMf9O7Xqv5O2nrhNy0IUBPg664wIM4CLNyrWAFInO5uQC6z0COKaPvjudsodubPg6QXY148yE+gm9n953y35SgndSn9+jPlfEc748iNXnNbG8Fwg0xpJ2dmjdXpratiuSY3jBNg4HHKBZSuwk5cxiGUgChQWxEQUrHNxjXcB4uMXTHxoT2s53QZCD8B7nyZ9C7wSd7k9VDGjLMp0j91JfNAt0p6Zvg45zDwAd2zewe9j5W8NHoHP5oa0l0GGZUSK0MwKcj78/W6TOvV8Z+HPogws6BNSFWtpKlgSmwdgn+6asTTFd2WjeTkvQyhRQcwoPoOsa0KAIdN+StCNobP32VwUdN0FIRNw70qqR4DLgPMOvK1EAHYMtLQvo5OKls3ue7haO7KszW35eW2vPqoQq5TuKUVmPsPFK8qRCn7EteaUYcu9E0somOSRFgtif9o2FziYOrGVo0850T9nnp1d8MS3xTJ59BjMFO5DVo06RGBdrFWYUo39LFrhkBbzdKEBXgqH99Im+Rf17N1/eKwE62oVy8hgjAp2+IB/Soy9ugy5s8BRZulqqVIZX7OKtmF3Vz8leuvwgOyXQwd8IdMeVX3g27f8H6O4AOr2heFiWhFgMxnKgRNvohmK6goOuXMLGRkSA7uygYjuB7uvyM3CrfC3YIeJ8G3TuVv4lQVci/j5uAcJAH7vmSHCDixZZOsqV6Ddzad9azVhXz6wEa8PqS4eXkJFkfVzdUM4q+7O+SxZuZMXQhjXMZq1qlXm8bd8bsnE4b2fkbnYJvSxg7ZJyun9w0v5tft0mJHRuVcgMplFGsJ52B/DfLvsKpV/+ueh4H6GgNALY6N9xfvypxO9xCUkhuWnLlECn/xCBG2owoOM8wP8KdA8qfr2pawknHLxulXWvAoUPIZ6LPA7G/R+gE1PeK+jYlhIgPTc8a+0j68auWuUsbGR3K7mYnUOHAt2+1fSs2FeEM+b0qDhx0PkBHdLrCBJMd8YH5r9fCoMYBjXSqg44H9DQN+9jRPo7sooMulrk/frZ1qFd7Fuy8sFNq1TwenoqaxWTSd/evHFcrpUsGzswN8p9bBOgzgzNWUPfhNUubgl061YjawcY2Q2NlHqN3FCOCWsbmrcH+8ftR6u7XmAN8CRngccUOdIm5gx9CiDniZIIhE4ADyoBLiL6HOiPefJeKQIdFtcHxUG37zylnW/uHVrzYMLKpzaPgS4c0VUzGkD3aO+YTxnAw3eADuWmQDGMh4uT3xf5ip79dw06XgGcC4Q+egfo9sU2gQfPiFKfj8XmvNAXoFVIfVckFMcwZzNwaJ0DRau8tWRf2Dx0q1hAwA8pNNr2inkXFjH+Lwe6MJiQezR6JoMM+ACc98/dpWOkNjHQXINrRYbxzd2sPTu0ajW3Vnw7wRMLZh8aS/mGQTUzabuvf8X30GzkqKk3puzh+Lr920benh+fsWoJ3anYvNXNJL3422M8KSOKBSr6d31JUHvfrK+k/8F6yiffEcLithqNxDN/IsXmxL4xJfCFTGUAXbDKoc8R6BDeyGr8uYTg0xYHnd57xYx4xPgwof/aFkd0JaR8AF1wrzm0E9BREADonuob84164aNar9/rXi5TstwOOHgdxpw2h3YHwP0DdOLHEegwUAxuCXS8RqB7ier64WVPHlRO7HsBMId5NPftW4fcyzKB7tNrBc90evLA83S7QYPz3CPQ0QZcqNvt+VMJ2XMLVyIECDAhTNyb5IonWTzDqb8FQH6HEAA4tPMbqay9FJu1s7cWrHEwbdUCzAm5zR8ZK9rJmX2rmMvYfWMbVjYiC9i3YOe6Z+0HO2ED2SupQ3t2YNpaeyetemRF7vaO3TuZtfLZUBhcPyir6MudtkSz9sjYrP00HebwcnjdSDZ+e5SBPQa+yOoddzkjAXXhxaLo1RXZMZ78KRSUj5pwKOaJb2ECX1DQ+ACin65lrUXhRFViuwS6AwcdK+wrBbrG2LI91z92tEPAcdC5u6x7RqCL5CqSLQD3frOvfy79bUHnUhtAB+DeDTrXtBHoioelgud56xpaNo7W9SUeAl3VuFyPPlm7QVmCm4v20krBqzH8RBwH3V5Ja+uefyXQAbgIdMHKaagB3RHg+E24BlmnUgR375PxOWu5Epc12rR2uYan+jnpx9zF/PBoTgBMW9vagVUNzVrd1X779lbB9zLh90vqxxuSto/2zCiWHbfKmU07MZ+1jySyVjZUsE65pGzq04yrOSv3Mz5rj49M25uSTtrhDIffHkepnRGVLF6Yk7udYAmxXuk3uozX92PtEHj93HnooKPomXWH+pDw4Aerco/7p616Yjec4DNy4IdT+n6hnOYj0H2sb8T5iA4BU45Y9QdlodaGMdH97wy6kHG+U9v+mvTBAJ1eGX+0f+QGOCA06OgvgMfuxWi/V+bkLknI2OWqZrxopxW3ALqW4QMXMLYHf1haX8bCd+XyMjINiS/A3D/0EAvyYme5rXdq13slmv9OwCFAfMdDEF6R3qe2ZJp0HeO+IgnDwpE4+dLQlN0/sGSdsT07P16wLjYTkuKolJVij5N/HpZ7OXeoOG/e2m4O2b+tbfrv0OrbeiDP21QbXl0s2AMCXdXQpFUuJRXjpe3koAR23IwTY4nzGmcP5BGsW/3NEfuXxKrFJHyAfyer9qpt+1gHjulCaKlWYVclSSgVo0AuZDklzMdB5wLMWL2TL38K5TVGDHkOKwfw9DfxO27wK1Nr1tI7bY3qD0u5fBvBIaydXGdZ9EoB8uXRWc9qc3gJ00rwWRpPTcN7YiUFY6L/RW0WBdDRp3+A7r8AXajKj0D3bwvbfsJLayzly/bLJtJecU6AzUk51cM79uDIqq9R42QX6jt8OSlLiP7qoAtWDqvqyQmBrphWz3TNXrZo6xJSyrsAzg9n1u2p6+N2MS5LNkLbM4pVM9bK0h0h4pT8x3oSKr0b1nJz0l6ZXbF+NXxDN0N+8Miy8snZEYKa1O8tp+xC/7g1JJatYSEry1DwavzaId1HICbby1xX59imXZKwvjK97Vv2YTF3ZIXpB/8cMInO1hbqB8dwsbIfAY0m0RFgT0ggwH8B0LEdPI+mEudQ/DvICyj6gDnZz4wvWWufFOwkK0lk6dTgdo1xi/jDCnlA97WJec9cstEv+sI1SAl0uJZHoFNb3f+k3Ro4pIKFxsF6/3G7/pr0gQcdCRAGPyfpQsN/dy1j53oUxwzL5RhR/JLIHIEOa1cd37UH4isWF6NhOPtlslIhgC4A7i8GOgZXz2EcPZZjAAU44qEIdIVM2LJhS8/EZcLt/Y06+9SNEbt8a84uSntzlneLLFOrLF6jLDd1hpR1NSUOrf7KrH1udNNGJDQuQKy4UNzFPff0CPAB7+R92b9PrvsmvGdGV/zYMKp1ykunp1axk7RAeEHuePPNWTs3MGtf38478FxoRX4+gdfJ6Q+NCcUFuGkR6CD6qq4HIdZ17xd0/J79ZaiSIQbLZbBAYXXE80Mz1jmw6NlblAb1tmSp2+P7Ibvbl7DvShmhjNmKxvfoLAkQVjnMl3pXwiD9A3TvHXQIGpuJUkX+s+SBXeydtfahXS8FqpxiJTVbhofMFpsUsUlrrxjMPdn2gdVjYQmRbs3gIFQOOt0f4bpD294LBdAFChm+44CDeJDZWjIcCUUCgzmlJ29N2QN983ZeioPytUZZI5YlNanttSPb1j5XsPYZ9eXKjH08vmU3S30JiQbBI5OyZI50uD5Sf3aFQ0AjI2lfic3a/QJ0+9iGVY7vhmxobN9rNTmNp6lfbmds19oSW7Iio/bTZN7bRZJqOaN+wH/RISVZ3k8E+DjodA1C7Dx8f6Dz8UcECmHpkwMllfW+kpHkDLyzQ2uK39NWNlq0SvGqU7zqUGzHesKKgUn7+fqOywVLE1n8XBpctZXK0FBr6u0FbDBM3foH6EqgA3AIDh8xkC7E4hA1k4XCntyQolu6P+j7BwdIpuz61nuVU2K+/PsG5m9EtWMp6xpYsCs7YQ4olOX+dUAHeTKg5FJ6qp2V4Qci7i2BJetKdp64A5f3WQ7zuDVvjb1ynXABY4fWLGvHQYic5NM4kbTm+Ia19SzYwwLnWxISLCRNPkgGwHFCKxsdIT+4Yrt6w7w7wjqwu29fHp6xi31TEtZNq5neD6sS9AyOv2rsK1qHLGjLbM7Kbo7a8yNTdk2/A3gLugf3Awhu9vQK6BDMCHS4bEcu5l8IdKxkDyCRIhHY6Qe7gd1/M2bnY5vWSL2pgFYhXkWguy+hWH5o2t6QQkN28jSKwSUZo4alNR7vAJ0zq/QqAQgrNUNt5p3a9tek/yNAV2SfE/nqgI4i3keHluzc0J7vXFwlN+oIdGzPJnezrXfGfr245/cEdKzeZgAcdK4R9YUP0PsHHUJJpvI24ASKCHS6N/PPWDncpa8pnnrgxqw1965a01TR60cp6WoRIjlymGVKXTNFq786aRffHLJfCUAkFNZYHSA+IVAFziKn7ZIxNljdkn/pnlNWSkY+FormxnbBnqNGtW/Wz+yuU4BUA7CxFAmzBrlp5eyMPbFlXbeG7OXpeV8eg5u5JZmlpgBAMZ1AHyLQRasnsHZ4JAFw0Lt58t7Ix1//ATrixSTWLl/0PryWLtrFm8MOOraEZ0UJlq59ILiX95LRjM/YLbXBLT5Bqe5H6R9Rb1JeEp+/A3T88Q/QiRv/DejQ32x/zugAOnc7YkvumjUrZsHSEVQzh8PK4vqpgjXKQvxHYt02NQ57f1XQBcC5OwnQHHARhXlBekDM8fr6vj355qhd7l+31rGsHyt8z+S+z8WVzRzYyYlDxSz71j6YloZfsm9Orbn1oc/r6j/rCxEiYpcjFzybte0cvZPg5vO2tyuHSX0mO/rzlYw9NbhsLbEdP6CfbCibzzbpPQf1V/em7IIU1Hm5aA/e6LEfLG156p0DPHIIJzzixuIP1hxQHAcd46TulehOvPnvycdfLiEn4QLqXeI6PRc5+A+5jZe643ZheNNrUFlVQWza3ndg7cNF+/D4tryDOZPhcx77Dmv6se8ApnsBOizmEegiBP4DdDCdTrPlQWA2QoNQ8RUxEpza3+ebon+Pi/ZcbM4uKNbhpNWqKQ1IIu2lT6TGG6Zk7W5M29fG1zwD5v4+rNVNGVDHml557+TPCUIUXMXbFGK123HbuylcF9p/BD6P5SSW6h+uGlbulv73me4ZWblp6xja8pKmj4yk7T6ZsRMr+/b/yJ2sEcLaEkVr+P2EfWl8x9vugCuyaUVG9+GYYYQl9OGQM8PUEQRsMwWs1Rm1J5lky8KQcv/G7I49NLAsod3yc885vP+UrBwn4DTL4lX1rdmFmW1ruT5gz/Yl7A39EGvn0xER8LB6YlSUUAF8gXQNX8ML/X2cb+8e43fT8e94BgqDe+6Kd4RlZFS/vbBtF3onrWtkU/GoYl21l2O+2nr3rXUw7wUDbaPT7kHoTgJbie8s51KLOLwTfJX0RmgsH/CqD3je32VMh7ASCxFCAygElFACi8RKEhdssSZTYBgyHpeRcv/eyq61s5h1ekvWgeJgxUHDWVHeD1xEuz/YMxtcJt0Pz8w5rxHlPbxncP1wf72PxuM4MVgpPT8tULEUFkLLy345kZMMCfVwvcad0ZdhlhCm5A4KGIAGJfGp/gW7cGPSznLC6Ni21U6lZenSdmImbf9rftdOreflPq1Y3dsx++zYovXrPvR4PcvaedbYsS/arojjwsLcUmCQXtnXk63PeS0q4pLgouspJGBq4uXhKXvw2rAf0N8hl6xcyookRNnioazFrp0e27JODvDvnbUnbk5aj/qBpdxxEyFiMFik62sGw7bqtCJsHMW4sT9p1mMoX5BLlvggFBsT0zIFcOjtjDRp8GTcm5HbzNAwL0fmEgvKljEkdT6FQuhfs5bEjieE2J6hpj9n5wbNzgwV7VT/rD23uOrxbuh7RBq5fY2OfGRXtHpk5ApHxN+EgNC7lcT/BP3NQUcchOiKXW7tFJp4Rg7G6BINrfTRActzdIU4huX6zXrWOnvHrJFC31EF2uOp26AblbUY3rOzfYv2B12LAOkxQXCkDdkRDGuKzLKFARnyrB6UltWgggVgS0xcGCJCGNLFvCXzErhCJgiXvpFzajsSqGQJzEW2R1Bgz6ZWKBG08HcWsvZQ77x1KDZhvqlibM83FKqWda6YTNuHE1tWKYtUe2vCHu8Zt7clMwAG0PvW4Ic7eg6gg/ZkPWW3ZXncCRAg2NnrkJ2MpeGLahtbuhMbYfuwdrhf/5pYtEd6xuziyJI1jq3bScWW905n7O5ZWYypnJ/nVz+4Zg/F1uyTQ/N+AhAKYzupQdB/nqVxvxzOMF3OunG2ycNDofwAoPu2Sw4639qQwJCkBoMYEalRB16wcrylGygJOoQ8cLw77X6+e9PODu5afUKKYjKArm4gb2fJwgp81T0z9vm1Te+ng43MLoCjjE3P9ekgAf3o0e8il6+SjN1ZNv969DcFnVdsFHGTZEP0N8zQmIWRgPSepS9uS8ja6XsSE7f09pLitma5GLWjGhi5a34kVKzo56/VD29bpwblZxoLhMdvzD4reUGBLQr0LIwF92e81QAeVCIfBX2nQaNCg4kwX4V8W2CcWJeWYntA7B8NFUAk/AACBUI89upWwZ7onrLO/mW5c7mwV6fcYJIC0eZC1QNb1nBrwR7uXrD/lNrGvXMFtCvwp0nQvNO1gy3Op1Jz6QIAjQhuobwQRqwAcdp/rqTto7cm3dp2DKyIP1tWO5bxvVVOzx3aPeJhk0DYOrBkF94ese8spX0+Ea9CrPauu+IqmQfegycUTaagdsm65g7UOuJYtAFbrUUNpIjZC5kBA9ZS34tCbWdQXh5GFFkNEhbyxvW8x64ve6UOJWCcasS2gxxvzZYczT0Zq5cn8610ON/CwSVCoWI9jxNDeSdyi+fv7yybf03624OuoGGFiE/ECPB1JEGMHzv/gkQmo/RCBQZH5D7aPW+tcblqYymPV+pipexlnNXFO364xDeX9oImRKVl5bzmgKBEkqSHV9fznW4YxWLEZQgKUoVEATiuQdiyeiOg+c5GEck/RWDYEjdVTNqOCAuHdfVC5vi0nZdb1z6+F3akJmsowHkmcdh8Y6HO8QNr6V6zLwhtLFFB2LF01BJu6bFrIlZMEOPxHcT0A59hEfgcYPE576PrsLJ6jFutbtG31O1HR+RGSpBbRlltn7H7hjJ2aurQ7pPSqnNrt2L3x1btse4J+8n2vt8D5eHtUTuiTY5gD2Pl46XP+ccP8Jc2QPg9g5iTH8A+JQANHrt6CJbSNyM8TMkTxzllEkJjm9dIHeKqmr0ud+bC9XnFbGyZvytLXPB9TTlE5Ixiu0Zp3TM9i/aargV05FCOE0oiIsTsOIV2B0vr7dWH/9P0AQCdxBRyqycORqDjVR/ts7+9gHC4J6Bo3AAdAveCtHXb0KYv66mWdNSyJ6K0IEtamiRcnT1T9rnRWdf2h3CaHV1zJXE+1PMAs+fGAxUVB+Rx0Sj49ZHhh+Gte0pqD00Ek+5y8bleAAcDz515BRDMMb2ytOrp+I7xdWucydmpMblyo4dWqyCvQcLTIoS1AzwFXmUCwEW9Pq+OPdWzay/c3LTPyrV69tqsPS83+anBeXssNm8Px6FFe2x40Z4cXLbHh5btkfiK02Oix2Mr9tRQRKv2xNC6PSlevCCT9dCkFFOfwC9voEptOClEntTrKfGsQY0+NZi09knFTIo5z/bO2OOKmdkGAdACPqwefSTu5pTZtPiAew5vIsMW8SXiHf9g+Zn4xv1kq/wQoWalDFPyQjitgq16GQ/dXaBDLX5vLmmtN+d9uqNS8To7WFePSqGOmLXCv1s79rjcYWJ2eI7+QyE46f1x4CFmUASy4KnQ8FLMeUwe/6fog+Fe7u8Fd4PPwIA+dlIsARjcZcHS6DuMD5bkSzMZd5UAXVUJdEwA1yqma9FgcazUc32jXh4FfnErDwtbGuCkbpMKbqGYnhGoU5DcSfaBxD2LXDQEwC2OCIuJ0OH+YU3k7dhA5tCuJvP2i5UN++7krH11dNxeGhi2J/uGZDEm/FBDiowr5LqdUDs5tLJebWzsO5CmNutSwMWRvtUyTfXjor6MnenN2f1yoziN54IsUYfi05a4Yhpp/NpxaFvCuC0Fs+tUG1c8GN/zDB8HZLYM7Vj7wI5c2hINpaydE3v601Y7XLQmWYrTQtI9g2aVZASZONdrrXw6XyAbT1qbLB5nCDw/tW0fH1uxz4+v2jemduwnik/fEBP6xBz2cpkRb1FqkcIh+bMhsK2LNjSUnEyE5YKX8HFbiNwU98nC7ohIxmDrFIVqbIFz0ZXWp+NL1jCwFpZtTYQ6UiwdPGKMW25JKY3vHBV/H4FOr8etHdhCpI5bNoB2RPr73TL5P0EfkERKyMrhaKCIIheALB25zSSWkFhL6KEel0H+/kbBuvpmNBBpt3RUdlBVz07HrVM5ax9asoeux+yG/H4GBuDtKe5gsHekhrdFxA8ct8sWcBhXPcWvBVjCh+8t8outtH1/fde+PL9qLwpYT44m7IHYiF0cjNu53rgfTHj+esIe7Jtza3NpeEFCPyMALFr1yJos3Ladnsrb6XHFJGwNrtiztTdllwcy1qVXTt1hs1gmrBv683Y2bnZWFrC5R5/3Fa1Z2r1W/fLz96TxKyc5JqpgtYoRWWMWWQCWveBetwpYnMHOpkZdAzk7P6zP5I413hCYhg78CK56Aa5G1KL7tkmIOf2VZUC1PSl9L2AqzjwrC9l0Y1bKYd5rXS/dmrYHb07bI4oLH7s5ZU9en7LHb47bc/FZ+8TEnH1+bs2+sZG0n0kRYSF1S7eQuLpYSZQW4GMcSJThphKfB6WmP6RY0bPs1vxw/6z6vOdurxduyx0mVqcWlfMqztxatO/N7jnQKWo/btnciBHL6Q93dT8gQDtOf1PQRRPgnBXHxGualISYGL4vCm4AUZoxh78vV0CIYzoGnfjrZNYu94xI84U5HCpS2nkd37e2WVF83c5eH7VXhSQGngEiPkE7Yql4j1bl72E98629ffvpwrb929iCfaZ/wp69NWIPXx+2y90CVt+EnRmckkDO6xnLAvWKNU2tWsPEhtydnFdMNLlFkqCO7KoNe+4alY8krVoPqxGVccCHBKd2aM/PzH5wPOubD7Ul8lYxuGN1Q2kvSG6WhWseCOBokusHoHx/T1xBAa8swSH9YQ1hlYCMqwhhsdyK6jctAiBVGx2Kb8/EBEABCWoeFFBlTUk4tei6Rlk8zjhv1TMaBg+sU78nA8xO2Y0De16A3SrryU7KEDxti6/pXqtO7aPLVtufsLqBSQGVJM20XRic8eOdn+mbto/3TNpXR1bsx7KSV9b3bVSabUW8JgMN2FCexKWMBRYRS/mGqL1nziqnmQDP+4p5yv04fZV5zDqFFJe6Q8URv8G6kUBxkEUZU89glghvSgTgjuROvynlhPR3JG//c/Q3Bp1AJtWUFUNIQbNBDctvIgYWDkIi2qsMSbawh0YKKIYkwQtDoxKCzeBSSsOz5AOtSHKlaWTbzim2eWU+76VjkitPVLwu+uHOgbtLn5JVOts/pt9OOLFvfuvwjGjWWocUyA8v+dYQZ3SvDoGJQmE/eH40bZ0xCYKA4oCQwPuW52OsWSsekf8tRcCkNNcxKV0ZS1nl8KZ1TKatUZawRkJZO7Ju9eoH7iJnsbUInC36LfuicJ+KcYizCwS0iZRVA2q5m7xi/U5PC4zTkRVU/xMZq0+kpBRSfl1ENWM7AuqO2rKtNouksMgKVgpoWEq2+2PXMU7/qe3PWMOQLIz6WCflgUdRM5H0Y7rKElt2enLLyie3rUn9wJ1vF8/bR5PWEeOkHSm8vhU737NkD/Yu28Pdc/bo9Wl7/GrCnr0xZZ9RLPrvM2n70dqB/UYYwSoCPizjN6Uk2WLiI1JKbKzre3mi0EYzdmEBb2DRHh+YtREJAVM/xOD7+ZSx/u+AYnCmD+TREB8G0gMIXSRPLnN6hoyhFy6khToA+G65/GvT39i9FOjka+TyB2LAgW+v4Bxh5jov+ydmkhnE5nmJBKl7Inh9PSv2fX5sXMK/7q5H6zCEG6I4YDzj7kmbBODpkZR9SSbtJWnsR27M2IWbM9algX/wxoJdlGDUjq7a6cSqlU1uyIJsSai2BZQ9FzDWn7HrVL0CGI6iYm8OhLJFCMYqtEhKANx9AhYnCB0BTy4fUwIQ52RXA0y9co54tUyrL0ea3LOTsSU9Y8MtZuNoKU5Te9HquJ1MKdSMsHJCrqmkjF3PODu8QcBvJM4TGABjmQSTXdEApZ/XxylG4wKOeFA9umOVAhlgq1T/2PqAU3Aqp3etYkaWeI6V6nl9p2cJ3CgwAIi76xnh8UN9pmfEM3ZydM9rHu/Rb++Re3fvTCrsO4oFx3UW4QJyTh4r+1viKSmzXU/9465eUPx5bnDTAXn25qJ1XZ+xy3Jhn+mdty/IPf/yxKY9MZnxHdDuFU9PilfwAovbJkCfYaMmWbmPxhdMj/C51YJPhEtlUyq4D+D0ChX3hLddAXLPQck28rm81LdQ54lnyRD0dwc6YrcD3/f7EJde1kwk5eQBFhO/soCOQVGIkPXK92IUrsmPt5LWNcxppHI9BLgIdAgdwlc/mrIzvbv2yFDWzt/aUmyDe5SUO6XfxTJ2bjijAZW7Fc/5RqZs7cbkOhX/dRy6LxBRkAyYKgWYKrmJlfJVOVaYM+NOCGi4fViiKgk/myXxfABDLahvfS7gYbHKFaexMJVdqe9l+gBhlxWuiG36ancOc6wZ5hBIfiuLI8L1Y+t0phYg1t2xcrptKMRtvLJyILo2kIQeEljZM7NZfWFDI053RXnQxioBAmLV/YfHN+1uWf2TUykpHikDgY8Fo4C9YkBAV5xYzUZA/K0+Yk3LZ/JWNpu1U3N5u0dAAyDROXpOHGMmC31afCgXb6tFKMZmLDgEz/v3rLFn09p7d6zzhmLhK5Oyiot2RuPDMdYnpKg8s6oxwrNo4WDI0U1ZugX73HLWQwNi8q1Cxnb3M4rtglfEdARb6BeKSV+d4oXo+pQMth8OVQIbhCj93YEu2HkRYIrQxd+oIoJivcX/9wwVgNTHXAOzffJZjOuUq4aQA7gIdACujMloxT1Mpl4WdQ7te6zTJNDUTR06wNiYleRCm/wbdhNrGdTnQ3JhFOSRDaWqvR5rJgG4h8p2xVxYNQ7yuFuEoAG2Ork+ALxeloBXlqL4dnECRNmNrCcuagUYzpar02+wDhxNTClYQyIrUGJJBTYJKtYNC8MZ2/VDApqoVUQbPREyKMBBAl14z2fmr96XEpFQgRoHpFDkJuIqolgAIla7aVyWSRaublHu6pIs4hxu446dlkXBqlWq/ZyTUK0+EFeigGoERgBxWpaoXFa5XC4gserpEkDYdRpi5+0yKaZyWaoK8ZutEgEh13KuIDE4RDayQ9QpBXWWzXHjGwKWXHaBtFz3Y6V4ixQmoKvHnY5vqQ+b9mkFfxoaT9AQq6OASdQgJ5y5F3atJgxh6l1uJaDTd8gThJghTl5+9ncJOtQNJOBxWgu1i/vZA1+UCCNJgmgMfW4O5koh2+/ncvaVyXXfdoA5OQQV97IlRjynAZObdQqNLJcLoCGEgKlaWpvBPzGStfJBxTxYtwEJ4IAshIjFpFwHWLA2HLjPWXDuLvpB+hIWCRKEm+jgFcCiBAruIcIRwAfwCr5wtF33AxTtAwWBP+NLe2rl5tYPLFqZ4p6TfWvHaMOJbRrKezaspmfLakV13dCGUy2f967pdc2abqxb8/VAvIcabrIXipSRKPodv/Hfda9bdY+oW9a1Z8UaBufFhxkpmgUBccNaZ3LWSGyIAlB/SdBUi1i1zXkJteIxfW4fy9qZ8bwDplMKqlMAIRNKXFgnF5P4lS0ST09KUU0e+IqKexR73qcBvVe8+/DEvn1EwK4Ub6g0aZC77HWpY3Iv8RTgmfMu75PkleIpCoHdvO+fyNq/LeTtBzM71iOZ0LB5jI+sEBsyjYGylqgIgAe2V8z5tBDVM4gcAMTqsQYPMbyTbP416W/uXuJWFtL7lkzlLC0XEk0EBslkadw8hUzlwfeX9+2V4W178a05e+SNCevonZUALCteEtAEiiiRwt9YOQ5SJNZhV+T6PoELzakbugaeOZAw5X3/f47Yqh6WOyVAYokAWqMEx8/wlvBUDskayTVrmZSFkOWsiSmukKaH6hSv4J4GFzVYOubSSHCQzAF4Z4hvbmwqflm3B25u2JM9q/bxwRV7KTZvL40t2acWM/bicsE+tXZgn5aq/tyu2ZckLV+VOf83hbEkFr51jL6ZNN/B+qv67mu65pu6/js7gb4l4m/oG6Kv6/ovyRR8cfXQPrdUtE/LnX1J1vVjisuel4A/O6L2DMzZE4Nzdqln2s71L9nlaYFJ/KmUy34K91C8OC3+4ioS73EWOn06M5y0jr5taxOgO+XCMx/YKWXWIYvdrDEg/izX327VxesTiYLGRApPigq6V7ylWIDqnCrxnVrUasWaTIU0kcXtK60o6GfXL1lfrKrGjkwtVvvyzWV77Pq0PXp12v5lZNN+KA3N9urC6lElDZZQLHDPiPgvnZcDCvD0nmOgWQ50J7n8a9PfFHRkL9E8eJTRBCrTAaT0r+cK9pN0zh6NT9nZ4Rk7r+D7Ut+WXdIAtw2nrFzW7qRUGof9c06dn9cWI2sosB0DHZOpDYp9SAyUabA+rKD8FBnA0R0F/hm3hp6K17UQcUu5Yh9iHnYRrpMFY1qiYWjdKm7MWdXNWWsdXJN2l6szsBlcOI001hZ3lrjolMwxxxIDwKaBdevqXrJ/XQ0HPcoTPJq7gtDKEHODEO+Z/Efp4C7Bl4jgDxqc77gmujai4/fBM4B4Bq9YAOIgCIGEx7RDhsok2/b9hX17+ua8XegONY+46eWKPe+TG4objcWCNyidhv5tL11r6V6xxt4Ft9j1g0tSQsuyWOueFGLahEJ0eNwgvuA+M/nO1u/s5gXfiEexaGVypcunkp4RJQHEVoSdNw+s66au6caTSYdyNTW4Ak9DY9rWn7Tzvdt2oW9X8fqmnXt7zh54a9JekAfxnekd65bmjvgL34hgUOhejC3weZka5WryL+8km39Nuguf9h0kIEB8GU0mvuMCocQTIKU/w3wH82u3f8ccG6/8HX0Xrgu/oRSSe5DyxWVESBAE/PQ/7O7ZVyem7KnuQWu/1ieXZVECEHz95pG8x2EE+R+W5vzfLAJVbMCxwCHRoDiIoF/CcSpRdMItZHctLBdZOMqKmgTYxoTcr3G5Y9Ls9VNyaRTPVI+tWs3wotUy6X5ryhpvTPghiw8PzthzsQX71MS6fXX9wL4uK/NxWRD2afFnSnB8Pk0Cilt7koW1nAU+vmnNtybtse5J33YBIXAgqd8hlBUzSv947aIH+6EYmAoaKwhqvlxFryzfgQ6BHzOaUFKCtHVETPvnJWJheSbLNEkssGoirJzgeU4agOgo6KSCGxTdmN5/VXx+rHfezsc23N07LZ7fJ0V0SsJeLrQywV82iHXfs2fUmVfUzM+uFe3FhR17fHzRLg5MCigj1nl9xLrEuy5ZT/rf1j9vXVJU54ekNAf27GK/aCBt5wS+JsWlVTFZMVn8e2e39UwpKimwM937Ch/krg5m5K4W/Wy+/yWwETMSX7ZIWM7q71Z5Mp0C8nnd45LG4365zA9LMVLg/cnuMXttI2t9uXC6Lf2E72FuT4Og/1zrl2T6nfJ6DAcS2kDhOmQfGeaVvxHq6Lt3UvT57Xs46KJMDo0JghBABHB8YpHCX4qDWVeF3+cX6Eb6iOUx8nREh/4Vg8taKkq3mPgW9GynyBLMYOK3C/u2m6b6W3/o91SCCDP2qu7z+fkde2Rgys6JWZRwcYg7Pj4Be1nJz8dasY9jmxgeZe3QehwAf04DcUbO/RkSFgN5nxtDQ98tDX1aap3g/IyEp75/1VpHVuQ2TiiOSVj7rYQEZczO9PXb5eFeez4xYl9dmrefbqfs9XTRq1JG5I4wYPSBDV5p8zOkxBXk4+q0CdAnbybVXgmDzMpJuVU1E8xdbVjzr6/Z74QT4lPvt/jHGjN1X/zg8BD28QgUjoIOPAwTvYCvRAe64jBQOAk1VPL4WQ0HkBwpT5frmoPjk8H66F0UCQLjSHtYgIHyu6bxeHpoRG5d3M5N7/nOan74pjp8n/pGRpFphSa5+c/MFuxV/QaLGVlNYqseNXVQ9311bsu+k5Ciio/aE0MxuYN9dv6tPrv0ZtwuX5u2rl5Z1MF1OxfftjNzGTu5tGsfWpQXspCzSnkabf15u6BxpTCbucj7pqVg9aBaQgK5C3WKOzgshSKAdsWYbN3BJDrTKHgnDSNhUp+J9oflQn9hatN+vXvoY0dfcTt3KUdCOBF8DQjDgxwzzlRHsedawQtu9QFfOmJF8JDPIPAQEfxkYKHo/bs+d9CBJUDHs6Pnow19oaTXRooAHeqBB3ITfqxGYKkIVLelnVkeH8LUQMWCgtcUK67CPXd0bZSJ9ISI7vW7lbx9bHjV7o+t25n+ZWsbkMuigWbLNU+ISHhJWrAdHYG5Z9EUtJNdjLKMNQIeRBasQ0A8p2twJ/H975bbeLdM6N3SlPfcWLW6G0uKrebsIWKY2IQ9lZi2b68X7BdqHGvvCMr1M7e6uGNY4A31IHnAMGQsn97zAfnpdMouy62pl4bFZaoT+Egg0L7TJAXU3iYF/Q1XRuxfZzd8oOFVWKkgQKRY/srgAp0AtgC4UBwQVVjcrmuCAJJGRryGWN3g+4KyYqIEtrBaIngn79S47yaNpYNOVBp4XDCxz761uWYPCiiUsjUrRiUOZgzK1AmmO5iPq+vfsLN9y/byxIZnD7GWUZUJdnhHzeUV104/dZeaeOs1MeFH6zn7kryMp9gN7eq4nRVhCU9MrttHZgU6eR5ViqHZrbtNXg1ey4npov2z3NR/luUlqUWlDoq2Qa+NsnDEfLiglIx5kksaoFLuKNMfLQIsk/a096FbM/apwXn7kcA9oK7TdhYbI+IUb6f1Ge3elUxTrAHwhITANP13TLxdH+aT+kGECUh8iHjs1wG246TPHHSAJ+I/ghGBDl0crJ0Ia+erNHURH5Wu5Tnh/rgqWZ+oDA3khn4jqRRdqPe8BWw39OfXNrft0emE/PoRax1aFIM3rG1w26s9zsgF7JR2JTHCXvwU6VKMC7NJN1dI07l/P6WgXC5mldwOYqkmtmmIp4yJWeaFKhTrcV2F0FOt9+2xtD01mrGfqInEVtdFMoquoYl5jsdTDAaWCesGT7HY1Iau6RVt/vC1EVnMcHIQ83oVfSlrk/vFHpMnYjkf6ObuRXv4esIFjn6TnvalLlJGbC6E6wLvbpcu6S+KEn0+UhSVzaMVodKgRQSbsVp+H8rpeOXv/4IidyhYP+oQNSKMLQOuz9msFRcMy/65uSVruyGLx6S6+sgcJUUAVNX46UHsxEaVibyEm1uUj4tXal9ppsd29zIeSnBr+AhP4THKDBDqVs6XG7r4P6WFPy4N3Ik7PingSNE2a7yZ4mka0DhKYd43k7e7p9O+0r1yTN6FlFqF4s0TsmzEjC2U1AlwzRNhMt832ZW8IDe4qu3qQ4csIAXyHXL1L/VP2rOTy/bK4pa3Y1ZtZexRHLQ5YjUZTvojFai/96Ue1UF95h+WQBZdfCT2+v54KHUEQEgfOOiiHzAoXMi9ePBx4OGquAbVayhCZh4k7JXB9gBHazt0E1ynfV935jfxRgHoKZmIXy6n7dnRKauRK3f36LCdmlMAnkj6+i7iNVL+ZCA9E6lYqVlWrUUMbFDAQSEzWu/0RNZOTKTsnsmUnZzclTVct8rYijUktq1saMVqEymr0PckU04LmLh6lYojzg8m7fnhPV8OwuADMqwuFhhNnVOnWWspQ+TTFWg9rA/9h1+r4rRkz15KzFr74LTcXao8pFnjENvchWRMo0BeKyVy9u2E/UwSh7AhlGnxhZUNTNRSHREV5XrlL6pWQb2Tu/KQGgCB+ndpUxrkjgiXqP2M1xExhiWC7068F90GaLCSWEwyeQgXJVFYKvjy672iPe6lcMt+Rh6p/zJZFuYtseht6ndzfMsuDy7Yp2/EXUnhAWzvqYG6F4okn5NioV96Pp/RNoSaa1FCKDRe8Sw+L9fxbK9c8QHFc30Z91go/G4Yynv2E7CVz6alYJMC5aY1Tuz6e1aUl+tvStwaE8zlyUrKHa0SWH0aQm1mP1TmTNk5mw2hmkd3JGurso6L1jE0ZQ/eGrJvLq57lhylsy6+ru/KtUR+abv+CaCD+L9QobAgWhqG1wBfA3ZQzoh+eHUMlfgO2IIHAuhKAxkhlT+jAQw/CgOF8DFYzPhHOynx6i4oK6xTagiHDXIDPUixqzNZrrb9eGbLnu8Zswvdsmwjc1Y3syrffVPBuRjH9ugCGfFaNC9GooQKCMqLWOdVHg8peBjbJFA1je14lqxhcNEBcFb3vDi3aTWxWatj35QZMpQiuSOUJrUMpyUgu/bUrQW7JaaiedkfRd0JS+poM1IDIeC6xjUakp2lFDtk/X6uN7W3BqxlbtfqfDVzzqokGA1C44f1DOofWTtXezVhXxjd8lhnTfcDW2yjgCfAhC1xG0quiHJyF56LSuTg04Mi0NE2iHbSZn2FDoQi75Bm8xpRFKdH4HPS554g0DvGkEJzX0yq/7P9BOV4PJZYByB8ZzNv5/pmNS5bViOPogbrUap0aZEAUyLH4Zxdf+i3n6+k3aKl9Htfj6i7HhQEYTyfPYgG6Tu9oIBoI9YCgZTxtBf6Nq3jyoIUY9rPGCQupyAAuWiWFrgvviFAbVprfNkar49a060xufSTVj+1ZJWJVbmSW3IrJSN+5oHaOh62YIdwQZkKYkqI46EpQGjSNU2TUvQCLcXrDb3DduHqgL0ysmwxNY420r68ulDcVYzNLgHIv3gF3yjNZwuRXHHH+YkRwhUN2xSS4gqvwTCF5FXIkxyBrjS4+gP3A5YBOCgaqKAdeShDxNat1ESyHEct5EdZaYFdPVoyw2/QYjIA9trOvn10YMLO9Y5ao0x6w8S6Nc9nrW5OboOsUbn8cMBFLMR8jU+oYjGkSUnbcxxS23zR2iaZC9uw1t4F67w1bZe7ZzzL9kz/nH1fA/p9NfarorPxaVnFRQ3AlqzOrlVP5L20ior5M/2bdunqhP3nWsbjNSbgXVlQEAsqUPOoXvLx25KetL5D3Ql0CInGTgH5hPqwatWzSS8oJo6oGFJMJ9DdJwCy/2ZZ96w9oHbhOqHVU9HaE7ZzUNyVkWfAIHhJEoEEz4fbh5C4h9cAkXUhw6ZLIAebPoL8KxGgi+LxI6AxhhD31+ttSwfgii4kgO228izItRRscXFl4jPJYPGIbz+h2IstHMhkMlfZKIXYoPFiJQdb2VPbeSa+ag++HbMeNd2tV25XfZQwFuRHsD2Gx7H6AsFQW7ytuLaZpHvPb6rbj/St28Webbtf9z8zeOirLGpFVKycHNq2e2/O2PNrB/Yj/faHQsQrS7v2yLBkqrtHVmta1njWKocXrGaUbHTGmmb1eynbMoGM+ldki4wniS4Ho+QN76SSTWwTUtKTaw7o+3tm7KUbs/aT+I5NymJInJ3fYp17Jr4lhT7NS/ZZA7h7uKn3IZcRgBc8QEGyBLxAfHYceAKdmIKKk/vIB/BGfPBXKJjG4FqGfS0osAFwe6KMceoKA0sDYboUif1sVa5cbNoabwzJGsxaxbxcsbWiVS6HuZ7agbyYa3ZJjGBimn1DoJNYNsVn1ASyA1Tt2JaC9gVrvpGwrrdH7YnrE/ayXMnX1g49LsAdwB3CXWS78mcGJq1V4GY6oFpuaz1JGIGiRfemYLajb9r+ZXrBY7k95mmyu2LEtjSwwmdknw7TEQhTCOiEjhX174drihuuTViHlABLdnyx57CsnVyX8jHFnIoba4YUm96ctG/LRwHY234/mKMbeiJElkUCx8cOGKn+oDsBQkQBGoH2SwqPAYvA807CO4nAeEfie/3P73F0Z7e3Gr2wk1eS9AEWFxRISYB13OLXhMWH+ucVby/7ccrEy3gOrAtkDu805WvUkF4Zs5flzWC1luUibEk2wpax4l9WfS8JFDpmTy5Vis/1TKzqF+Y35VIqrh/e9WxwTZ+UslzLSnk9TXIVyESy2/V/qC2MucI5J5TCq5LZj43N2MMC3fmBaT9Wq1kuMda5aizpWe9y5l7lHrNvJgBky4cGWVHK66hVPS13tDIhxSzL18qOA74qguVdy/Y9eVPz4gU9Ycx8A6t99hlNqe27tllcEy85w48xuj2GAJHt/QL4AkXAYxzucncGl0Ad4Md8wQMgH1A9KGS7AGYQHHJuoJ2bbekrXAuE/7r4+/L4ku/M29ifkLnfsJPzKfvQTMr+Se7IhzVolBV1aHQuqdNdAh7ajGQI23/XT8v/nsr45Gpj37w1Xxu1+xX4fmpkyf5Tghz53TyPAWPKYVPyAlMI0D/bM2HnexLWKTUF072USVqNPR5Z31Y1MGPnBmP2tq5dp19SIHk5wWwiQFmsp/QBHP5aUvFXCifabEj4e+BK3C6zbEYxYk08J6ua9lXdaNSTVKQo1my+OWefGF3zZARtxJ1yK5qS7SAG8NiXObJD3zR2T3yVGtMgBi0Z9GjQmhD/MoTHYQhFngfK0JNbRybtXeSJL1EpHg8hQrgH949GMUOHyXxyLQOvZrInCsrs83K5Ho0xYS4rMhEyhCQxTo8f2r2jRVl4uXNSaMzJ/SRz4OOwqpuw+2bRK//VUfiq+3HrcC5uSv9uyWXft4fGZxRiLPu98UpYZgTYmIxnsW5974ovDeI8B2LwXXShXuEvMTauMEu3fi6B+ILk7ZHeKWu/MWEtg0vWohADMOFy+qk/JIFEbGPPvG79QGlLexFeFguFayfZxnHPLfx5KXn6/6asCYkWZI7sJtsvss4zdSgnkjFwbET4EIIUL9/2JCLghfFFUd7lGk4UDUgAXUAkgDtA+2ksnHFYRd0cvz1VTNmqgnA0+lV9/LVZxUzDc3Y2Ni/QKABnCclM1k4S3Io7FA4ziV0lsFHX2CytQ7nVqRGsmmK0xK606aq1XJu0s9KcL0pj/XAx59qN2MiDXBHnApBpY3c4jBEjsLsZthP/9VzKM2rtug87PZ+M531pDe5F5eS+1UxtW0X3oH0znfH7BUHfEuRIfbNvR5BVhM5HVv+gTL4cn7GLgyvWLq3J6oFWNapL4Gsc2LITMQ2QzELNNcWVavcVsdMVg9oH5oLPLc2O1WQFrrwKsVWDEAYRI8CjAF9KnA+FuiFox51RRKH7hKntQ79a5K6oiHVjvtOWHoqrnJRIQFgX9gH03cz4XgOkv4skuQQChlKfuJuHViZk8Al5kjogA5HQW4/JRc/dGreLct86FCszb1opq35a8V2FxvCkxpSV7/WyDE+OLrjHQcxM9b+kyJfTwE5yLPQz9PtAvM7Zq+klqx8asTLJjpeBCcBVTE0IIGSm6+SuN15J2HdWDm1Kv6cb3j55D8hrVgqNnRWTIs7pwzoPiem/EEg+Ob5mZ28mrKl72jdcoiaW+wFA5gErRinpK1qHNCReF0kXpkT+efrQ/tds3j4yr9BhXm61ZPr+/gn72vS6DekZAJ+ZgqSfWKJhAB9oV9CUUQ85Go1xFj/zbhUj4EVupkD3bg0YEYALpk73JBgmnaf/0npYxDyY+7P1gn1uNm2PCCQdg4uyAmtWMbbjWUayeb5wU5youKX3fQqQsXS4Dfq8fDDrO2XV3Zqw2tf77fy1uH1xYstekzSKB35/9tzY0XMJ0ulnRh1kf8oMGTJS7GoMCpXODMqgPNc3I6285ntroI0rmCwXMyl0PjWxY1WjM/bc7JJrSYQ+p/+jdTd0B0CH40PXva96eW1z155gZbRcxwa5KcwJcjghFTJ1oztWPZW18oFVtX3GvjWddNeH++5KIHA5fP6MbQQBHntNSAhJWr0DdOIzZxVkFVcBMUDBeHBQIskX3ycGIvby+Tj9yhdoirK6Cwc4ZkWKkxxoAA5i8Pkba8tNxUsmdRlWZMQTOmojmtkzmpIDNUBf0ii96Dcoul+spuyRwYQ1D89LaPfCGjoUKApNrw0aU5YmndX4f2c17bylf8SWTJVkkEe91y29v4TNJKZenh2VyzrvmUlqLgFdKJLmKCxZPMnRecXhfxD68ajorg+Q90m85IA+Bp7PYIHeE48CPkKIN/WbrywwVbRqbQJfbc+sNY5tWvOMxm5aII8lrVOga5evWivgUQRwrzTmh2TW/q+FvP3/5DGVzVGGtmhnpXg+OTBrr8vjov30j7CfYfUOelCtznLaUYYxoGFh5zPc+Ci+o/93YdHe6e8DQMwkAyBisOisOsBO3szHELuRJPj53K493bto5+QCtMoXZvvuBlm2emkqsl340JVU+GtgOjUS7GFSO1C0091JqxjK2Bn53Gd/N2T/ItfkP1ey1q1nBfckDAz76lM0QF8QzJzULzERFiArTc/7glwimoi243dfTGxY59CClY8nw9IScR/38qTHjilrnt6xjusjdqvUj+K+bMv+tgAQqk6worCLLmNhPzE86RPFuKvMERIbMF94ms1iZygpy9ip14fsxf5Fi4nvDHomfyhPTeyWN0AM7EBBJRPUSBIBnY+VCCAEwUEyD32lhXsXoEJt8e8j0gceW2tA2SWtiND5RSJfIS0SWD21ianiewSA3ZwI1LiHLoVnAIJkThjj4MK6h8Pt9JEzQD/jCQjxv4yID90xa5vasQrFtLhkCCpZxmYJLnNr7X3r9lzvgl0X9l2hqTkkdFCWPApPE2PA2Orn9vDNW9Y1iZeTlzI+9CQN59BVy9qQicRFfL53zutDEdYc1Uz0BasMT9lNgAY7ukX6mO6jLEiYIg+MIbtW/1gm6qXEul3om7Lm3gm1d87a9exWkkOSkar+fSsbEqlhvl5SPzzBnqCJjNoTVvm3XR/3o6Z/ulQ0NdetHnggZPcx1HtP25PFh+9Seig0vIkIdPDzLsY2EOALgAuVDiJ8VDin75O6B3NauFsyUvat0XV7Uu4UgGse3FYAKzdL7lwrVfoCWz1Bq8CGwHslf3/KGtnmbWhXJn3DOnpWfCX3L+bSNi7eYWXoxLp4t6Y2U9WANiF4PQ62QAKKCOCl1BH6jELg9/+5o8HvnQxbEsxo8NQGNuCpEmMrR6Q9J6Xl1O4fzIddkPfJruVICuUFuqLc10MXGATt58s5r75vHlNgzik7AjHlZWWKQT8ylbJTcrfqFY+cuRKzHy2mXBE5Xpg+0QhgmUiTuMUDBB5jiZ26BgGH7x7cIVHRoOkV1mOkMgIhQkvsCqmLzpOI+BuQI8QrkrQ1CeSOXsndACjqOd2l1OdOuLayepx+SuWL/1OK/WgLraYZbul5I8pm9l0Z/XJ9254ZGrfzCh3qYwKKhJN1gm29IlmKVo132+CeXb46b99VWEHY4d3SfTnQ03WD+s5OivD9Fzs5eQfDdl6xHOv8fCW+FDWuX+1MUdZzx0v0vj295+BhjDNpeTdSLqiHffGWmDGXT4Z5M/jLM8ROb7t+wP62OGi0H5efnMAPNzL2sfiUXbo1aK03R9TuHV89wuJa9odhD5nafsXuUiKs+TtN8bvGvnmu4FtsdHYv2P3XZ+yVqZznMJAT5AX+uSV231MNwOLharpCC4mUI0vnMbd+gMIAdACOBENUVkQR7kYqa6vqDA1HQ31+ZNPOvzFqFwfWvfiVUiif1B4SDe774YxU3vtWA1SICFXsAdLct2BnpS2ek5n/0VLe9LVrJLLVuAbRNB9tzwrpm4WkBItTd8K+ifzLLsLRtt0MAGkQBNC9N72yserlvnHFCOu+Zz8VFBTHNotYcVAVF/AH1+2FW0tejcLAhNWM8ruL5GSDFb+mz9HaHX2KMydxkxXHyIKzjo5Tdj40LQunuLVGbvHLiVX39wGAC1hGLQI54iWAC4mRIIDw2ZNTkSeB31Xq9IECVfqhT70v0WQyig7e45LhvuI69eo31/QYSrekV/xzvudaXEIEe1OuON3z28utzUklcwAjcR2AdGQCdBHt4pmQKwM+UPvyikW5BxaDU08fVCjQ3q+YmUWu4mmbQgZiIrawaInl7Ezvlj0zsGK/Xj3wdiD0vncp7q7YjGUAkB/rnlRIsm5nh2RFKFrm9wIdW05g5TjE/7JcumsaELeaug/bJDL/5WcOCnSkKnYkGTt6JYmPEt5na3UpGmcipM7z+B29Aj4ALB1sr63v2efH5mQAEtYoz6h9SCHC0I49MJyxByTHZ/vy1tyTs7Ma78rBjJ0c2HOL3JbI+vaArfLw2Hf0DfUJ3qPw9/S89LbUKQ/DvHsOJJTskT84iuk8uQRjRPj0HlCX9pkAfGlpETQqjUVTfHp80+4fXDXfJWpq39hjHneSQfBJbrlxbBvHmiiWc3CiaNWtOauUcD7cM2E/Ws+4kPiAiPR494bQYklZCNY7UQFAAoF/0RKBQtwZEjzBWmCdA8PFZDEWfpNx+2RiSQxadlBQjNwioWCRJdUUpxR7dEpLdb05ZW8KJfCGnxOl76vvAEcKzr6xnrUOxWnNA1TMBGtdOZz1ub/yybzdo5ijfHjdzr8+YG+KQQi7u6ugmCqdvD4U7wCXmuWCw/feZ7XbYxJcTrc0+ixTsJR4gEWjDYCNdlwVCH++UbR/TWzaxznk49qkPX5zzp7WGLwwui1vYdqekgv2GcUq31sp2O/0gH7dA5BwD+7FMwEOiziZpCcxEx4q8r5rDMRPlAJtheC3ezz6JYoOGejezdtL3VOKbxasZlhxmPjJqg9W51OHWosnMZq1Jo33pyZWXbi3NWaHskZ+gqyUJOOO0jj322F7LCGvRFaloTcXtgIcO7CK6Zyxh0uDXPpPKJYi3MBz9FyCBp0kDGspfOpF99vV+5B/lhwcpoW3lORcrc2q17gL3seCHzaZlHsvdvpYABJ49M3NlD0/veoAP/f2uD3Yu2qPsGJB4902kLN2dYI9YypkVCrUP8a/blxyEN+2Jo3Hx8dn7Re7ex7Hck+vd0DTkITAi5LiIm6O5vFQaHch8NGcjmvfCHSHexL8lO3KhKM1sXCfG11UPDTuhbBN4t6H2RpBjKuelFuAKdarLzQUp2onBMjBHSv/7Yg9KovxnaVgjgEFGhxB4KCLVcVULExhUMng5TXQ2YxYS3KAchEEE41REk7ayVuPFfQbNivFhXNp1Y0R7J/qfcvojJUrvsNtYCsGQEdFRTlWSwPbJMH50mTK5+Bc8LBQekNff6PnPzGxJLdZv5flbmNeR6aF1elsx8AqZibv624u279P7zrDESY2UyXL6Mty0hJ3nH25brST76P6PlxL/46YKxs2zSE/CQ94vjwb+9Xqjn19RgIgFwyBYPNXtDE7ZTFZzYZJTM53jkkw5N533Fyy8zdmBchZ++zwkv1kOWk9GvxJ3QthgN8cH5XJJSUEtEjPJ3wQTyNCAQM4viXjxjwsYs6nGEbu84uFnD10c9GfH5ZOhTVzLHqlqIEDSe4dXrYLE7P2w70dKWt4oF7n1tXHjFvjry9ueeH5+VG5bfKK2JqiQcrRF7wSI8tLaRmatm9v5JxvJGizUkgo4wh0bqVl/nCfWQkQInt1IgymGwxc0Fye8mUUOVZG4YPM3mYagAbwYUzwUn68nPKFxRd7Z6ypf8GqY5tWobFmOogiaqYxUDLlg2kpX9YIFnyjpNZb/VJ+MQceFo8xhI9u4nHdBHqMWfB2UOwCHW10pnOhuxS6kDS3Bghk0ulu3eUzsUkf/PspxWJtUyxvdxNsUpenp5Ur+PVt4MR0KhXqZH4b/jBsn5vYtt9K/gAbg8ZaMtwEtCeWDJasi0kr+0yWMsgwTuRFwHolcC4lIPjYLZzekiwKwlG6nthoV4Kr74QRuQpxWbtFaWBppNI+j6flMtRp1E+wtUJ8xx7pmTeNux+YT4UKd8LlfGWB44knZMllqeVCdUo1d8jMd4npDrrhDf1eselbE55SB0iAnRUXft4PoCOTSB/EdASZvhN7MdBu6fCn0YT6Z0t8B5Dw6IrigS+J1w9fG7BL3aN2Ib5k7SPrPuEL2FlBzZo9tt1j/xG0LxszsWL7goT2wsCmXVSs/Pi1cXtR48V6MtqI1VvHZZcyI5Xt3CN+F9vc2zlGweIBOindwqqrg+Q2+V3xR01/SQqL3b04gYjax4pSHSqJpg/L+7l7ivmxJXt6dESWirlIxbaFLf2/4ArqISmSi3Ijq/vTXl9LDqA2wUEmSbtvlkltKZCBSfuDHoilLkpo8AQoOOaQTxSt3qqR+h+vAFB8xmhE2diCDEdmH8ORU3+y8tiS8mqQltKUiWJadipI5sKmw/CHU12/JKt3sWdU1nfKKD1jmoEE3AlZdpY5ATwKIphPbCBjOyJedA/Y07EJ+1mq4MCjzfDRH6SxZe4u8thCGRhZM4CHUENBUXhWmh8TMxBAd/UmBDghu2/P6gf0cN2dxMIpAY8dodBSbFdA3EZi4RMDE/bjpc13uTksYeGoqhCPscc9tWlH9WmwRBrAU9e4BZBn19QuGi/CtSz96aaaKQT/B4nISRfqc575veSerNOQNYxu2OlY2mo0sA0kdfTKTl/NiYysw5T9ZqPgAs+prSiYN3WfS9eHrFPKgm3vcHvq+gU6MpesQJ8tWFVsydp6Ju27G3n/rRevqJk+ZaPBjGI2Z7ZiY2r2yGAFhaIGUlWNZRaPt/UbXFNcrm/KrXpCMdMDgwt2XsLcIMsW9rcs1Xkq4A/b7IV9YHjl87ADmay3Yms2Z+oYTvkxU5z6+tCtWSm+TV9VAV9W4RnSoLahXEN5U2gOr4GPImI/WYrdww01M6mxEvCyIX6+Ie3xyNVJP5qYRETdmBSReFXBNJCUGgkstpM/PyhB3Nx2vqIT+S0x2lO9a9auxpzWWLCSoLE3bfUyydUzGbmXW76BLa4lAJUcu36AwcRrxPUYA8YZdiITEfm8MsArEbJEFvmdpFEQhRN+QIVsJPkBARfliKxeV2z9JYHp3Jv9UmRrxjaNJzUeJ8cEPMnQyYGClfUXff+bsz3b9sDIjkKohNcB/1h8JNG4RbvD7fVP1Ak9QTy/y6UX9w15gMhs4ILrBa3/XCxhzb0j1hxb8a3rWHKBD888zUdkUv6ZWEcAbFGcQ3B57uqIfTY2a1dSOe8AFgAmRVnRsBYM35aMGRnTiFl/OtF0hF1YVtv5Q0KkgcGq/EHx1P19Q7JwKxJWzoMLc4OUAVFYzfFarON6eXTOmURfiR8+N7Zi9w9hIbe8cLaSyVOZoBPM5UjLYcVbBufsqaEpBwoZXV9ZIb66cRajUQZO9FtCQglsOE0WbaYGs4hLb5nKwb0hJnxZMcKT4t8FFtmycnsiZXWz+76dhO9pOR5WWUAAjb09jxPrD1kZT/xBfB12O5Ni6d+wBwZWfdX7T9bCHBoKMJnGfUcow5o+3CIHHYADHZ5cAm4UPHFGnoBX0EjqmnnJz7+Nbdj9t6btDMphLKlnF33pD0csY/G8SkXK6RPDE9ar3+A2L4gn35endP6K3LfxQ18F3j58KC9CMZKsCfuN1su1bLoZt/9QHAtvcAjcMMjjOfTnM5kfQIfXcye5eK8UhVPEnH46lICnJykOVVy8V3R+Xbo6qLhz2ksLayYz9r9vaWykMDoWpIRv5a2rJ28dfUnzjXglOw+Iz7/R7+kv+TQHnoxLAJ1I8f5dhHgpXCFSyAjNpjSAOjqvTn13Yds6bw5am+KbtsSuNP6WtQywO5O0GcDTw5tFLCKsl59/UVr1K/N7XpVAhioATn3hyTxYgOPVtyXAWdAj78SM905qtsi1CdJOpk0MRKgAxMfHpuzM8KKXaLESgE1fffNXVjKMphWrrdrDV4fsdTVN3bFfSvIevDZqF/U5x22RsTxFAa4QeVpxIcLcKbe069qYT00Qn5Ah9rS8fN4IdLQJZYKiIWnhezCy5YLek7KHv7SZUivmCz83sWsX3hq1s7dm7Nz4jjWzbkxeA656AJ0ANxb2fwFYDrCxADZ2fHalAhD1fdjo9sBBgPXr1HWt3Qt24fqYvdg/ab/bSnsmFJcYsOF5QMgHddk+YG5ZNEYCHUViG/rXfRIJKSE26uMt8epReT8dcn/rpYjIUgM6tuNjMyP22Owa2bCLbw/YDzeTrtiuScZf7F+2MzdXQzs1Jr4TgNz/imHJ1wRb0y/b/bovu3EjuDwPBQDgUKjE/IAOwGEkblu4O1PYBuO/ImJwGQD1k6VIZHY9VNStMRjIxA9XkvZ4T8IuDAkDsmjs90K9Jp5ehaxdV+zQWvpSivlQiltW/faofWkx7bJB7W0BX51wze8qxkom7toQCz0pjODCeX2O1iNl/mA3CxkXrE7ap3mSPUqyvjy+brBg9wxmrU7CeE7xRftNBaCKI766XHBmEZvAsE0JGOAKlfNqAeYAk45G0cfQnRj13kn3QMAJ8pBk3FWfZgjp8++vJe1yz6yfHcDUAULhNH7gS4o43+78zXH7/OyWu1/PDM7bQwOLbrE7poKgU6VwUozlSCssx4UbC/aSLKQ+LrlNglVB8ancYCadI9B5+1zJSK0V9vS5uCwekEFDrmG1jJa92DdnD2pA2QKe2K2ptJizfDxt96ndtwHH7svssQnhUgbQsVqDfT7d7SSuQvjVPwgQcq4DKe7L8VV7rG/SXuoZsasKiAEeMWZw+XH1WbWuD45ApzhKVoDE/LasHC4yoOPAU2+76MtzW3ZmaFbtWnUl5qCTB8Qrmcj2+J51ye16YXzRfq3r/32nYA/2Lyiey/g8H8eGkUThrPiaeErKncTElIQ26Z6HJ53EIxb/AjhcdcISj4nxcPgOcXqHTLyT7gy2QMimbKbMjpSJ7ssW/4QHGPld0ZIegxxRIfW02oXH0C6lC+8/1E28J0stRlBQXyPFjrWj4JoDUH62kA78RR7IjHNK1CFqrmB3rcgueAYwow93g8s2Lln5/Oy2NQ3NWNNy2k5Q7a8Anh162c2J1dIshceC1P8+Zh9VHPdjmTWsC4CjMnuLh+m9R+qenIHEJZdK0CaGvW/QId0aGMUavhJa/SB4xhnyBJAG5jlOnbm14hOwCAPHVbH5KXFe48ienRtZU+wxZ19Rs5quT9olxSjtQzu+ZozAmU15TiT2/SALlgc99Nu43RCqUSrbUkyUboW1cmjMMGg0y+MM2iTQwXBPu4sXuL78NqGvfjC17fOW7KXSPo2m35Gl2LbyqaxVTBWMjYAAEVaB3cZ852ind4KObdqJ8SKrWCYLHYhMrVzk+Jadn0lJWy9Y1+u99sWJFbumNiBQeAVYDy8JIz6OQCcNjevJ8cZMyRCPhlXu/p9PCr8leig+ZfVD84pzqexnxYXcLkAnYSTGpFC6pWfCnttM2f2zq9YoxdY1I2stOWIjW8IUit6ZoO6SEux8I+Yr+/GUqA5y65MPxRAURaAgHHRqCvHn+wGd7KW6intNsif8jVfGd+CAR6DAcXOvyFF5Slbs/n6FWWonh2gS46HYWHnBBr21Goeuuby1C6DMQ/aVDJi46oqZCiWSh3fNSwTWpFMye2K/OoDr8H2ZySbFZvWzchuWDzwNXMtWdzKrFQPb1i7rxnFUrQPL9tTNCfvFWsE1H4MIsyj29fjAAcdAATiRGOjFofrYQScSX/6IUe+VEGyCJ9y74iGRI0F2yifVESa0+bflrj10dcFa+tntix3CqCjBemVccDvQThRIY2XGpMV61+2CrFplL6sUDnyD1FPz++5CkY39emzNQePZYHUHwGVLVozKGQSVthEvBeuLlAahpk0oA/j0s/lde+TNYTs/vmnVE+FAD7ahK9NgnprO+9IZJuID4A589TNxGvTHoAvW7jjo6CfbE1LHWDaR9oQMi05xky7L+nxucsvdJ9pDcoJkggeigA5S00kuoMCYkEYkQ6pTX2tw+Z0Uvb28uGnnY/KGJAvsJVohQYDYMIqdqtslmBW9s9Y8vSbLsGxlI0ty9cOKAqZw/HwHtRUvqqt70Z69kfDYekWP88SUYvOiXHM/uVXwcNCJvbTPiWa9Sy6O07uBdpzoVVpCiLUHfNwb5RgqssQPsYP5YxxDgHddfHlhYMHOiTj4pVxhwYm4xmxU/R7Je/+JxZsGl+2hvhn7Smze3VRvqniZylMALdAti33riBFYEGncvI6w7Ma0AGe+GQzZSQpR2S+DpRKciNMgd/LBW5P2hhoypt8BtgUxg8JUHqJWW35XDgKTxUekb+SCuXZi/HSt+PJHjHqv5NbEy9SkqdCC6hLLVHbkzhF7o0B6JOnPX5u3M93sLpb3xabsnXJa1hoQchoN2/B9qG/ZGmSiT/fsCIhmNZQCSRg+NJm1++ZTYvKyF2SzzIfpCmHcFQhbMGT0bCr2AR4ZMtwwBx2KpvQeJYSVg09v6eMXKcy+MmqdM1krY+sJxXGnsXByFSgzY84L0DvgYmEz3ei8BdxLYjpiOWI6gOfvS5aRrSMcdMeBN8YJPnt2Qcqyo2dJcdOSvaqmoZhwIR100eSn+kazaTNLceiqfy+eI+TFUhYTQbyqj16S5WzrnZPLKIAJRKfhH6BT/IxXxIp/VndXzGzb6Zkdr4tlBTf1m+xjSUaQrRouXpu2X64fuKDillFjelAI5xKgTFmHxyqMPwV0/9+kn+s5JO3D5lACGC7s/q6eLcHJhWmf9A6yVUp6iQ1P9E7KeiesSYqLKZwTTJp7HF2Qxduzenks5wTKB68MWq+EEGXL73fVHzY8umtHgEu5z67gUR34j+kde1juYu1o0l0rDsyokmW4T+4A+yB2ytFtGJizrrdG7KdyKUlDkzbnbGwyebhQWbkDBL6uLcS0o4PecRXUS1ww339HnQ3AuxND/nsCdPtU0ArgWfnLe4dhYa3PxwjcKG6s0heuz9qlm4tyGVOKk9hbRTGdtLEXZcsFapKgn5yRcEoAWFlc2ZO1s+pzo/7+Z8Awt22nbgzZ1zZSDhrPNPv5v3Irj4HOl8po4ALoUDAiqiLUZ2SZQfOpgaWMXbyesEuywmT5aubUDjGSZVD3yu0FNL7fv+JnNtFlvxg2Z6XUDtD5ISBu5QLo/IQegZBBR5EAVvrHZkJ3yx1l70p2x6qQdWRXak5r7RrYsk/KwmJVOBEVC+2gQ6OoyegMFBeA25Pg4U34YKHoNL64m1tSdvTpewLU5ZtTnmhg2Q/HKlcCPPGSvUo6ZdqxxqwmKJ/P2H2ju+6SMd/FuQfEn6096/b41akwnwt/+SebkgiFJBQ7FbDgFmBo6NXWEv03oIumBu5EuNMybJFRU5+Yq5UCAhoHMhicg57WK0pTgR7yjZfyq+ShPTk45dlZFvESBoTjxsRnKbhKKZm6+Ipv7fiTuaTJ49QdhY8C3s6B3XUowBEHwVz89Gevj9kjcrl8A1ANmu81D/M0OvcObVnL3J5VvNFj/y7XkwHDzQDJ7H3JUHigS0/2dUc2SqUkyklaS8KIPw6veB5j/H5B50Kg+5KFxXijEfH/sYAkjejsb2Zz9tiNWWvtX/X9VjjLAJemXIKMJUHATwhk9yAs6i8T6e3Swhy0UT6t62NTPudHDENw7BkpJu0z6rWAxixcVHGgp6ptx0CnAWNbBvqLgiKzS4b08uimb2DkAHKgBLCEo7YEfsU6LLQMp/RAAXTEdGQqPY4TATjmydjCPZwWFPrEPaIYFqtH3ShWEAtDlU67xpdTcn6ztR3iTNbhuTLR/9CVUlqMExYNK+AazDWlmCqFSjE3Vp1NnVBE/6J4sfH6tC9EhpeAHl5S80pZIKWCrNBmB2zcXbwmXDJc/XZJctPrE/bN2YxbuRTiwlmEjogQdYXJevFS8qOh9zZCyMCdZOO9kG4XTBDEkCkUQGlTgUtVL8ttfU9RDIfcQ3manlzBrf75Zs7Ovj4gTyXvFSvwnS38a1Ge6icbJ50bX7OP3UzYtXWKQMTjHGijIuVAwZ0AQnofn5WC1rNj7Ncv90vM4lB6lnBw49McwBifswcHJ4xi26jCApOPBiIgJ7baP9Cg6J4QtZwI5rsBV/Ji/iKg4z1iD7twD0hcsJATF5Dnsc6OLGHbdYGHvsn3ZjsAX74v4Pl+lRp817p8pj43DsvKEByPrVlF97B9fnPbV4TDPDKVrh6x6Oqbzztq1CLgMVUQQKfRlJXDnWZNIKD70XrBLsgqtI5uecYP7QhIHPwevzGATMMI/LJwAI7TeW6DLkySu/CKsHDhsJIwOR5c0GPAE+g4zsvXFsqiYN3Z66RV11zoX7Ovz867i4kWBnQHlOcUxE9ZPnh3lNWMQIfH4soU1yswGOD9cjnne4x4+ZS8I44FqwBw6kerlAfHdwH4aIK/CvdZVCMLXNW3Zo/cWrC3dEv4i9ENXgJKTZaHDLDzNiT64CdhCvS+QYcgQuoDMuqekqQ6q5YE4KlFvru2lKueR3IHJTWs3zCBTmkex1B3iK81A/I8JEMnEorJZ7PWktiyRzXWWDuME6tndnWPu3xBoFBMVcQ35jhBc9r3w2Dg64bM2sSwhgG9TyCkm1bfM2L/urbjGonizlBhQqlNAFxEAA+LdzQZXmIaA/mXAh0UslfwTPdXGxxwLPVAU8oloNKKDn+TtVRvxe2i4hr2SMQdYOk+BdqsBnfhFMM8+6a+c6IPRzQ1SpDO3RzybB9pbJSM7/qrJx7yLFkyBh4NHPpHX/MORrfwrOLWPzBcuLaX+metq5dAfMf3VQnxWgBZdFoQr7iVkZWLQAegiOccdIlAWMoIcFT5A0zK3o6AVwIb+7hEoCNdz/o3XMyPDoz43o8IOzmfwq76JKWCEk0j7JIN34Ic0AFMEmN4MQhiXuADg3InhB373JgEkO3oZxTbyJL5GRNurYPFpl0Ajzk9PwdvIm+tshTlv4/bKzNp95z09ODrSakVMzsl+QlgiwDnJIAEZX5nuXgv5KBDCCF1K3hMLDolegR4rLKUe3uwF9ohl5TpBEaUCfSrO/t+yGiz3PXzKLNBWTh5Kqx6PzWrfib27HzPnL08surzlFQ9oaDu8nX0+gOBeGFg3M7Gl4PfL4YBNir00VbsDdIkP/X+oQl7U9e6xpebRYB9BDaB7Dbpc9Hx6pMIdBD95BWG3okh743CQDhxH8/A6c6yQBQTc1BEMhfS9K9vFe2FnklP+TJvx36Vvl+GhI95oioJop+vJlcMbdWomKMrnrROAfUr02suEFh26it9Nbf6iyVXJ70BtIH+6VO9ysXUIKEd/aAK/W5VTWMx5mNXRu3MwKrHY6T0ATygQzgj0PEZYERIo3PmKLZ+N+iYJsDVxPqF5VWlJVYOvJKrKbDhurI4lFeqbJhDw/J0SFgudcftN3KV4REGPM/CSaZA9C/pA4/1HHCBGG8Uqls7QMehntJEeEq/XM/b5e5J3xKfhBuKGk8Cr4HCcfrBFn64mlUJ1qvlrFMxMzz+nW5JfLhDiZFk5lBILsjSRYBDIQAMB4o+cBCofVinO8vGf0+lQQuE1XRvDKsaUnKQ+08UT+tz5Nm3n1AbsP6zok/E162rf9MuwnvOXRD42KXg5IyUHOvvYmv2TP+MDehax4zYeBezgPSDIuEHbgzbRSpPRtLWKiFkv/gaUbuEs3Zg2zoH5u3LC5s+PYBvSnDNZrNYNCcAWAIbgwUFwL1j3JzoL3QnZrxX4vfMi0PucqCJvUBabq0EgiQH5wUgEOKFfXdm2x65Nm1tN9d8yQ/unNcrjpHuZTeyfbtH2qdM0TwuaOPNeXvmWsKG9VsSRZILtV3P1QDk8PPhHIIgQjYZO0AnSOojQVDXMZCkvpnovaqGsDSH9XzVswe+SgNrhFUDZJGLSTUJxEQ4iRMAFNzGKKYjSxkIF42/+ZzvA/CC5fPrJQB8z+JQrsXKsIUeq7Q5mvjswJR9czPp8TxeAYUGjCmCR7QaFJk6oEEj8eBuJyl1FA4JsqQUnP6kal/Nty/I2nXemAhHFSt2Y5s7alj92GiBDiUH6GsEOtLrLTcn7cX4vC/3IumV5J56biZLykHQR1YYW8wLBJM18KgEzwUKjXeSjT+dsJy3KYRDeE8hdJKq0aiq/8zL5ilJK7qi+qkG9uG+Dd9mv0ugY01gufjOsWAsU2qe2LQLCtmuqFvIoTol0Mk1QHyuqmPnb8TsMkvTNWDsksRBDaeFxiZpfrYRv9w7Y78Vj72aIZfxWJABYmCgKCtEdjKiCFwBYLcpchPuzID3RtzTh0iv4or+0AhRTCyXmVRzdj+tWIoypqBFiUOfvzFrnW8vSihk0SScVIpz7gDrAslCfUSB191zB3ZffMuq3xi170l4YFbK/UqRuMacVQCdHlwSBvqCgOAeUcuOvgR4XJPKH7iW+9Xcnj3dozhgcNOq5s0+JBeMVDOWDbBhiUJFSQAUYAF4EaAi0PFZBLxQlxnKw/jO47oScXgjux57udhY2i0kyoQYxPexjO9auwT+0/NbbskpSiZnggUPa53VGwcXwAN09C8kzDxZRkwnOYANJD8AzW839+3RG2PS8CtWNbIRspayyN4+WV4sHYAH/M3ie+dbw77GkmSMW1tnck48w7WT1wDosAoMNCznVQNPwgwX0JXbHWTjvRAKlLEK4xWAJksRxhnSn+zDQ1zLSEKCokCpdzIsNAVj9Zws3f3dm1JgKevwwzPJaIZ9XmoU1zVeH7FXJQD0j7j5Llx0mPWr5IGduzFiFyZ2/fQT/P5KqR9OamHtWPvwhj3RPeUHL3D9loQZbRiqFHQnEZoQ/x8mlT4KYGMwRXTiiEAKJl0X3Ikh74UiIWdgnCMu8bq5QFeQ+8OiRlYWr6untFmeo31tbNfuv7rs5yWQoeX0VLbqJnXPYZEf0uj/PzNZu3d8yw9J7JcwuaYlDUopvp4L6JgUP0I9pMfSHuSC43cRW/5lCjYpvgDc/5AVePzGjLVokFiL9hEyqIqzqktgKyMW4KgtUThJ9p2rCFCGx4GH5cJF5V63gVe6DsCNpnwekgynb0ko8FGuRLE3e9mwLq9maM6emVwJhdDqDqwkRR/qUEiWqEeAjlBCfaR/ZKrxZlC47mqLv3iFfDepG/zr+IZ1dCcErFU7Mbtn94mfLPwFaACPeBNL3qrncwQZq/1Riug1yqRI2bOegEoR9KiDLjw4jLHkBsBRjP1+QEfLt/R7Fi0BPD7T2zCePEdDrG4ytP4nm2/QOsafXQH0tSurl3rX7KHuNTvbv6vYG+XClI1iOwoWJret6kbcfixlxNQaYL6LZ+BafG8jHc4Wi28opqNqPCQX7tNd7x7esbOjW/asQKdQx5lDlQK63CdNHXC3QRcBDvojwLk/qDcl+kuAjoFxZjlndH+5mKwZYxNVtrXbVjuxNHT6Z8tmj/asy52TIEiZNM5S4b5hnKxaK9B9eP7A/u+ppFXPZ+zF9bDsZo8fMugsw5cEeMxaEFGW8i7Q0QRsRORiEpMw30Xi6fujy3b5jTEH3b16/gnxluqRyLJhtQBelCSJ4jYsFOALhc6A8La1CxUoRX8FhAAvqs30qQSBjpURKBW2pmf/T7ZExwKykeuJnil7dCzErIAOPUKtKLuksbw4gE7ipc4xnow9RIIFV5OKlR0SRuojQ0s/fyVmt14ftaapbTs9m7L7OMBzNqcYR89U2xpieZ+DbB/YsW9vhb0yPTEnOtT90jk26NOYyaLwGSLm/Cem4QOBLq1WsP7h/YCOcVrV71d4pt57NpyxBNwQ79VnxBex4tg3CiC8YkXyRZNIrn2qb80e7d+wrr4da+6XMpO1Y8L/3jEOCN21yu5x++H6vi1yI0AHWhGs723mrP36sPzuFfngGiQJAyvB2RHpI8MKFiWYT12Nm+TU++2VAZD71MH/9aD3WAxHH+icd8bNH5KpG5B29oGk8UHD/DnEM+i4D5ZufQQAuXNZCQKWjgoV1mWT6kWbvq3Hc2pnXeLAd3w6PZ20CimUhoE9L1yleuOfWNYjZn1R0uXCgJnkIVkNMVla/buf1KjwTN0PRqJc6Kb3ne+dH1g6CbMUERnUb8UX7Am5lyQwyqTpmaJ4N1jeWeKlQZvM+CGT902HV6YJAGEEPqxk5JaGMjABWECNJs4BGeNZS6UElk/35nQjqnNaZ4p2Qpb3qbFNFx50Cg1m1TVZO0+veJaSsQoFDSgv4lMUCbxfkPLls3CQQZgW+bWua7427vuJ0NZTkzm7xy3ethTArlzfjCeNzvVn7D/1YyacYTGZ8ALVRA66nLypUPmCfvY3R6DDJaRm+P2Dblm/X9azUJLIzdFzeBU/dBnfMMRe5ldQzJnL7imu4/lhzu7FoVV7bHjbzg2nrGkAZWZWI0awrvBEYsdqeqftG3NJW+JGuuddLMBEsH66t29t1wa8+LZqZNuqcVs0mBxJVTYh3zu2Zo/JVx/RD1ECe2wxpuYE4VJjHGx/TJ5VFCgJTo8mjL065S8BOhgXcIbQ0yHxjxpjB12oFJG1kxDBQ5TLt6fSdr571beYuFuSdkIxG2eEt7H4E39cn983IiCqv0+OrdsEzeUBfiYBfjyb4+ghqH0G6RjgIgr9JYkS3EtA55Zuat0evj5lncMs3SkI4LdBF8VjLEJtiUko5R4CPEAG4O6Zydi9bIakvwHUEUA1IMfjwePAw52kUN1BFpNAIOy6b11cLiagmxJoexfshck9B8uO+klfEPxwoqucYkDnYxVAh6ABMkrE4CmKbFVWD97vp/e9ouTTiTk7O7RmnMZE+7Di984E0NWNb6sdKQfd2YGcfXZ4zeL6OUDmXHCf1z3EP8G9DEuOyOP4IPOHix3R5q6w8f5AB9BwLSFiOjfVCBTP4VV9Ypjpa7QrHRstF/Ly80qrWZgKeG5o2S71r/o57I2sL5V7yfQTq/tPJzTW18bsh8v5ADqx8i68B5j4BwnPmWv91jW55VXppJqp2OCA9+bpQ2sWEx+QK3JVP0IrcQaZEOWNj9K6R5r+XRQEETpm9Ur0ftxLngvOiOkcdOoDgCMDR5aJQuR0gX1ewoZDMT3yyTdH7fLwnu8kjOvMyT6NQlZHjGyehFefu2un/rIfzG8W0fniFQKpZ+JW7/geMuqHNBauc9T3iDwgR8EwZaALWHPnbtdKxi7p+WdiOw40piccdAKMJxlinMVdcAVABhJQRdMDWDkAF6pQbk+I+7SAAy/UknJfCNcTa0jCpJ49PUR+gKJ+wwZCHD3GKhH2A/n8QtrBsqs+Mg2UzezKndqSfIhrbO1QSqQwZMgjFCXK9g4PfcIXYWKrjLfFj7NX++w86wJHeF5oG8qDpErjSMr7hjXo4MD+10fstfW8ewLbeSlgXFXdLF1ky6GgVNFt3N8Bx6sawhza+02kBPkJSRQI4+Hyqe76cxAu9YdJcfbzIVb3uUuSaBIIviaR8rhif86VZ8U+iaIyCRrbmJya2rcaKfXKPwzar8VK9uOR/meeLtyfc9suXR+0swJdxdCGBvXQaobNqgYPPL3eOLRl5/vn7JtLe55pQush7XcSughox4EXffZuuhMz/hSKAO/WRkJBYsjrLgsajiKDl/UaQYT+J3M7dv53w3a/QMa8HNqIDXWaJIRsH8ixyRzsyHG7laM71tY9ay8PLJhk3oHHmKPdEAc90QtyefY7+qhnHVl1Jw2UruH5VFxcfjNuZ2NbPjHMkiECbkAHcKJ5OYJxn5cTQLBoxHORywjgcD+xWJ6hJLFSAl4AX4j3sJxR0oJ0Pbt1+WvpWgAKAJrkvXAsFl6Ab4GYKlghk1SbEWqpGEDA6hB1jm4Ry5HNC2frSbFl2SxRfNFl9PEzo3OKbabV/i23dD4hrmdi7VAEzCHStzBdk7GuK5P25ZFVnydW2GMZihrkwqfSmx6+wHOUqmReb0okpnOITZgy+PNB54Pn3gpyFOLwEIsjSCL8Wl2DEmV/F+ZoiTNTaOAcs4RmP9eYXuxbss7edSlLjcu4wCbgcfQ2bjULkpt/P+inOJG9xGm4yzNy+g8z+fzAuJ0ZWbTKwQ0PBpuojBiQfz506IPcpnjvyeFpX6hK310NqV0I/BGV+hK9QpFAwjwIRpL84H249o8Z8l4oWM3wyt9oXnaCRjMF0Glo9BlTBnHRx66P2KXuObsweSD3ES2k/sm3aZaQ00cmpn2HXwkIc0xdI5v26Nuj9sullLtRuEDuBon5yRxbFIZ5SDRykIegBBx0uNHuShd8no429Onjp25OyvVa9yziifF8KZESpgwaj6pQQgVKNCGOxbudRAlWDoE9Ah0AKxEggxB25v8gr7rR/bzkTc+hKoW1gnXU0r7Va7+R/4T3giLN7cq9kzIhpgqT42gxfVEaxDAtxGeSHubUUlj9MAf1puSBVfVdk7vGfqhtak+YpC/Vk4q/bYOhOgVFQwlb1/C6PXR13N7Wb734gHhHz9zPbWtMEXWsUJAT4cLljfFG5H0lnHj9brl4r0RCxmUYnOueAI5d0Oj30c7cUgC4vFhCki3bGtMUjNJ/9PlT45vWIktHPNcWkwchIJ2UlSNfgHVvHZSHeGXU9xoCdGz5GI7K0g3QdN+cWfENiBpim64N2Q6dipT6Xg1e4tDqhleto2fcfrAVNmWFAe8GHJaPDkTEZ3o5Ah2Ao5+4KLzy+Z0Y8l6I+7s2klZCUxGIZzUIDjwFAnndHMtEoP7L7Zyd+0Ov3S/NQxlY1XAoh2pVH9kGjo1oWR0eDrVnMjlrbWO7dvbahH06Nud7fmLhEU76sJPelawFtyRMiAfw0Q63cFHCSO1jrgeGS+7sCxPr8hiWBJw9PxbMM49MGwgMTI77ioJS+ZfXW1LF4cCDgssZgc6nBfR3ZNkAYAQ27uNVLlImnM3OCu0qgQ/h99IwLGPfij14feCoplT6wgqYLLdmTD+r7RrYozIwBpAAC8B55Y9GUf3MSqvA4xfZR0exDWfGn5mQuy43kjZ5OZr4XCvQtUqeOKbKM7YTKWsdl8v5+pgXO+PisveuHqg2iKP5HQcXwOPxQVaCvEQx8/sDnZ4V+csYc30A4FjRkJeE+/aDBxrnIgucmCTftx2NJzva7amJgxJgdiaoG9q0LsXIWHHCEzyYU/OHVjWxZ+3XZ+1fBhbdqHEux554eRfbxbEMB/fpWnLfLl+LWefYji95gVGNYlSNGMUylzJp6LaRJXtOQjioH4j1bp2RffoA4PwP9/NKpPdofiwATENg6SPP8746I+/MlP+O/Dm+YSupeTQU9YICgb5jJQBKE20kg2GfHpn3rQM6FVdUxVlEKWUi9cOOTpQpoaHqyGbKz8EfJxlRE9u2zqEle7B3wr6/uud7fwI6ciqh/hLQhWlktGQUF7wTdLKGuaIrKY2H/XC9YBdvTQsY676vIqCLrB3AI8FAWVhUrwjdXktXAl0JeFg9X9JTymRGls4tnO4B1Yko4GaVNtadQm8OdSnHdb01KyUw44DhNCTpjKCK9cqKeJQik+F4ED5QmGyfs9MoEteQEJDVY8nLb/RR183ZsOJebaAAmG32cY+xatS0skq8iWILtalKoPP4VBa/oXvVPtq7bNekIVGSRbckoICaRy+nd/6i2PAsjsYe2ZK8vVsu3ivplkGI6SivkleeB+AoeM7Kr+GECz9V1r2WQ683dpnSb746tabxWZY87Vq74lbcd0oI75HCPjWtfimuvfjWuP10seA83tAjUW53sXwhV9jWg8zmxLwn3xy0h6ThK1l3JheT8+RYBcxxSCcG1u3cfMY6rsXtP+ay7sMjTK4AReAtMEN3c/dKPYHISJWAx3PoI4Dj9S8DOrkaDjppKb2yGhjZ4DgtAvQretglKZPzCcVS8W31I+muDmVugI54B+3PMhMW7LLItXL6QIK5Yx1TSWvvnbIXhmfd2nG/Td8WWu1WvAPoomUnR8G4+uqg87ZJf2qk6Cua/Pd688D1MT/hqHZkW+DO+eR2SKgENxM3F8EEfFgst1qyYMGVDHEeYPNKkxL5JDreiQAHcL2OU8QpQwh7hawNJ5NypDS1j9WxtG9P8ZPNTe/Tuu8OpjdsA6dXtttDDhkn4rgj0KHJAJ1iZSpXKI7C9X4+Pi/Bk9xQXSN5qe/LydpJ26ttPuFPgkqf15Xa5XOMAh1Kp028PnNl2n64SCZRMuXLi/QcuXdkMuEeY+uW13kMYAK9H9C5kWAoEUoIr0nPxMIBOMgX43BQCdZF1xCfU5H1i92idV0fkgfIotysKzwOIGW1/0fiSYUoO9Y5su6Juz79nH5RJI2xuYsbb+Z8rtwZ/MOJTbv/+pQGJmknpve9XOleWYKTMheUDxEYtvTOepqUejKAB3pZGsIRVmq1/mNg9CTKhGhwEdIQCowIJW4YQqhvS1byzkz578hBVzo2iUKdpGKApAQBYVELfDEkDOJUIA4thEGnR5O+C5W7zhLIFgljl/p4N9s5yH+8b0Jx1ows3cyBnZQLWD26bRfZX0RA+cbUhhcShB3AxEFZA+btgkCEGj1fxIqWZm4rJ0J4JBx72SCcZLtemd2x8zcT1jWxLTDsWtUMWzMoAI9LQw5lg8WTsotWHDiQZD0YWKwaAEOYSax4mZWE1+fupG2Jn/gdSoUlS2UCbL3QfmI4a+UjWV9OVDGwac2xHXssvuR1tOQpabvHboCOoRJro7k4HydqWv17fUnfJK3b++Gs8e/Ozyqmmfd7+3IwgatNLm2bwM0x1KcWcnafvIh7ZWHZjKhJD6UekzaflBtaL2XXfH3Rnrk5494AVtdrQDOyKQestQ5rxsPpBRHodKGa/H5Ah+wxS0C3XKl4qJLWPXeEsS19tC0vWoEBMrst2yeTDniu6rnPjLNFxaSU5a7VSn5O9OxIeahfMk6MR6M+P9s9Za/0L7rMCAE+dcTrXasSy81D6Tr57tTd3Vrbt0/0ccNFK1so2t2JvGspBBW3jCqG1vimne1btI9r0K7rLggTJhcksyTd6/J8EAGbbKGT3uPKyg+PgIdygYF3Ysh7oWDpEGwyaLI5AgDZyqQ+B9QIxE095OmeGcWmS56+5cheXIBaST/JExZ0+jYDw9tWN0VZVVrXZO0+aS8vXVIwzPYUnHX+fO+MXVVX6Cu8wiJQncJzEdoIdJ5oAGy0DaXgcV04yxs349d7B/bc4IydEfA6pwSYsaQfqczJo6xb5CguYi63GhJi0uvERSHryJRAyGQSqJ+akouqV7Kb1Z4FDWvy+B1LawDc/+7dsdrZQ7u3b9XOTOetM75llb8dth+qeczPode9iPkY6NCbzE9R8qU/LcfZAMzNYmHUH9ZOwN9+vX5yalpAXwwuuZ5JSOJWmkSRvIsTUjIflrKmCNiPIcb99eRR2LOGwzs5+enBm3O+GzjytCsXs8iZe7I8HBlCrSWgw/nDxXTQibBWd5KN90KAzvMMdDuvMZIF95UNxJJQVo2RrO6s77qhIy4n/n2mTwq8e8KPXWMlwQm5+a0a2PLBlFVPUU+7bWfiit1/329vr4dToOAhckkG9K5Z4ZAaNt9sU99sqRE/mklaa3dCN9y0j0zs+MZEVIVXDiWNAyI6deM6xXdUiH9RzL66V3TXCWYxEAg8gSeZHwecfHN/5fRGCWm0Riryz/9cOkrN++y1nqdRYKsItrlDwLFy35rZs8vdM3IhN7wMiYoTQFc1ULCmwbxvnFPbv2JnJbjNEsZGBfZkLpkgr5yTYMjilfdv2JmhDTv/1ph9bXzN78sTmZ4IKysAXgi0STz4chi+JKZzaycVI4HmN7hyJFS+N79lD1wZtgfY61GgQ5lRI8kB+mUIK0tyJJBMbfhiW1m/MBcXJr7dNTsGOoAYgQ7A+QJW/ZZ4EUt6cnjd2qfZLHjJOq+N2fPDSy5AeCoUNAE6nwagkZDYilu5rbHyJJFiOF/NLZZT7sc4U8XyjfUVuxAbt4r4im/VwImmzQIcCq0ZF3hyQ8ASIMdWrF7PJ2vLtAY7ZpNNZYX53QMpATRrXb1LviaPpANLoQCChyY+WR6sHaBDYUeu4fsCneSPJBceGvNwPIVQAQXuMaWQVtwF5GHc4Ncn5Qly+GWDPL2m6eBtsLs5W35wbh+FJR1jCkvejNnn+ma99BDAocCQD1zkuzaktz1bw7nY8pvET0+SPIu70D9lNQtJu29yRxoq6cE7LkNzQgM/mrJ2uTaXbkz6ucyv7hy4q0IWFI2wLS3PKgQHmgOPV6wd8R1Zp9DpdzPiTyXfuJa5JGkkAFiQNibkog1SuPZc35x19C5ajeLUkwi0XBm2aqgW4MiutclqI4if0Q8u9q34NnDtnK6q/iKs7IKGsmHT1o5b8/a0tNwVjQf3Zx98rzl14AXAhQ1uQmo9uNQl8NE2WQmUAYLeK/l9ZWTRLt+ctgsCe5fAV69nnx4Om92wpwn1eyHBchx0YQL8OPB49dpMfR9ZOgedfsu+K/UL+9Yk5dMqBdn59pA98taAz8si3Lsy1+Tr3gE6tKaaTJ82qeiREDJn5p6FJBDrgOKhUPnp8SlrHJqy0/ENq1KbG8R01mEyTYEHUTu6pM8m7Ym1PXuI44RHN6xN7jv7RfphjGorbjX1oO0jG3bxxri9Wbo/R0+5YhXwEFei9lBITsZSF/D9+3AvIZbphMomorew6oBTE/RWfRUbxA/GmnPN2ZDoXGzV5b5dCtl3pR7JSEaKstZSnNM5dys7+hfskT8MWq94iJUjLwQvyXazSOguNiViH999TDlRoi4gy/KT1Yw9ODgpP3Vd2nLVGqfSDjafsJU7wGF5DWJex9CW77XxCTHzJwKreOipdbZQ2xHwwmJOhA4tyUhGGSd9JLoTI94rAVrcHHn5AXSZtB3sEQgH8P9qe98u3ZqypqFwHDLzYhRxe6YyVtAgy3W8OWUfn92z3+r6Twys2aWbsz4/xzZxuHucsUd8xbFfbYoH26WIPje76rEHOzSj9XElARmWgTiIAQSArgyi+BbgyfrtZQsOPLyCG3IuXlAc81APp9kuW/vwmjVpQOtZTS3X9uSo3Mhj0wm4lxCWIorrPIki8rIw5ujkuhHTuXuJ5Zvdt9OxdTsztWVtN2J26XdX7ZZYhZtLOEAsygEbuMY+NXAEOhQHbc3Y+gFZPLVf/89LZRPn0f9/W92xC0PzijVXZVV33BvyBM7AoSsApkXqbo3Zw8MJe03Xv7K+Z839k9YhC1HTX/Az7XyzWSlCYts2xc6NN+VNrOfComHkg8GUwvJtG9SWKGmF7LwfKxeReyRYchET31sapz3dHHcSVmDRr6rDzw4u2NnhFfF5y8+zP9W3J6UiXg+rL3Gy0AoR5BW2TmxZ8x8G7D8Xs24dOeMEnsE7UMzql7t8j3osEcIhLXaQlMCoM/JK7BvLe9bUE5c2mrPW2ZRrrnpOWhGz2HeDrcc4MoiV2Ge6V+zJwRX73nrRl/9HFk+QU+f0QNxAn0IIrgFMC6D78xmHhoIxAM9vxoLKPUqv1H4948vjS9bVNyMBkO+dkDZiKoBzDNCyEoq2mOLTt+P2A2FCnpj9dLZoT12ZsjM3ZqxZlo5D4aulsVskYSxMBAxVIwvWNTBif5AM0j+6RlYvLPAMiYdoH0XcTk8mcS64Kx5ZRLavE5+5Dh79TgHii4Pr1vV63Dr7luzsdNoapjmvXXHmVNhMKFpzdzyhwhTB7QnzMB9GhjNkOgNIcUXZrYpz4Ou7x+zitQHFk3m3tIxLLhPib6yctxcBj0CXlSyozcRRS8U1fUQRlACqa4hp2XrvkZ4x60BRSKH5BklSav7sQVlitbtGFrz1rZh9dTasYng9nbfLg2OycEtWdpMFn1JmckM7FVieiMm1n5fyUKz71MSSW2IUk4OObIfaQnV/yBarJRr7ID93lo33Rho8DIEUDl4ZlSZMfNP9KDz51XreD3U50z9vrePyRgS4e+UKcq4FO501DXCAZdJrLCumdqxclvqjQwuhgBw5F7HgFcCxGj6f2bW7CBZZ8AkSsUCemtOIYBZ79YOnJ+bFSMVEimVqR3d9Hwi2cmDe5T49+JTe+xYAA3vWfmPRnhlYtu/OJ607FbbuJkWKT0wnAZtrp1Jj3i/o0E60k2Dfb8Z2TcmQEOreLdjTNyXI8SXXwmzeyp6MpM4RSAS3oWfZnhpZ8v1PAMCE+v3KIPvvy8LLHa2d0DVMoquPrCo/MZ23E3MbAuKofWlmyZMQ6CqPxNEpeoGTwrADjzgPRlse0JUsvaw/83YILwNLLPxLofel2KZd7l+01hh8ljufSFuN4kmv3CCbSfJBdHz/y7C+LixY9ZpNr2QJc3uAEzCeGlix+1eL1nozZt9PF10YNmkztKvWqk20M1hnfQbo6ASHnOg71mlseQiS9AJywEqc8o1ZxblX49Y6EA7eJPSAWKmBQmCJUvnAqn10YN661W3Gib5+fmHFanoSPn+IK9pB0kXtLBvbs/LpHQn1mnUOTNhPN1kBEOTEH0qGWgpCsHfQMfbI1fsLUYoaM40L9aV+PruYIh7AAtkT+9k220/ErUVuZas8OVZlnOzdtXop4WZpkYregrXKCJ1ROHDvqDxCxa9twwv2K7ULxcZCFHe7yDnoOUz2Wz5pd/nGObJAnhBwS8RFerAeyg9/p7+fGJ2xlr6EtY9tuktWNZCxu6VVyxbN7lEDmFCuVyPa5Je3dc/buTeG7QvDs57ZZIDQjL4YUfc6Tigw+BkYiLuIr16a5yJ+gMiWCVCRSwqBLxiORqJfex5r6I26wofb+vPVjayduzpk7aPbVj7CXpKKc9yNOZDLKCsxkrWatxP27bVsmLgUX7jXa4s512ydExsK+pO+c1a1tLGvLSSOWs1b5eS8ne0esjfkS1JFx3NpAl4EYGOxo2cxsXSQ3oezHPhbHRc6OeucMWZLN4BwRR9/ZnzVzl4ftfaBOYF+U5Ziw9fEea2lg0zWFjC5ixncTJQHIAR0HUMF6xzM+bYBXYN71jW8abVvxe3+wWn7qZ5BjIsge6nVlkaFQZa7g0X21dFqg/MQqfOmyr2UawngiuIO0zHwqFua9Inead/hu7pf3pCUGVMAWN36yUN3y9lAt7p7Ugp41120vWT47S+l9Vu7J+yCNFZ1v0lg9dq361k/BLdxXm5b34R9YWoj1PiKPwF0TFwzZRBAB2hcEJANyQtyEyXnAoWvg8wE+eG629cqlvN75YNrTf0lY6jfTanv3xKAut4YsPbYojVOC2gzsubSylg4jkwrH9A4yKJ3DO9al8aqOr5g977db9/SPaSjbRke6j1ELeu+FK8rYD3rLmQgaljoiK5SA2kwCg8T/5vNjL3QO+6H3nOqDIcB/tN42u4Rou5WXHfvFEuAWPGMX8tJoSt2bmDWHpdL882xVevXswAe45lWYzj/HIsLTgheOVmTKVD+JcniR9d6pkwXISBeCREKbrEmlAqhOSGA5/9Q4q6f7UkgsLAPvh3zNYCUfLGTMBO2J8WoRubiYmkri21bV8+sr4div9pDzI5ugRv0+ek5q+wZsNp5Cb7cvGYpFqwdDD8pF/v0xKZ1zG4qXozZJG1RuxAo+IUD5FGPBMR3JVNHGXDaidXnGoQiFA8U5ViEEjHmcnqliX60umYvjiT8IPrm60N2LrEq93ZT4Nv1ZJavOFDgfq8sN+VG7FTNimwqQdqGFeB3r9oZWWpWMzz25qBx6ky3HheVsO0ieO5uwFd1Wh0nJe8ywNDrY8YGYXdZV4sLBxuyzuFQSKzVyxyWeGPJ6gUcnybQh/fJ2lbq9cNTh3bPVNY+LGt2aWDU+QtHcmkOqg5HaD8spXIZr+NW3l00lCBgJTlXO5uRa79qj0pRcMoPJ7cxLpwTwXwoskJFpgs0ARMyor6g4NjsN6UvkCnntb7m53TXyx3dlSQ7ySilPF5d1m+9OEDEWtGfJvbsX24s2MO3Vuy8rzvMernePYm8sVSHeTjayuoN5jrPTa1bzfVuPxgST4L+egYf4eb5GnvyGlTVQID9HQf9RyY3qmnj8w11jAZdl9Q8JwvQ+NaINU9sW9Vi0T6cyPoJrBx3XDGreGlu38qJe6aS1jS+ZWfjqz6p/JnYkr0q6Mu4BKsngme7ahnvPV0rpnkJFd/wyt4bFNP6ZCySIOugj9HG7wRdCPhdqvUBBclUfXT2z8hC7ATXhzI2xaEVcmnKExpc5h5vztuLkzs+2RkaoZvq3ljmn6b2JBQJxUQziuG23KLUDe6HE0MV7Hpmc0qB/8CU/XJZA6ffAJxNsTWs3NOQ59RTpmEkwQg0QkDfaTOa2gWgmPFlNAgLv+IeKIwbCu6/s7xqnxybsvMcVXYrbvU9k1bNHvqyfljg2sm8xxfNAiB7ndTeXPA9Xc68OWLPKY79ztyOvS73SGGs35f7wyumVPwwfPH7wM8BB3jSwiha9T/iLwkhspTY7cN9X7bqbf/Netae7F+2yoGUezhkWaum2NVZYMMbkNvwvxTbc3zxtzbYP5zh1IBI05MyR6l9dSltXbfWrHlQMancZfYUadFvcYfrpmXVx9btQt+U/Wg9520HM+wyzbLaHfGOQ/1dOGloDreTVBpJtbD0CmJ2j/VvyW1xnflFBFzEfON2Ztu2D8M5hvAbD+DVjYJ9SfL6xI05O399ydp793xt3OlBKQY1ulZakRCFXc7JtLbN5Ozs1LYD7pGRuH13e9dzGWDFvVRMph7pbRPQsKhhuqNod8FY2u/AkwYGbGEXqzCXtqVgGyOApnx188C3HDvbu+AZwWZpXRrmtX7xcIxtvWIfKlc4NrZpWpprdEXx3pRdlJ/+2ckV+8NuKI7FMpAsc/ShQjPyrxVoh6BTrdUXXlBM8CwKk88hQ+haWIQQsX3NLn657sF0IAD4TGLZWseWrXx0y1PTjX0Hvo0gFu8eBb1kYuvfHLdXdb1rUqyorCkrEmAazPuKmMhhmBwswkLQqqG8z0EhHJy3XTm2bR1yPV6SCzUoGcAVXxe6aKsdSsRZbl4Q1PZRYHwesE1X5ci7q+SuJ4iUC02BNoKOYHMvsoMkE/5zPWlfk1V9cXjON/y5eGXELlwZt4vXOY56zrquJnwe8qOxFfvSXNJ+Ihm7od8h3JEygNc8Oys3wUMIVD/WluQWUzrEG1Eb9TEEAAEiGxNRj4ggj+i3n2E78etzvrlQucabzC4bE3Ns1OlhxZecw/DWhH1S7pl0nIM9nB+vMZQChb+k37teH3VLQmV+vRh4RmPDMWwk69iI94zc10/Hb1dz7KhB1KYAOqmpoLQkBLSZ7wMBuJxed2XY1POciP6xKfDOju/pyV4uXEs7cOv/IJnmBNyP3pIX9/a4tSnOb5M73ywlQt+a1EeP6/vzkvmczye2TDFFs25VfeN2oWfQvr+b9OkyvMIdjLCahjF2D03AvyPooAC8UlxVAh0ApNh1SwHZir4HeJTAfDoWkg0X+jessy+jGIT9Lvb9QP2wREZx0Pi+H/dUvy7LMqO4SjFea/+EPT04ad+YXLUbWxJwtYmiDbVDjRNpjINrw9Q6B1fgUmA9NGClf1lqgmWDACLuBhpQX3m5o3BhF+X21U2vy/3a89rKtj4xTkjCSrHhUJXA8oQEVvjxXQYoccrofuu6HwKPC/V73etJqkakZFhhzaJPhIuyMRaDsgVC59iWXZbl/+FCOPQQe8BUAZqdIlmvThew3GVGgF3eA49hP+DzwXFE6K34TC6I3aABC21BEyMcGnsvIevRT67p2reEzt/uHNoVjctVfc7EreTWr6X9c7puLoUAysoK1BkxlnWGYmsgvQ1tom1BwZaa4bLgY6Lf7Mta6woX/p+sbNoDN0aspWepZJkklEJWbV/BWoRyXK72vk176MaM/XojrGHkt15ZwpiJzxwwQ/ue7Zmwc33zApss22BWXpHiuxhTDllrVxzL3Omjt8atX+2Ar3gKKFncR6bJPSssJRDiaL6j7RQgINrBbRbSdM2eHaQUlyZTnleAryj9N8S/b0zu2gs35+wxeQkXWITKUid5EI3Em1Ii5VICreQr+qRMelJ2SQblgkDXKKNDvNolef6Z5A6ZA3CUrxEZ+ZhCxC3O29ugQ6aDeykKwJPG1YdchLCgidmAhzGAeTQYhvWqv9+VQD/8+rid79+xVplgdiHukDXpFGFV2CX5hAL8E3I/qGjhGKhaxUItivU4iPGFgRn7d/nuCkPCnJ7uC3MROPYzISHomllC7EBTW8Ku0VDaibAarYdbcaiYjja+pvs1C3Rlsg4nFPxSjtQlogKlXAw7vbhtJ24O2XcWU+76AHL2vcBismvYmu7F50yZ/GghZxd75/04rcbJgq+8oIqFpEVDSTjYrfmp3hn7zUbRhYyBzck1dpVxINCxLosECjEFEiLtDPCYhMUFQll4wxkkXYKWzKjz7ATM+FE/ynxa5JoCIojv+Iy2MuAQ2pvPonHX7dyC+v6kzCfqcRDeOHNHXj/qzw7jjkCgDFxJMK+Yl8DoOzydN+WFPDc8ZZ0Di9ZCYgcLoDFmy3QUWqPc9k65Xa2/j9k3p3dtRs/BY6fag/Iqnw/T49b3gmL70ea2nb0x4JvNMtfFyn3fSUvWsk3uP59f6Jm2Hy/nXPHQJ5I97AZQdOusT7gvWoI+0FkUHjKr731HM/ZbKbJHzm3ZJfR4mf1P+xes4+aMdfSs+QZJ7SNYN3lpAhtFCaekVNh8mL1sSBRdkDa7xHKvt6es/Q/D9onxdfu1WMQ9uTdLfTLRwPiYqvOUAAI6l9RjoMONQOFFls5Bp4tcWFjEhwsiy8MLOzSQGeQh4ov9eDptD9zSIPStWUvvprVLY3VqMNrUWCZnTyhIpuH3yjqcUpRaNcmMveK94RU/7/uS4hQ2O3pleN5eWy+4OwKDI+Hh0EViDCZtyaQxb+SV7SXQFX3jISZNdY06jKv4ypTaonji9Oyu3TdTlEAcWJfaUjGUESN3rGJp3Sp7e+16SagRQuZodtXvLf2xrbuxXgrwK8SQRhboBpaN8+kq5frUDYnxsuRNI4qlNFCdiu9aro7bF0c3THLjvElLUBURe/soYfLpAmJTSmXk3wA66V8HkWs0BAY2K0bJC3B5AdQX4uo7+oaj7UttZHUANEqC3av3ZaXYCyY6povlRmywi3Wi2MHLtihUJibGl9fN5Lzo9yzX0aPVRxdY/5oWowbUKimLUEEEBMPu3/86u2WdtyatZUxut+J45i9ZLdCMtdMYU53BSbIPvDVg1/RY+pZUf5MCLrFVNud1HraVDJPGffrr4b6bkpUVrz1l2qN5OG+1seCitk7L+klOPiWLN6IfIs94Mt4nig2cpxpBFBmoUiB1kKX/wWLzfOJ1lJGaaL+VcHx5esseHdR4Ujs5uCTFsR2y2CPsa1L0elfmcf3gUIHMjy2bVj9nmH9UmHFlzD2bf5M7yoGjuO88hxjOKxEBm5rlu6Yn1TbqbzU+4AlOBqXGqT36MRnMALwAOrIsflQrwFPsUUzuWm6PQdA1uo40OeYelH99OWnPSHOcjS1Y44A6IreLU0up+mDfzEZpCRYvVg4cKC4Kae46mfBaxVUNUzvWOLTgVR6X+qftefnwX53Zsd/ITuOuocXRssTLCAna+jj43CxIk0eCI17YCz0J6xxRoD+T9gqUevlknJHOdnunprftvkTCHpxN+Epe1sUR31AlsCuWYO0QDZQyyp4+/mSxYA/2zUnAqC1Mqk8c3asYUX0jrmlKqD99K/bQrXn7wULW9/THYu/qJmy9TpW8CzDzQEzPCFDETwwWigWZcYCJcE15PgOTUR+T+bSlpdHR7n4SkYuT7kE8qDZrUMIr25zzGYKIf5NWy1G7aFrqmDwRFZjoCkxtFNccBIy/y4DQ6AriUFw/EMktA4iMAQrxCY1tU184LMOL39nESTzgSCyKqk8Pb3hi6esrWw5StcJyQgkTzlgoJp1pPZ8vS66m1dMvzMUk9JO+TR3bAzoAFJZUyuJwwg+x3QOKXd/Wj+CX9KxuoH6QGCHRllU/XZnpb0k+MqIeONBwtYltv7V6aC/Kap6TG9lwbcpltHVy25qllGunUr4Uh4XLLDuCmFoi2cZyq/sSKQEvbadi81ZxM2YPDUzYj9dynqHkORyNmFZ7isxplmTQ4zgAl1b78BLx0I6BDozd5RdHwDsGOublSSW7tWNQSTHLLGbTuoFUMJ4JuxvRAEp8PjO/bJcGx6WtZq1BcVODTCH7urNYlIlQFi82iFhMickm7c2JozXzOaud5gD1LWuPrdpZuWqPS8i/LFf0l6sFj1GOJwQQUuLMo9XMal5evKc9by/l7SFZzjOyOvVyaU+wuY+eRwKEuaPqmS2791a3fWl7w9uN++qHx+eSAsmeBEL9RBI1jjyMQUSxfErasWVg2mqmtmWxdz1NzhnmxDUc9wTwmq7N2UflepEkYNBXsuKk84wG6mYICQIi6wGfAbRrSREFxSF2ZacxXnH1mEVCMyoW03sfE5c6RFf38USM3tN5QgF8xohwu2RhCOI9aKYjin+8TlSA118+7AABnYW349fuq0X7skOH6z72KAXJoH1hbMM6bix6vIU1KNO4shyHec+PyDLUKUiqGVy2rltDR5UkOygDxcgFWVoUOgmMPQGf1i8Xd+TRbNsv9uasZmDQJ8U9IzuW06sALPmgcp9ijNYripvUkAW6BbNouNdW6U5SvKwKYC8cZAMFwbhSLfSyrBPbnbMB7BnJQQfVORSFx3etIrZprARgBQmHnbplgzyzDeDzet3zcKiiL2G11wfsmfFZe0P3Rh7gCwZXg6JhgIElWWTe08cYXurLgjCkcWIko7GEF3e5gEXA04AAOnbIYOgj4LkGdPCFpIC7IhIcvt2QSwOTJdf2M2nzj05NW2PfiCzbnKzdnrsigK9alq5aoCP4Zk0Vk81UebAfCUtpiLcoJcKNa5Gb0ikLeL530l4YWZD127Df7hRdAGCsg099RImTGKMLBPqf75/xWsszI9tyA9nvUa6BtFcNxzRNCRgc1He938+0xoISryIYbjkZUQTVayn1pWSGaTaue1vPuNA94uVwuK3/PLpnbRK0evUFIUE7t46nvSD6X5eyrmVXxVzw6/dMapj0DABIbCpWR9DRKwBDCwaf/04U3BKgR7yNpQwUTfYGwKCN3kV85hSu4zfBjQz3ow1Mb6LIXFAUB1lhQ/KyLsHKeMLhK1McXL+s8Qjb5rEolr1l2GLi3tGs3TNRDIW+b4/atzdSnjVd092JYkIsq5vrLToCY4uskppJHm5ZQl88EE8ojtq0NilgEjFU38BTtn9kzBpuLdjzQ2sWEzNRUjhchBy8x00FBMjFFXH72+s7Li+X+hYUe277Hi3s9ROtukAWmnVxG6vaFTs2DqZ9DRxldqfiAuAk58vJ2ia2rG5wzppuxu2Ba4P2g7WkZ5OJRdlyIVlK9MlnOBqHMAYaa6dg4W4DLiTN4D2J4/8CdPyLSXwn8HA3o+XzAZj8GLeH/YAPnAFvCOFfXd2wh0cEvltYvnVrkUC2SSuyuLGsP2cn+xXfiQmN+gFBK3WcJ+V2clgjk8/Mg9XJ9LfJ/WwSkNi35bHuCfuXwRn7/tSGXSvtCgwAceWwhGjYj46veqDPCuZ6xZcU/nIMb5XAR6r3XP+KfTa26NpQ3ZUUkEIXQwAfjjknaMALSD40RoS5eaztlxfXraF/xE7NrNl9nCgqrc+EOf1gk58GxSEtAvv57mlP26OItpEwrAhWTgMA73wvTvEKWQSUDAp8jHgaeB/+jcCGu0mTQtytW+q3x+ndn+G1OPHeKWRMGdvoeQEWZAIFPNpIRimTtMMU6aSc8/R3UhiPy3MhW+knwUp4fXEsLhgr3QUUxuq+N+L24uiKx+T0ewvXFHhRc8rNQYgeBJux1fhRyA3P/tQYZ7yt6P47khWFHDG56+IpR3uxIXCzFNxDsQ21JQAMwecZPAvl+ZmFGXtmWiHDyJidG5xwZd0SE2iY1pEXwvo9zkCnbJHz8qguqifTPnRg7YrNa9hFQK5tk6xenTyk8lsTVvP2kEKKMXt5fMl6Nf7wwn0MNXtX7jsuP/+ygzi8JPF4RN67QIHXEYWwQi+UgeluJdAR4EegQ/MyMPwYYYkICwgYw8omsW1fjl9ObMiztB33KFidN3fz9u8LO/agrFWbXMaq/kUJ/7a0mqyPAEjgeqJP8ZEQUCfgsdymSuBDg/qAyh3ERWQymLVLLf3zXrz8oOipoVn7eHzBPjey4gcz/Fx9+Ira3zq65LEXB4KQBSPDVi2Gc1AIB/1femPaXpvbt20XstBn3vp2BAjHrj4gZuA7vUAE78gMJ6g+NjppZcMJq5zds9P97Jis+8cOHHS4nM3TBau4Mm4fVZAOsNd0S+pAPekhPjLbxXJMtpQgq+jPcM0oAYXcTQzZQ7diGg8HDZceJzXTlaveky0F27xG5EnJEkVADfF6AFxwZEPFPuPFlIJb5HTKMumwc7GvHZuetzPDi35iE6c4taq/xMgc4M/GTawn64iv+dwhxROEABuKr3K405g2So9AFr50Sc7Qazk0TkrX6ZJXV/btiT7do3fTLknxnhGw2/SsGvG1XJaoKrZjtT0L9kXd/Pe6xR/U5++uZeyp+Ji19w9ae2JJ1nHJKocXrDYmOZH73yYAsTlSVTzpmybjQuJZEa9VATxZbEIepra8njixIUUta94zaZeuDttn+iftylbBlbqaWNKOivXlybFdP+f9ciDzjjhFIi/yVCK6/W+k6ALgGE9k7o8tnQYnaNegFUEvZjIylwhPAB2vcFRqPS/9Iw1pab33vS0CrykI/n3q0F5elAUYmLZqWavaoSVrnpTlk9+MO1E9rFhLDI5cAAJ0LBMuWy0p3ImcNUwInHI7WYtVL8bWD81bne7X3DNlDw+u2MNM2M/v2YmhOffVCcpr4jl3a2tlphrE9K7+pD361rxJmXp6NyVBYNDltYrUb4RCRBhGCMSOYmzhty8LQCxCVvWH22lr7YkpTlV8o/jA98RQ+9H89wxRJUI5Vso6r87Yd+Sm8BvmbvYEMLaSYLiCztu3QwTPXVkxHxMQEfNmWJ0jN1E3KZGM1TsoAh3AAXj/Jfj0+btBhyUKCvTAiw7IiLJtIffAsn9/O2UX+hNSYIp/FGs1SSm6oMpK4J4xJsxTdvy+3360mHJXL4RajD+N0ysJHNLdBEFqJN6mdPH/v703cY+8rPK+56973+u5ZkYH6L076WydvdMbDTSoICIqoDg6Km6Pw+jIi46K4wyCCggNvWWtqqSyVlX2famkKlVJZTnv93Pu+qXTTTsPY8PTzAXAoSpVv/ot932+Z7vPfY6t6pW/CUT06u9nuzR/16btXN+6NUujNgkYJFxUEg2XBD+RWBAYl+yS5v+iLInTNwZ1H0NWm5mTSZjz9WB2/bOsw44HrBpAV+dl3QvyQQt2qL9ghwc0X0O6d80XXaka6NM3MG+VpNxdbrdvJMeNUoBoUthhnTC279XSjRIFFgYYN0RnVrBbcdDddAMiCi5DwFBIOCkDbg90+h9/8KEHUhx04dVt0MhedecQAIaJC6jmNdSw8CgaEbM1veZ0g9y1mILxlpCx18QF3xpfsHOdA946CDPgwqikpfwCooAk8mJaQGS51MsP84VoEnwlAb02yIhMBnZKj+bs6PiaVYxK2/QKiPF5X4o4xnsxA/vLiFay5+++ZNELygK6p7uze7Y5jjmMgjQr84QGLAgLCKPZB21HzKjnxreTTLDvDs1Y89VBOeYCthAcwE1VX/mlonNyhFoktS++PWx/1hhgEmECswObBQ7fDMqgo133QLef9J2TJshJh0ekj/dIf6P1AFVZXjjtAY1T83NeRcwt8xlMoJuWS/iVLBRpYxQSDPemBuCL0hyNsekQeGCbjibxeDwkXZ+Tbd8sa+Jsx5h99Z0ef0bGD2Xp2huwSXLt5vVp+b65V9bt0P74uyzvMO5YBC8ILGdii946qyqedx4AePSyY5MoG3vJAmkTtSQWrVHmZiWpiGMRkARS3R/NPckaYbsNpenJmOK3nraXWXd/rWZE89Ynwdy5aNXXx636cpc9k5m0P+m+4NMZ3etydtu2Saj1e9cXWB/6g7kjQSOKKJPUHizDQDfBFuEHXIXn309/E0yYOwHupjp0BwRyCSxV6cALFwj555rMSLIRwaFHHGJMHi97tjBXyGmUZWKvyYz70fiifTkx6gnUp+PLVi8nvUEMjONL6TbMCwacAqlsw6E4atXIrhfvOTYaop73p/J2v7QfEo5QM40d6+I5STBNAhOV3rIHNJmHxCDsgGjTJDwtk+jPugdMJwrmEtpGqqORuD/ACAFEdlS7Nt8GbhIuxaJvWu0UQ361Y8IaOmZ9K8tJOeC03CIj43hMQkQC5OzAljW+k7JnpNW5DudnDJgon0lXVRpPnS844JD+/q+In2gC9xPzFoIjWCRBqjrt+5mbo7yWj2XuIsvFg2NsN9GTMoeRr/SCzOeWq6Ni/JyvYWGaUeLiiIRXrTR8q7RJY9eMr1m9Ox9q+i/L4dGl/JkKZJ3rlccj6MAVGFPOz1gAUnxygm/vaDiepf7l8LKdHA/BDO9dl5DWihMZltUj8FSN0FxS1g6NXiSE6VVOJTHcEpancCVIyogqqJGWSPNLzGCilMQITsodqerKWEtHyh6LT7kf+kexaqduFPC7tvY5ESGxihqnrYJtldbdrMRS4Gv/R5IMayVgh7GXZaixj7DDmO8BTs/oVJ7Dv4lsTsAWyM/nP/IfYApEYpT3gE/AA5Acx/F8BTsFbcG2Fqnh7bxMNQZfP9oS826GvcdMAAN/Q7z8i4mCfalXpmci6+lDp2LLvuDMWhD7yJBi1PjwdrLJTTsk3wxtwtYWEpmbNXOYkIDzfGzHznVs2NmEzFIdd3hs1/4+vWn/kNrUeYp29IacdTHKhfikfXFwyp4aHLHvjo7ZW9m8dcnRgAGi5Ymg/WheATOWFysIUesBYLDXJs3OdM65A86iMNqOhABSomq6JTjk89AkpOXKoEf00JA8t2dmEML3TIUtWY8aK33O+PF6k8LkhQkMEwqwgnl4kwCPrwMS6vdXzYL7iDdBfBOkQYi6r8gipB+n4wuLeq4Vfy7u8+fz63YpNmVNHQtePJUW0R6M0OCcyGyJ+fMSbgteu5+EAICU13PMbrDWGVYSyUKBdTgncw1DI3Cvif64tmkvTSzb1/sn7Qn555/rHLdT14btvuFp+9upVfvspOZ8dMd98obEZsgSgR80h5Wa+0ZpW5IdmnVS9rVVyEVh7bSSGpv6nOAWATsCaARPfClAQvlEz5zVt6fsCzKZXxybt2uyhbk3EjBQZow7/IlwJAzkfQv0CTzAzvpQ80dfAiQAJGbfWtUfPGg0tntjXT4mTGYZN+EzcPU+0Lkpsh+l0Y8YTf+xvkQK6CCkKMf7QIsYZDaUEhLG7NzcEqthdrqvooN1PhaeWezGlIHBO0W/1iHPjJD2M2qN7aFyF0WCWD6oTBfdZj+RCoummHLscasfoCqztJ9s/5rEjj0oKXexZ9vOaeBJKzqS2ba/Eyjuk09IFjx70i7IPyAo04qJ2D9iD/Wn7Ikbffa06Mudg/ZcfMR+kBy1fxubsbdXVqx7I+/5pulNwh/hOYEgDPTk4LpAJiefDjuEubs2rUXMScXok93rdkb3TP7gYzKn39zY9gn2EoX4BnkKQemcG541unfuQKxlRSYL4LoZ+MCHhhhbqASL7Iq2RJ4apVkgYcABJXKXIMzVTY1a/s6DNjqetk/5rD8Xc/GlWNqaro95xWJ8Kpj3gPysQyn5WGM7Vis/qa5n0Z6QBnlLx/NcCCnGCdBG1sOVpTV7dWbBvj86orkdsCd6e+3RblHHgAfDSKagW2tbfE4uxpIdml23/zWTs7+TID4yKveit2hn5N/Xyekj77ViRHMooBHQaZbp2aRxZufISYGR7VcAkz4CLBGQoEw5iMouuSJXZuxU+6R9ITlv/zJfsOviV+7V8zmj7GcGHt7UdyiOkC1EgWBcApZ49KU+k+QLxwIoiI+d9J1e9zAT0X7gQfrMQbdnkuyjYIoE9PqP97+KIqnJCfgI4N0kAVcHI51D4rR+WJa8+3+Dz8ED8vBEO+MiGs7/y4TUfixpj1+L2flrfd5boW5kySqGV+2Ig3DL64d8ViYJzdQpV0ezEzZyRqXGCaSQ0cAWHny7Az1rbiZhhlb352SyyBeUqYETTZiffVGn+pZcgjd0SyPKfDx9PS3nfsge6xr1yln/JMb4caZovxR3/lr8+m3ZoedkzrbEd7xMeJ20HOH0UESopHvKh8hex5B9XU5/eyHsmyNosSWw+S4EmSzbG/IZ2UkuaeQpXQICjeU3BKbSblb+5LLmdEXvKQi8LOhBK+7G0y6KQsGcb1uCgQoAVOt24O0HnxN/Qxp10c6OfiPTab0Qtldh8r00POflCi8kFuRXZV1DsE+OPnonSAKWuUYa3HkJvn+ULfYrMdm/SlG+OF2wb6aW7Et9E3apO+3pfayxtsZHNaZj8tc1h4PzviWscUQuQGrdwUuQjLZd+NyHJrft/glpucyGf87Wmoc0lq1lrfWA7uEzAtV9cjeOScAy3mQakQ9La2c6yzYkZRZLIJwRyC5ezXgfihdHV7zHAsIAIT8rc3d5RyJMYxFyQvWhCMAEXo4sviD49ni5jAeOu5X24+Hm+4j8/P4+HMsxfxMB7N6QeC9X8vbAHtwoU1J3+s7Cir08PmeP3khYW0/K6mMT0lJz0iTy4wYFwFTWjo/Lf5NdD5OHeiEEUWTyOckHGNr0nQVEQ2vxSwTME9KCZMsQcGFRl+UJTFgnSn0P6hgxAb4aPd3q+wSsgXVrlglc3z7jWz8eTK7awwL2uV5At+VmZajARXl0QtQ497RNWhETjNvDnSP2r5Li7XpeJh/NgIANUhX/MZifCCCACfF3RHwfHcN3+B6YdYwZ+YUeqClT9Jvo72Au3aToPBC/hRG5p1d1MnzVC+0T1ty77NuZ2JzKZtkD0nJeRU2gI9G7sSdnrZ3LdkYm6LnuBTsjQdXSPWcNMWmtBM1n9PvhNU/1Y0f4CfnW1KhhWcXHR0QUEaLEIF1uyFA6qHkhP5d6mU2dq9bWvWnNAhjl4GkVfZ+Y45gkNLVBiXK29uTtNHVZEstWdW3Mai8P2sMSlt9JLdrrkmtYJPiOjJc/d2nTcgIamUKYi54U8T6e/OjpnoLORYskAXvZFiWZ56TKYQYGCMYclTbE5PkPSaoXxvL25Z4Ze/TdjJ1/J+XZ/W0D0lBJyhlIYopJnFFkakChUpZARMl0ScQ6MY2XFxfwvLa+pLhnIQyFPgIQWhNGoAutL1eIySiwS5pXsyQ9W3y8OBNVrvpXrSqZ9fd0F6VZBA0xKFMA8Z62wyzu1naM28XeeftKetW+mcna98aW7YX0vH1vcM5eypTs5fSu/VIM/msh4BUh4d81CK8KITAOgYbLUlSX9fquxupdDdlljcs7GhfSkt7QZ3/SdwQE/iBF9geN1etCM/SakM35fi1A/XJWmkxM++LYtjT2pv1gpGD/JP/sed3r0yPrdiG2IL96Qb6pxlIAIdvkPvIP9dxUBjiYkuUgDcXaXFOaLVOyCuQGsKjd3EcQDL9WZqHGin5/CDzGHwKsFIPyCGPZBG8UmFxYaW6oz0mSBKAkBatW1yVb5FR3QccJmPLtaOpySH462UvHda+nr0zb2bdS1vLnPnssNm4vzGzYf0ibsJ6q07sgQYDDR+zSoPcd5iRrsvrTdndDmcQ78eVHTfcedB7XDsEXVj3ypYIVJJEwt9EESHN8BM2N7/C9LlH/SnrDvi9p+linpHJiVaaiTBKZFzdBJ6dbmg8nm/JulFuoAXBxmaOJ0OCCBW0ioiz0UqOxDt9Qn7Ng6ksY+t5JYAR8bNGniUqtbuak/MVKSf+KlICN6ZuaF0MuSJqv2DGZrgAuFH+V1Nb18TEJYTdKc9Z2SxN0zFld16xHQNuuzNv595bs3JUlO3N1ydqursiszTqdFZ2/umwXrizbg1cWZTIt2iPXluyh6wv28A3WrObtzA35qDemrfW6tM21GTt9dc5ar8yKeF2w8x2rdrYjZ2c6pZ068k4tnXlrFjV0rVpdLGvV8aydEHkNR43JEQke3xkik47d4TQ3hNmPDum4wQVpMZnlqTmBb8V9ZR8jHVvLs4pIiEaIkWPLUgPRRU+/0iRSiOi0VFBLt1lDj4SbNBamP5FGhCf1bKhFwpgzD2weZdnohCySI7IeHuiZdKvnmxK4P5b5/qYEDYKIKLGw62YyVgBgQ7OzDku16KKsKb11lqPLkJvVRRmS+vtOvPlR0j0GnYaBkkkkUUrdsw6Cn+HVpn2RNQRoMKlYY2Wdkm6hsxpo4cj+Q6Pa1rO0Bzp8gaoRkmYD6GAi1pVqJSkru8Qc8ZI74gANU5NJPSPz8ELPlp2LbdkZOd9tem0VNcdK8tVYLxJjxDbtuKTuCWlNTFW0IRE9smYi0FWOLPjakTfTF/OEGpRiNoG9XoyG0+81/PX+uKQ3oW60b6s+axvcsVYBvFnmKWuTrFGiBShP56Xf47vuO3JfZ+Kbdi6x4cQySJN8x3pdk0V5z/8U2KHTMuFaxfisW/H83qPOBYrOq2uyQExk0sEiQUKQAvM4JCjIhOM4fc/9EiGulfZnjCspyd43KwtgRgBc8tqcVIU7qGMpvx8BlYabRA7JMsInIyWPZ6E/3WnReUjj06bfkIx8VnPYJuuDXfmY5xUyc9wM1byxhMTC98lBmZHJcXtuPu/LPmiyCGBYSICMAB27RwoCWdgpz75BSiTqC30Oy7FfkTVFNB5seCfe/Cjp3oOO9b3tghReXs7tWggy+D4pIUuDxj4y3xbimbn6SCPLciD+yG/nNFkyiTxAInMGs4isEC/drclznywmKS9nvaVbEl8a52ExAVnnDYmiTKTAuHzeps9O9xatVURHTVoQe1NGMa0v1gMeMRcmkidt6+9Kmalko6Ph6FsO4KjOhdYENE6S6jTXPBnTb8R4MPRRvRLOPiqAIRi8Eb/ul4panJPF3kp9T8ck8gXZEEyUFmFBwKhB99qkZ6K9MG2ajgyueJnBCvm6mLQ09w9ZPOxf3HItgjYiy4fOQOQ1+r4xXsXwmIB8B7gAJMsfNFep0T1jCvKe5ydKS51ThNueCa/xYHsP22MiOiHAnRDwqJ2DtsOcZztUo4RVo85BiQZK1zV0reh1wRrlj51/b8oe7aFPRrkA04SALFMVTUjFsFPSfuRG1vdn7LvLa67R8IupneIbWz1jSprLg0VCFKlF8BjrytJoVF/zYAYf6dUD8Po9mu9OvPlR0j0OpCB+cGpDhgvB8WAEaMDk47FtgwyA4q6+ZX/S+o6Vlku+7k4G/AsDk9Yqc80jk5LESOtq+UeEj2uTOauPL9v52JJ9NbNlX4zLLLs6Lpq0s1fG7OyNKWvqntYEz8lfmbPD0lRH5IDT8AIQES0FSARdWKCtE4Oy/lcVL0pzhORfQOhmlK7NK1qCCCbbiYiuQWg5JDXbmrxTkBgUBqZ2KJG7U2l2pS+L1qxmJOeAifwhDzro2lCFLxLruUYENvljTWL6evb3yeQ7OkIxXd0z4Je2rR6S9pcWqhMR1GCzZt3AqgCj55HpS1YG54FOTwgMAFTjVSffjLU5EoFbuW/d/xk9YwuA03u2aXnrLd07fhgCpC62bQ3SwA0y3b0mJyYhINccUDypQtdjHyLFqijmVJnKCujzdqRPmrInYy3tg3bpyoA93z5lP5SV8tiwnim5ZIen5EeOh8h0i65XK9+6rn/RKrv77enhtCWFrSyCeFf8QmYNtIXVJPJ9dvqbDB+PG0inwVZ6AXTkeLDBNpvb+OSBjlDslgBG6m1W4KJCE113SLtCahG0JZObbLddun4yQhpLjbc7ys/0pqwxJnNHppmbMfoQ4CGNG/qydrp71r4zs2OXdSwBGQIQr+k0L89u2vdlFj4eH7eargE7lhi2470j0hoZaZ5RaaxJSWZ2iy8ExhVjEzjx9KFk3vMuTwkQpKd5kw7ABxOKObzjaJl4jynJIi5+JMLBa1f25Fyb1iey0ozykSTBAUdtf1aMhbbEXNbxYt6j8ktJZ6OpyDH5rERFawclUAjQCEQnRuVrjYlGyeYQY0tYVAzJDMMU07kJ01OZ7ZQ0oT/HkEApjXiSMugidmhz3VppGIIoaM+axLpreLKCaJjp7boAmJ6RJG/KGUYtr7AIzuh48ibPCBht7CBPZgXABWn6GTvZlbGK9iE7dq3PTlzrtVqN97nBcfv81LI9t7Bq/1batT8LBBoiT8P6sXwJKkDfn1m1+8YkdNw8lq+t8aKHQFXPsH2hb8Q09AFHWEQkYcgtcYJPPJGBzwU61JrYxgGnt+zFDDV4PqGajjVBoMWmTQ2VE2t9DATrJWg/loPRdmxYdBGl72Y1Wu/pWGps1MssoyrV4X6ZS2KCw8lNbzKI2XLmypC9ovmQcPZgDEQSNmFkiM9pBkJdlV/NFuyHqQX7ejzU66SJZPPVpBdGre0esZOJcYF7UqbUvB0bXbRj4zLnxqWVMiEgQ6oaPhECAK13JLXrWTFHpnRPUzt2f3rdjmTW9b0YXEx+Pi3fq3dVzJmTL7fpfh2LwW1sOenW/cu0a4bJxfBo0EBUp6bkXjAxMWUP6FqfkaC5T9cjvM+OZ8Lz9G7wKmYSPid6g68JHU4s6R7kd6ZLGjOZohn5vtKw1DI9NSGQ696otoyJ16h7JyAUgkLSXDIV0Ty+AC0QnpI5fFIAqeqlBXBawiRlpzRWDZ2D1nojaeeuxe15WRE/HFuyX87l7Q3NBX0UGHeEJsSc4JvRzRX/jGhsrcb9xGTe7pNA8Gf28oeyJuirJ8vk9PVeu7wcWlCBqbAuCQpFJNw7OcICM4miNTJ4LlqLCxk/7+fLj5rusXkZtJ0PggYdOxtrATHEWJGdkXPIATokl+xzjSMRzVdkpzd1JcUEBWkDMbYIjXNEjNgkpmvumLJHrg7Y28IqQAvONg0xtow6KARnyLdkUyLv+Z6/OVZ8bjd0H2/pPn46k7fvz+Ts65PL9kR61i4MjMuUGrGqjqRVXE9aLX0Prk/7ouzpvjX5ijLxYjJTpbmOjOXtM5k1+/sJ0WjWDk8W3NSq7FuyVjF+68C6TMxNaS75Trr/RjFXUxfJvzLpegTi6/LNxNy+CZjgzTC7L8T40oLUaCG6ig91SNxLAIPAhZu5+t79XPy+wQ0x64qdSKzKhGXnRsmXS44O6HPMVkkfOvtUi/NpD3Y8U7BDNMmY2LADsSlZADNWERewuqZ8Q2n9tQlrfG/Smi9PWNPllJ1pT9rFeL99cSht35yat39ZLdi/a+xY0qCrjyxS12IkQEQRRcp9kLhP/+2s5phlf4okUfWgU0QR35MSgAcyMk31jGzzQcMej0swyIduujFs/z634/OFXxfKMgZCk0EeLtCrWGwfr5X5TTwQUulY+H4/T37UdE9B5yv2UBloYMvDlVDZHA+bYQCcDtjQoOlzQPe9yXlr7JUp6AwksIlxPc9OWqBRTNR8PWNPdQz5AimTTdrUDrUQdwS7rVWdUZ/I2c4Vdiyv663rvHldwrfV6bpLIrrGRIBkERmpLJ63XgFZFqK1a8Z/P7/lvRt+ODBv34xN2FOdo2H7SVwMOjLvvuIDYyvSRsvyUQren4CFdyqo4esBlvsFGjQjeaWVXTmPZJ7TZzUCMeYkyxCH02t2SADmlb9ZFyQZwJc15IMRvCFJuJHCSTGZeDExZw8909fkk+VDLUcBkMAKi//siiCR+aAE1TEB74iQcUxE5LBaflVtck7+3LyEzKQ9LnP766lZ+/HEiv3b/Kb9MRs62dAKioAGqWAAAGIhmvFi3KJFfYChIfPp1TC7kPW8091Qo5Iysuy9I/aBBfJMPC2zdtzNZXqjE/2EMDUpkXeqfdx+MLrpSwRcj/NHlpLvxBGxG97rzyDMnW6CLuy0kD9H4IUk8Dvw5kdJ9x50mIzMRAQ4jb+Pov5Gq2F+sr2Ggj58T2I8oPuizBkKypJwHCJxMIxIGqBRJmfLlWH7dt+YA4Usxd2S2GBTBkxpUa8r0qh5SUSdVxMCIRk3N3Z99QIrBfsfU5btbb7FjVd9DrkUFVEyYkkEswFKzCOYkPy+H0yu2hmZWVS7qh5dsQPDyzIFc55NQYQQ85GoIAx/n0xBdp6fz+zauZ5lSfoZuyR/9EJ7xtq60tbcM2L10q70gauPZwSmjLV0jdlZafPz16fswrUZmcMz9vC1aWn3Kbt0fdIu3ZjySm3npJmeTG3YwzI1q65La3XJv0NbCuwsW9wvVVSpQTog6VSvz/DpSIV7UAKE/gcU99Gt+jopgEBjzev5KA3ou1+YJxDFUDKHjJ0+D2lPgajNQmmMkvwtaKtU0PiJdnNW3CUOLWjSH1G/5S/qojZ1jsgXXrWjElD4j76UIf/SKxB0ztiT8hupR8O4oz1hmdvBB+jcgipTBLpop4XTJw50npcJR8PB5dGKQKePHZP6lx0Lvk6g7ymeDHOfl89wKrXk4XYCFJ4JL+DRyL5RGqLt3WH714msT4oXHNoEbIIrVX8pBFsiHUjyTmgi75Fa+fy9p3zFLBC3BkWAA3z7iU2u0KbUZD4n/1S/QdK/M7dhz4txLraP2GlpDQ969LOQLLABungA3ml8ud6s/ZNulKKx4i/Pyo80iNwm69X1e3RPXaIenV8KzaSsvEw938X0GRQXYwEQ1rAoX0F2BovGdCX6Fx37SHLFWtjRIUuARO2j0hwVupcjuhc2ddZ3rdv5jmXfC/gbmW8RyHge1r7Y2MuzugAke2F/eQuAxxxS04BiPRDfR4OJNCuu265XKRNRgGZ7XSYhOlF/s6tYz8XU/3FhU8JkSJbAih1Pym/WgBCYqu7btebhHWuQYGrrmvGCWIwRDVt0Zqf9Wm5TFMUIoMB3YZcFW5t4/cSBzgeAUC8Z7xpwnzhGXR8hLcNcyvIGaWyJ4XMdM6RjW2U61qaphREyUnwNql/2vwDY2Ltq566m7TXNIwAly8VKsok2BLzCit5v+KIpfAHgqJPiTTVQbfv+IVVo//3y963/6HPajGEXwYjUO9T9yZUwuXP22kTePv92r53rGLO2kZzvZPYtKJLaXjMysWun5Vud7py2ryUW7U2JbLQmGzyp4obmRTrj9Ica/T4Ezky+DMVl9TefQ0h8zDm0BefBP8UE+0/dy9OJGQFq0rcc1fayt0xmmg6oFrIO9cgk1did7li0tj/02j8PLvlvyd1c17BQcNZ3R3hJP92Bb1GCNCfcaF6vdIahojHHuZTSDyGEpe+zFJNviCgAReCDm9fcbuzK7GfQKE+ow/XOYnr7hfaUtfYtuCVDhgugY49cs9yH1r6cb0B9WcchVNl6g6nKplLICxSXfTusJSjSugGBCAPdpwjBv3+O/2/QPQUdNnW0TQXmAmguLZkjMR5bLFbFVnzv9RTEhAzg5Tn2q41ZRSasQ5F/WcNWFGfo0KSSjqpIeCRhlonGLqVLDTUhdQ4AR0l1Ny9dpcEcmgQxBjVNdlFjqDbdQyAOlpDYR2TQoEXZ/MFpWOcHBYAO5ieA8KPhJbvYNWqnCdvLp6OEH11gqAXDOhx96GiYcaYjbd9MTFq7kMNvuRr/L22vWnFnRRI8J21T8GQBbg1Z5UiD8QmZlzSGMtkoR0frsAXdA8DBp8XfvHh50JOTW9h/1svexF07LsAdzVDHMmtV3eN2MT5hT3cMWLd+i6+UlW1GNocDwu3uIJzEpg4OSLfif9+kXfefqOHpJeb1fUThO92qiOdjVZZNS6FVVQBFTsR9f61z0tp65ow9i6SAsZm5UW5Ec0/BS5sfu56yH2aLcjV0sh0JVPnqts3ccp+6XzdNdLIwbftIc+mkP8r7Qu/Emx8l3XPQhf1hrNSJwTR+AA+rkwllIyHNmdlK6IOpMUSa/2o8b2cG58QsYeH3FDuKxUzs4Cb9iw6rn7uR9tA0oKOCk59UjLOT13k05oDaQQchmd1s0kSVQ86AzrfJiIHdDMH5lkYm88FJ0pUtOERXKVfHVhFPOdJ8UxORzZGEwomCfi2WsfP0RZBmPi6T6XCq4DvaSST+7PCanZresrrYlLW+k7CXMouW0r0BvA1dH79ny1cxaewkc0wSfa9NMbSuIzdkABaXdb+hwWdRY4vRhon60viaPU6V6vZJ16owLlqD4NP9shAOCfD1Y3PeLOXBq932th4fk9JbO4vcjARwmOOaA6pJEwFe0mRAoXJAaF8VanbKghAQIuJe9lPUkx3zLzwCpRyl0fW3vvb6Kfjs35IQoKR9LWU4yIAZDBUFGjpzdnFkyw5dT9s/LuR8frfpWwDoKCHo+zd1Zk0EvuSehmOenQCcyOf1/76Wgz4WPh0MjeCG3BTgY0lLwrobW1lJV2k6fYgUxM94ro8iNtJyfVmrTxckDdc89E6qU8VYySo6x+zF0VVnepgXc8PXbfCq0UTwkU9+yDJH2t2RdH+8Brv//YTQwPSFCPZQfRrpqq9cyGIp4w+9MbdmT12J28WOlD04Lo0ssP1t/5bdL1QcHBX4khIaqXVvJUxfuV+mV4NZrPMUhGAibatiqqWtZb1DOIlpCLPqe0CYZU+dvinsrFuuiAAL1/3t2Lo91DVpzSkxra5zZIAoZ0g8pr7kofiiNU+u2LGrHXb63U77t/l1ByprZhTyQjhxDcaB8DqCEVCFVlQBNNzL7RQCFv8H0rk5Fs1d5Px6nxfAdTm/91+OzNsjtGYbRkht2NFBuQ4yL1lWqY/Jz6O/YCLjOwq4H7br+MBj9moeNoo517TcI9PuVlSZwvOEel0eWLmNLz9qureg85HXKOg1spbABwPjjE10SdLbpZcmBR+DNbQv9s/a2fiKLyzXkaUwtOaZ6OT3HRndsOPdafu3sRX3bXCufUL0H4CLQBd8ADTJ3Qw6v9W97Tdr0JRu1uBXSFtrwpHGv5tYssevJq2ta9q3Cj0g2/MzhOkFBpKG6XtG6cBz3XMy8abs9cmi37/O6ECKEuWoKsZmVwBB34M1mWZ4RUs7OW9UT5N6BM27y7v21Z5pq+9dCmtxaV1LvlHjsHyjPgkn+XUN6bzVxoet5UaX/XBywU1RrokL5wzKpPhcCBx6QxIDoEM7YZXo4/I4/HUE+AhgucnMuWVdMP3c/6vjS/Yo66DDi7p3meUaK9LOSP5ukNNXKeumNTHuASOSnQny6KR6o7HROen5gLiCpyJh7s9U5i3sJ0b1Ew06Bkes+z7QwdC7Xjp81yeD6Nzn4zTwX/Gk3xrC8LL7qQTFdn1Mt4qutP1uZj0EAvZAF7Tchw0613ACAr0VPNl2z5cIfQOy0rCYelIu9sOhOY+qsoDOFpgHBraMmoy+naZvXX7Lup0dKVjrlbQ9fSNlV8QtSH0WkX2sdK/eHESSHP5ZkT+3Jm1NiYwFmdBoVkDar+F6VlqgvnPEKFeOlqDPGuYZ6134SFXponzJeTvx9nV7LjXmkVPyWRlj900hTAshMNJ0ITEvgCUy2YIl8NdRpPUAG+en0Qg9HXAh3lnetEtXe93ffR/o2DUi0LXEx7zuCmNE0FQn0wDoxnUedoUDukgj7wcdz/Mp6P4r0O1IjpdyYgSaAYbw96WeCWvtXrZGgQ4tB+gaZPOTgHxIIKzpGbM3loPEx1/YA51eePvhgo6kWToJSSuLW/Ej9oOOeabsHH7SNd3CM32z1npjwrfksOP9SGLd9+l5NeJEzloz29Yi07mtPeXFe+gOA1Nxz7s5TCeNmRgfDUd5X8Zsfh0tqOP0bETzvtc5aKe7hzQu83YyU7KjiZInLVNb5CClK8a2rGF60w5exeRNeF95likwx1l7ZJx2Kbyr15COjykdgBcAx7yVj7tL0OlsXv4vOjfdfRAe9KV79IpA1z9vRyQgWLhnre4m6PIyNcftjWJockKNYB8b/HLNCwGlT0F3B/pgoJNBU5KLLnsfELE7+qJ8tkaBrl6MynYWsjYIEDQKdIf76Zc37o0TmTwG3gFBpjnzIXIwlIMhfp073NsHJQAdKISpw3VEAp078rqHhUIoU85CPTu8v0xxpGtjHvA50UeqU8hrrGLvH+tQafktg3q+jmH7TmbRujUeMI6rMZhdrEoAg/FgV7R/rAPQEBRWuphM2dFYxmonN137szxRJaK3Q6U0amX/op1ITtipzqT9am3T74vgxTwngnm5BgtzvPr8MEaBfM4IRHAsdLeg02XQdIyhRk8+rIfNfL3yiRv98kFn7Fh63Y5LKkSgY8sV+aP1PaP2u+U1N4m5XR97QCfhR9L8ftAJW+XnCYICMUWpp09BJ3of6LZlIG5JJkkCYrv/erlk57pGrTEmE61/w04MBdCREQ/waOB/Jjnj/ombW4SjMQEdBDovcyJweCTyLkEH00Sh8ZD7p3NzDZ9gMYCuSdca/lwqazs0yq8Xt7xozoVu+XfD63ZAz3KSPWZIc/lbdAJCQ7H7oKVjxHvDyRp15ikW2IB5s5whz8jYAbjfp7L2YFe/ADVmdXMlOyw/kc2rVCmjd/Zx+Y4tE1t29MaQVbzXYz9cLvg6HgKB37OMQh6Cq00YlPw4ryh2E3TMlWs/boab4HnvMDYfhBg/Tsf4ARKdyaiTymkxdb/ak/ZWapSJqEiHqCtbiJr62KMnC6E7Yy9PL7jAoJGod5otgw4Qa3Y/Bd3tFIGO11tAx8AwyQId6Vr4SxtiNHyjn06t2pkuko5lJlHjZCRkxLOXi13exxLLdnFgwZmbc2JGAi7qYQAIpzLoXAN+CKCLQuAsaQlnfo1gzgroLChr8td1LMnVMDgC4eX0oj3ekZagWLTDfcu+Y4Bd7TS4ONa745tAq8ekmRJTvtzw0nzO/cJ5XYfAJcPE5nquK4Vmr89v2WOdw9IME3Y8nbVK2Yokf7ORlnSz48kN+Y95gXnRqnsG7fnBaU9GRkssFsWEnFD3t72mk5KNrDmhL2EUXQ7MyeAxZ6IPCXT4cOKAPdDtCDQs5xB8+rbM6/rYmCeJs21rD3TS2N6gs3vUXhyd8TEl4or8Zsw1wbeAbi96qcf6FHR3AF00OBHo8OdI2QF02O4/Gl+WPzfuVbqOy6dDCgI6qgE39Wky4sv2OTnfSErqawbQheCDgw2+4ZW/PxTQ3Vx3ioC3H3Sovdzygl8PtpqSOoFJ+nXs851D1ihNRlk6KlSfjBVCPz+immKyI6ltqx3bMHo3oMFeXgw7ptFwqwIGgp3o6A198FhX2iq7U1Y9kbMT41v2D7FVaxgzB3JFd95OpdlVv2KfvdZjX0hNWI9+R6Apq5vyaKX+Fo8KRHpDVgmRWBhSgIsy8qEwZyIAB+nvO43NByEfP40Rl/bOSdyA5hkBwJLJ94dn3ISsEujYnEzFNbrtuHAdkpksTfeD1JRbEJjZ9E2MQAeYsDGQDZ+Cbh/5BEqyEYAgAoeJg/kHd2IOAgpMS5OJiOlDlgRNHmiLS8Z8xVDJDmFekjDcXbDT0hDHOmbs61Obzpw5/Qgtt8UCs06MzxWBbq+j612CzueZCS+Txx1EIbrH84mZWDticXlr08uMo/GQ5GiuZwdm7Ux8RgJjxRoGt7zc3BExFx1CKXtwgErRUmWtA5N2safPfrWcLydxByE1rLH62o1RmdeTVruwaQ8Mr9qB/nUvK8HudPxE6ovUpSWkeoasuT1mb+j6ANdzBnSf3KvPhRMDFMAWkhfICIICE/Pcftw+Br59XD4oMX74dMyLp+FxM1LfBQ0kJuPPJ1esNT7m5fxom8VePkCHK0H59br+OXumZ8CtGgQIAs9NDZ0Hnx3XAtAxP7p1HRAogI7lj08i6DBXPijodCgT8VxyopxAHGpWHsZkGtmwup6ibwCtbJ+1b81sOVNT9ckXr23VJ4HJ3TP/PLSv898F6CAYx3mwDLhbQMebCHQbBc9wIdeT1lS06yJa+GcxPhFNSgo2j9D4pGQHxFzsk2PnhC8n9CxYbVLgTGbs8fiQvS71hrbs09A8ey1lrVdHvDAS+/UowFstVGJS1nVL+4/uWkW/TMr+CWvp6rXf6zcp3RamaWQe+n1qUMJYRJHKm4CDOUN3WH0OUPTc/jvRhws63ZS0LDmnCNhfTK/a6dio1QxnvSzf7aCrHZizr8hUlsvqVhCWhgdT9oGOJY7bQcfzBi0YIqZ3urePkv5HgA5GYEAxOb7SN2at/QteR4TaJIdG1h10DbFNO6sJqWmfsxfmdv1YAg4hjWrVzUz8rw8bdBHTwbd7oIN/RA48zCbXdEKXb2kRU8kEwi/DJIJZ/jRfsi/3TshfmfRczEOjFL5lx4RZk8T4sWtz1ioT+sH0sjVd6bPnhme9JfD3hhakuUasYYS8zg07NMBeu13v+Yfvc2ZoV6CTcEqkBcA+e3Fx1f1iHMKCD7aIsbgNcBFDBm0QCP8IijJObh+Hv4YigQXofLAcdCUNWUhje2Uub2d70hKwy6HAkny5CHTH0kWrHpy3p7oGPSsFkLI51kGn59kPOq7hmvlT0H0w0NETHH8I0KG9nkqMWvMgrZJCfX0WTgEdjSXOkSIk0P1kMWyiJDs+yl1kTY60ryjCuAe6Mmj+GuK3fjIRIOPP/dpOh+gPXYd4fpl8S9EWC8HSNpB+zr3+en7dzsnHYzG4ajxUmmYbEJXImvs27fRgwYvrnk7M2fnEtD3SLY3fQT2XeTuWWrWTlCNP7VqDAEeqV3X7mv8Gf7ChJ2nfGit3oGV8JQdoY8A98gx/CXD7KWiMm6CL6E7j8kGJ3yMEXdPBC2xclElD5S7M398vFe18d9prvFDANgIdxY8AHc/+ePuAZylhBREX8LnV/wjM+K6Dvwi6YGJ+MkEnpvw/gc4jURJgBEcej6WsaXDJM/QPiIsOZAret4Dy5tSubLgxZz8XFzNpuyWYifRcEoYBnSYBQDAxnq51l6CLGMVJ9ywGikAXAS9wlbgc0OlZeE8kNTCbqEBmZeib/c+TS/Zg76S3jD41wO6DklX1rFubNFZd94qdlOncpmelvXNV14w1UFV6ZNX+Nj5rh4cEMI3HGZmV5yX6qbvSDLN29NnX0+O+40FX93tcz+qdxpOOqCgYxgDmA1CBGQPdDrTouXkf0f7x+O+SX5MhFOjgAR9HzQugYw3yjbWSXegekf++6CX4HHRecWzLF8xPDs3bY9f7PEsJywbQIVQ41/tAB9gi+hR0RBUD6AgO3AI6fQ7oGEAYky0fn+9OeS8z+g5EoDs+XAig6xKjXZ+zl4U4AEwk7CboaHr04YLOT4T5yF4b+WkR6PaCKiK0WqRV/Xp6Zv+9voP0geXW6ewZgPfC8KJvSzqXXPMILQ1RKD93sidrVbFVZz5qnVAFuSId+n5jVlZKy53s27K6rg07J1+wkaphXWn7YjLlO9kBXAh8ALZgrrsP5FQGgAhmjHiT++f7oNEDReP1oYBOpyTiyKuDzsdS4yPQMX/vShtf7BrxZRX6G6DhAF3twE3QPXwl4Rt1AZ0OdxCTvQTPADkHne7THwgm4lUX5Fk/Bd1+0GlwbgUdJk5YWH60c9iaJN2PCHQPpKkvUvTwMaA727lhTddm7ZeaMQedTJWd3ayGlk43dwCdJvlDAZ3vaSOcrhfmV8y6BzyBkecgUrrXS1yf6z9fa0PPrRWz/nxId2qv/GQgZ4/1LHndThqdHKWS17DMTQGL+p5s6jwi+oe+gh3qW/e9hHS3oRkiRYzIcjl8IyNzdcT+kA25n7LiNagakg08NI0Pyxx6dYbnUUSAzAGn1+hzP5jfRqTnCWMWzNE7jcsHJa6BtuXV9y/eBrqr+ugm6Gi4ubUPdPRLWLQL78W8vCKbduGfCHSkgX0KujtQMM/CIjUpO0jeMDCkacn/2i2bl+IY/GO29VzqGLJG+TDUgnRNNxKY8pSkfHNnwZqvTttvxL1M2q6c8m2BLrSYug10btuVPgTQSb6ySRam4VwAD+YtkyfxSuo68BxwYV0KwHEbK5vcX8nWCkXLimu4727979mrGXuoY8qa+rNW7RkZtAij803oMkSjzIN9G17nk+WBms6i1XSth2hlbFb+Xtr+qHOhAdjbR04jSxYw4tpG3q+NTwnD8yj+OGXiPQLE/2DZI7KXea/nCdr6wwFdQeflFVcgEl6ADlPxhkB+tmfEdxrQS7w+GUDHqzcaERgfvNxjHRpQorksoXAazkVNlrDGGIDlz+NCQ6QL8ln03Z3u7aOkewo6nzihDAoA1Ogj8oUMAv1sEPXO37TT1dczGrjHOlK+cZXGFNS7JIhCKhgbHSt716z16qS9WjYvYXSK7hVtRbShM2nwmRQRwLjdV/nv0p6m83IQehW4+CwwJOfm+fTKdfdR9Jl+bSsCAsyS1/FL62yMDRI7sbJjP+me8A2olC0gm+SBzIYTOynYUU35QVpNUXq9dnjXi8Uef3vALlwZsD+Kawk8YbYix9Bvud2C5SXguAtnwHW905giKJwpuSEHmN7gX/kWIuYGBg7zxNodBEPznHcalw9KgC0IJl1XJq+nnbG4rcnhVqgHc6p32A5nFryGp1c7i29bMwVwqfrWsyCfLuml/vD3eVbOqZPrjR7QhYKEnsYWBQcx71zbD0SA6PX2+/qo6Z6CDqZkr7GnpcKwLMbpLaCjC+aKg65o24BOX8/r6893ZRx01Blhq0cNmQlDa97K6ShNAa9M2KuypzDVCMCwzzkCHYPvsyliAggW3A3oXFBw3/hrDjjoVk0A7ALBSNH7QKT4ch+ALS9zl1tblw+IlMdcenNpx57oHLO23gUvT34gXbJDqZIdk3av61/zJpgsD1CUiapZNckVT4F7cankET1nRDHZuu7DyyLoX6wHv2+4Ty+ADf7bAx2mwD7QBbCFX+NZM6KALjKV7zQuH5S4LjLWQcfcU2cF0GFy6vY6dQvV/cN2//iChOytoCPpuaVrwS69l/CqYFGmjoMOK4YOIQIe98jIwlaMK9djzqX2/Tk/oaALEtQZFmnH6Eja0n4W0DHhO3kNl74i7/CLPQJd/6Jv30fK7wfdsf6cNV2dsN8uhAnwRFqHL5VWbgWdm4B3CTqISdtPfBa0XPAbAtiC5OZVR+2RFzoSf5Qo7AOfFDcsu73tgCMi963prLcIpgceBWR5Xq+K1S/fbYCE6JK3/qK7Di2Cq/uWrSU5bV+dXPFKWUQsPcCAbQ4zl5OXYUZ8TMYf0ENBA+iN36je8DxlwQHTspQQzDE9BaD1ANHdMS3XZLo979MFrv6S8KGBPrdxXdNem0zZgdElX5elxDu7DJp6Q+dd+uk98naPg85LTIh0OzqHfo25L6G7H3QQz8q1PwXdHug0GIiiMuiIOfL9FiXbNEasxXw5Pi6bXqAb2vaSe5hZFEc9JBv/xGDRqw//Uga+ZyhIfAM6TEy/zkcAOib5duLct9Mtx/g10S5ibPbIyRLaWV33RfMpfcFu6G9MTFt9PG1VQyt2fKjkYIsak4RS6zsC4Y4dk49D8ISqz7TMqo1PWfXVhD2VmrA3dR4ivpirXMNLe6FNNovSeEWZtfi5MGSIWnJv4b70KuLvCJQQz8H3DspII+qgO43LByHOF8CgN2gmksMFOpqEcr23V2gZlpJ5ueRChV7i3j4sqeclQVzm5aW3u328MKXdpfD7Ez/hHwpwDjqNN2z1PtBJm39iQedbeBgEJlJvmdSwpB02mlKcFCYAdM8kJ62+b87zLn3X9UBO/kzejgzTZmrDGq5M2s+mtiyEkHcFaIoZrJV9EM4dyDWR3twN6JwpxS9MaBQ4ge4ENO5/j/T3njknKi2v+ZYWtDP7yJ4fHLGGrn4vMYivSo+GagCXkI8j4j2fHUXDCVXU+jzeQ9J00S5MbFljcsbquwbtqeFxu6xroQU0COJK/W9R+iCv6wlwoTULQSyifIE5o/vFtfNnK5M/lz7z+wbA0ZqDDr7T2HwQ4npErXEwfB0T4BHNZteDLvH6nIRoPGN0JKoe3LZqCZxaSAIIzX8qtmCPv5vwXRvM9x7oXIAjyMuargw6nycR13Z+03GfONBFgZT3gU4DQSAFw5CKW6T0kMwK6L45MG3NiVlvanGM9lH4NrL3Wbeje2fde1P2v8c3Pa8RGx7zdHd3TYPPAOsDXUZYd7AB+jvf1wcjJpiJRIJGjBmBju90CML2vyRSnvgNmjmuN9+M9dtDXQPWIODUpDdcmx+X/8om1Bq0nIg+d94sZWTHl07oCoumq0nkrFnC50ym6Js/abT/7OC0/XFxyxZ4dt0PN7wtMy63syaQU2GMQkaRr8Z4hHv/S6BzQQHnChhuEt4F0wbQUTyIgdAosp4p0DEmAOiVSfnosVF3HygfzxhA3jJ5SGZ1fM6+emPABRVpYB691Dl93QkQAyoNMnPtz+Lf62sGHmCWv7/TvX2U9PECHbOq8QIcVHjKaXYxgJDCVO5lYL83OGNtsWmBrmDH09tWmWTBuOi7r9l1XS3QfWe06MsL7liD4h0ZWB6pCoAL2iZc//339MHpFtCJnDFFfO7Xcu4tfygiL5D59jkXsfVoVq/c61Ud8kzfkNW/02mN3eP2UEbP0kXLqgC0SgGNwJGD0JuEsD+uYP+g5z+a2bYmabyqeMEqO1b0m7xAl7O2kXVruJqypxNT9tpcycZ0PQQR97laWre1Tcxu2F7WgIQbgomb594Zo/3Ai54tIFI3zfYfD1b89WMIQDD+meH9oCNRHSH08ljWE8FrBojU7npvPIimmUfpbS7Q/ZM0IQEj9gUCVAcdICb7h7Q7eKwMOl3Fn+FT0O0Hnf6D9JUmImi7UMxVbKHBAnQ/lqa70DXm0o9CqbSCahzWa7+0HDuvr87YNwU6CcOQfymz0hMN8UM4d5mh/Ppuct5+Tx+cfDJ1jUiChgmFaXUtUOWCRBcjmqYvo/18aG0sM+4PwP02v22XevrttHy482N5abk1O3l91S7oeZpiwaT0XncOuJJMrTWZkCuiJauf3LIDydAvnMaVTRL7dFKtiBWsOrHuJeYbr43aF7vG7XdLW55gAIMSdHA/TiONJRAEk+YBQO0bqwh4gWFDcCWka3Gs6G5Ap4vQZ4JaJQ46wvwaq7wsHtbdXhxdsTOd0x6lpWtPRVnweLRWoDsVn7EfJcfdtGRrj4OOG4coFLWpZ9Nc7Jd9vP8UdBHoGA2NBVKWt4GZyUQJhUyXJFUB3X/MFuzi1RGrHVm1g/LlKFXeJA1X0S8nW0xa1blsjyXmvLoVx3u5Om+nLE2nk8L/nJ/J8CKyd7yvD0buD/IEOg+bMFkXdNMGdRqR7rtUEAPomrq0A3RVb5b1Fc7/T5cK9uDglNUmxuzUSNZODqzbsZ687/g+q+ehmFBFTAw2Kik/nLP7rw7K30vZM6Or9oR8W2plsnxAP3A29R5LbtuRhCwAMWetGJWCTc0CZIuY96H2jP1kbNV9IMaGgrIeV6VsfUmgYzcE2ov0Fd8Gr3veJkmcRAUZoJonb+ayrePLhV3vhmkBSMjz3Ac6zctCoeTC6EvtQ3a+R88Xp1IafpzA1rtjtFQ+Rveenkn7RXrOQYdVQ2U0v092dOjcHgvwa/lp98hBJ5clrEF+Cjp/iaQSk8LaEs7+spgZk+Py0o59/r1hzzw/SsvgIZlgsu+pLULz+pM9a3YuNmOv6ZQwdYGJLGpCpVoAHbyE5Obad7/WJE1ckInmdTl1ciYSswagu9YoWjEnf1L3sVLctNlysITnILjx0siknUuMCmhzDijaG2M61VKqQa+HuzaNorDs+j4sM+vg5bgkf7/9PLdjf9ZjvaFLPXY1Yw/Gl6UN6Uibt/t7ZXaLY+kD7sATaCm9R6usltisPRaXzzuRs2v6LUsTixsb7jOHwdczUEJd9+rAK+8gJ2OIgJYHtdiFvyvAea3PuwSdhFZRHEB7a8/q8eDGjo8PC95kH53rWbT6+IZHb71JDEJI/uvRYc17R8penVpxiwHNnUM4wDMR6KSRw7U0NZr3YOFoqnzuy4v+dzX/fx19bEDnmkeD4m5dNEg6JgIdrMvgSmjbVy4PywSbs4rRvBg252bVicSOVWlSKvuK1tA5YT9bLvqCaZ4TeS1+6STxEH6UTuHX/jBAx8Tp5IGkLUKNTl1IICQVSVe3RWk6mALtAtjiuof/3TVkj77T4xn0VZMClm4WwXEkJt9FoKuUxHggrb8n5LsNzVm1wNZ2+Yb9cnZpL3BAsOgt2WHPtk9by/Vx/X7BKoSk/1ea7z6Z295iqmtbTGveLL+NHM2eWXuwe9K+nc7Z67opzkEAAjYtFMX0+s9vGum3zlINWjpUscbm8F34IoAXan7+9eOHpbCucaJRf5QChlvHs/0qX5I/N+JFhZsSJa/XyaZehFLV8LYd7VuyU1f67VoWr1RaTvdLEgD/FiUM0KMh9Y5rBX4KfvanoHPQQYCOgXH/QRQGSKDTxAI6mILFcSbkO1dHrTkxbVVjBQcdkbuK3l0HHZ1Kq7on7B8n591/oTxCkN7iI2GBCeJcYZEXSXj3oNvdWpNVGRXF1YU04Xrj64RzLHjrLwQAJtPb4q+vXk3aF68P2Nn2tJgpa0ekyehLTg/vSpmVh/oAnNnBiS07mJqzI9199rnepP1Jmqdf2pJn0KPYsh4EML89s2tPXB+xtr5JOzw4Z4c0LvdLOpGXWR3ftRoBj4Xl0wLh6aGiNfcu2pn4nH2pd8bekCMkZeqRYXwixIerZn3mvhtaXFrN9yWKAF4An7TeXTItoMM0RyOFLBL9LdBjobBO2ZDIWFti1TNQAB1lLLyn/MimhNO0tV7rN029C9I1+c6MN6CjvDzRWEx/ruO8pOMCT4miefsUdBoiDR4sC+icb+XQM7E42gBlQZ/BcC/HFqwtNmk1GQFumDxEgU5mB5Kdmv2ViRn70kgouU02vVe30omRojBWcLjRcnc76PqtHPZSac3omFO+ac9wz0pyL8ofQkiwQC082T9nsnbpypA9JjOPgrNnBmVSSmhQGo8Wv5iCmMgnxFy0JD46tGQnY8PSTHF7bS00y3CdKuBp0Gx9TUYFDmAAABkqSURBVP6i3mKOUQ36ia4Ba46nrD69bK1ydI725qxBY0IZvuoYGR0lr8NCxn4t9UFlhj98LWU/Hc/79hiigNzvQkEm34aeBU4tgw5tt+0aDzNToycJ6fvg7jguH5wAHnOvYfNnIlJKDZhHhoZlYk/IZ13zglP4c7S4xvSuGypYhayZL8TGfExwGdZlDmNauqbbjVYeAV0Amp/frxF8eVq0EbH9xIEObROBzv/WAMG6AE9j5pKPCCPBFD4j+AAg30qX7KH4jFWPLEvqFb3X2klNCBND3f7KwQV7ODlkr65lPfdwP+i8Apaf/sMB3c3ZDMSOglUhAQ2EOQxTdOoevt07bZ/rHLezPXNW271gjeltOxZbtXr5cXQXJbXrePymT1dFU5EbKXsqOWZvaRxGdQ4ED0EZN8PWAIMAmONJbl7nn9Iz9mDvqFX3jHmwiURhllIoOssm0CqNVdWgQD6yoc8LVivT9HzHtD0/tGqv6aaxDrhvwM2WKu/RQOAEk01+quezynrwOItIw3DbmPz3yFPhmCPklc7H/F/d2LaW/n6rzEx59LU+IfdB43Kof9dO6QbrkqtW0zFu351cdSFRElOwR5AYgGs655hNIKdr6ACmhvP7NT4F3ftAB2Mh7ZyTxGy7GimWbrHS8/qe+iPxRTnZMo1O9IuBBTp6dVcJcEelIejdXZVatdZ40n6cHiqDTj+CVzXoMBTEpOBL3u2ge0NJDBk9C+XBC7pBBASgI+z9jiTFc9eHvT/c+fiCnZfaq5Mo/0zvpgsIInPN/Rvup7DYD1WyxtYxa19rn7IbkhKcS09g+az+2NT16KEnxnQNobFZzbF1KfR6wN+j7fPpzkFrSC3YwYF5O5zOW/XYrpdvJ4EAIcXSA4vqDbJ7q2IrdurdUXuya9peXRDAdQ7ORRI2QRQHnrQ3G02jlZCIIt/7ryUw5w/HoGl+sEJeTo/bqcGkHR+f9fXGU/GtALoBmcnDMsV7Fqyha8x+pd+g5an+zWZhYEeObVjsB4JB030Kun3koJMm41V/OugY+z3zUhId0DGc7ADjO99XJ2R+NaaJ0cCTb3goRkKwfCCZIQeoLZIuWGPXkD3b1evhZEwwAqSADmZC04XVP+x6zQgXFjeFoAr3FFG4t3B/gW4ez+QFzaZvXEYsSfQDaK5JE/yfjSzZY+8k3Zw8n5Q515/z9TQaenhz/f6StUpys0P8hCR61UjBgyFVl4fsH/vm3SR1IZTXFUj6ds3Dw+hDEVWvif+R10FrKECCJud3/zyn612PW9PwtFUMzFpF/7K03rqXsiObg2yWw0LXZ1kDkyA4I1V6umfGLl0btB8PTli7BBVaxP082WdethCQaQw9sl+m4CdpLPYo0n7/FYX5D2alTio3gtQvhCq+77PdA/LTM3ZkVJaMBGpNTIJIlgwFc4nC1ndMGL3YyS1lzXGzSNAEvcaSQTm7xrnmL5uXLnA/BKH719A9Bp1IgxItWjrpMwbCmUsE6HKb677fDAaEcPrfmsnZ59+J2xn5JgfjWasQ89ZMCnhl8+mi/KXPvTtiv0+t2axOBSiyuQ3Ll4iHAmC2qsiYwYnHeweZWzQCoeFyKDpHB1gkJx7lpptXgr0A6Deqid7Ny9fRUdmdnBg05HtK2dor4vwnexet9sqEnRoo2mEx9sH+omfQ0NCfzxoTOZlOeTucWLF6OVPNlB+4Im34Xp+9NJV14CAcYHi/LksRTgKaJI/jT8T44GvpAdzXWhITw4j8/ndLq/aFazF7uHvYzvbN2CkBmu1PRzI7dmDK7O9S23YwvWsn9PexoZzAOS+fb9LO9A3Zk32D9pPMmIOA89HUny5UPD7MyxSRV8yOAEDjgkAv4vNAZcGAZaKpjv70oWM3PaUIWbwmcSG/MufCEN/3xSn5ox0jVjWQtSpchT6zU/J1K7sK1qq5rb82Zg/2ZOzJ5KhXqEbI3MpT+4Vm9LmurfuIBEMkQO8F4KB7CzoNhk8Ck8N7nGoNhKv/MjEw9C/DfCK0jeSFGXvn1+3b7ybkvyxadWrT2z+xm/wYbaFkY7UlN+2h9nl7+krG3pjfcalNEEZ84iFqwsqlnYIkrD4luukaBGiycqTvd1ZtfWtFTL8mkp4lWifmZxnAdznDfH70Td/t8vq2PRcbtYY343aqe84e1EUPDZTE2NJq4qjj0ixsUalNCnAy6Wp7luy0fnikZ9aO/TlpX4hNyA8N5h3PmON6uwK7QB18Kmk1adMIcBDjwzqhCwt9v7ZFEnP4fV9hyy5LSz4fS9nZywkv0tsgK+DgQN4+M7xpB4WoQ9K8FOtlk2zFsHzAdNZq+metvidtD3Wn7MsyU/9zoehLC26a65pzSwIKNQQ1b6VNKpxp3DwmH5gbDYifBQE0AsjR2iu2C0EYkhY2NnO2nVvUeIcGK6/JL3tEYKqNT1sDiQ6SYOSZnujetmZJkebEql3Qd6ffardf50q+dQl+uBNvfZzpYws613IAT7PI55Quz0pCIhGhcQnJl/om7WzHmLWMsads047Gcr5sgLONWdIic661PWPfSM3bGzolzIxkJADgoNFFkYhs0XQmoDuQtKo373etUhbtuj7/EEDI6S1+YgR+tNsVnfSHiUl7sn3IHk6M25nBGWugNmdS2k4a1ytZ6X7YCXAigYm3G6Ks0siVHTPWdH3MvjKwZK/pkhLuewKCe3ItB+CkzXwPnDiaqCHPAOjEchIE1NMMQqEo7YHo4PecB031Vm7XXkgt2iPd49Yo06y2j533ZK+sWUtmw9owxzVWNT2rVtsr8y25pfvftlaZoU3xFTvbM21PC4i/Wiq6BsWPioTXhgTXzYXzAHwizmEXocZ1M+/CjR15bLQi3QErgm5669t5f0bmkz1x3xibspqOQd3fkrVIcNbEdq02IUEllVYjbVwnq6U5nrFHrvT4fUxrLhB6d+KtjzPdc9BFEnAPdHoT/KYAPEQnx3JMTmYVtfudocR0lyWBL1wfsuaBFWuUv0Lf8VpNVuXQrteNrJIGpFBpY3zUvjY6Z3/Q6WBCGEbzb8UFTb2kLqWLpCvEDOG+nKMxOYsCvHyNgl6p+Y+ZRRYH4JXVY+067OepLftG16pdujJpFzpn7PxwVv7RmheArRHw6mUm1fdlrS6WtVr5nizk1wpZtH46LrO47s2k/Xis4MsbAA6Jv6zzEh10FcEYwMREWvd8zDB23Cqgc+Hg4yWtJ83j5pu+YZzQwCwFcP4XJ9ft0fZRCSr5RPFFq+ua9XLurdJ8p/uoHbrpm0TryeQn80OahrE83rvia58XExn7/ui0vbkaSrsDlhXdUzDC8aJYkt504G2W9GnJPUInyiBh1Oe3cl4XBlqSMEFwxTXU3x2btnOJEasbmPFNu0QsGwBc9441atIOaI5rx1as8r0u+9lsiFqu88g+Du/nrY8zffxBJ1BgUulwz1RhHybahrLkUhj2/PCcNXXJpIvN+bYW9pYdEaMc1UTRSP/YOI0Xp7xV7rfHV+wtzTLAwQ3BKopMsVVpj9WNXSsUZP6IT3D18EdoYrOs66DRAAXrWb/TZ98an7NLPWPWdGXW2ro37aIc/fNDO2IWmWld0nDJVWvRtU8kFmQmrVjTSNFaMyWrH5Q5JwCe6F62ls5Z+42Q3KfrcH73nfTeI3oQydICkpvZDrgAOo/LaawYQwed25ocu+2RzS2Zy7SNIiDF8wFkhM2g6D+kpp7pHLVL7w7aQ13T0mTZsAtbAGsW2MheqRWhXY717dqB3qIXRaob3fDtQnXyOS9eTdgLQ9P2p8WCjemytAEjj5MKy8zR3v1jIZTk+2qgMctLeo+W1uEuFBh36qD8ZGrVzsnvrOuVJtZ18MkrNabe/CQhbSvJcWh42Y7EU3a+O9REwbp1NadHv52vPu50zwMpHwR0aB58BSYSDcBm6zV9hbR7Xa+PSpOxhaVRjE7S72FpkWOaqM/o9X5qigzJh0ou2cWeCXuua9JeGS2YBLsHZDCVIPwVTE8YgVeIz2FY4cn+JLH+o0zWnhRjXOhOS1MIcElpMtk5+B60uKoWk9bp4FNilur+LS+Fd5yI5dCaNHDOqnvnrOKKpPm7I/bl1Lr9VojAV+I6WQGZ5UT41LlS72Eo13Zoe9ckgXiP6eZBFM/m0MFO+gFMzpLCZgjvcxqaqgJonhfBcUUq8KWhBXvyipg4ofuKFawmvuE7stmdTXIxtVeqdXAl/qh85SN9Od/RQXWysxrLs10z9tC7w/Y9ac7f9M3alXn5WLpvrsEYouPQtICe92jFyCTneYf1xdtLJftafMIeTs5aS3Lea9/UDG8YXWkrWNB3q2XbTqYK1jC+Zscvd9n/t7rha4n4jX5yPdudeOvjTB9f0HkouUwwnl4AHhgkirYuAihI7xdnVu3hroxnWJD0S7n1B8Qw92nS7pPJxAbIMwMbdr6HQq6a5Ktp+1JsSn7Okr0+v2HXstvWo0kUr+2ZjX8Sx7wi7ng+PmVPx6bt891T9mDHpLW0T0qzzltLImsNAwU71F/0GpQndT0yYsiMOY6W0Mkq5OkTVT2uezoqv6jm+og93DliPxpdsmu6BqYfzFiUUCEkj9ICJTtrAk2O59bfIo2IHh8KoANsHvQR7SX1Yg2QpMy6SDRuGstNmcY6s2sW2iMzZjC9XCT7xfCiPaV7q+9ekmZZ8h0bNZkt3XPJjo/IR9aYIcTo/OOFXmngIfL+7vh9iaKd7tCYXp+W2TptX+qesW/3L9tLUyX7kwBxQ9fpEaGZrul67+iWXpcv/nM9+HPdc3bu8rBV3Ri1Wv2mmc5CcglOSLMSDDsqsB+S6V4xVtKYLtgZ+e/P9k+6L7fAA+lcUR+92/nq4073HHSA7c6arsw4Djp9yYvMvyiugQm4LPJAhl6/NTQr02PMGgZzziwsPh8WCOj1Rsuouu6ctXSvyARct9bkoqT7lJ0ZnLPPdwzbU9cH7Mkbg/Z4+7B9oT1lj3ZmBOJxTwx+ML5gp7vnraFD1LUiR37dWmQPtsrnqE1sijm37IDMr4PDu3ZQEoDGH2T4H+dVwINhqzrnrfFa2p4W47y2tuOmHoy/LHMQGLnfQ+CGrTX4k/ovAiD8xZ8chc/kW3H8C/3G9Rh6jyECYERWBS/GC3PTx05HsXgMf+o4wMfeRJQEY/dnvX9+PG9nYzLtkjPeH+CY/NIT6Q0JjW2jnwIanKBGXY9IUoktQyd5PhGlENlSxT6+FvnU5Eq2dc7Z+RuyCK5mJKxm7DHRJfm7FztmfNG/tXPJTsdyshQCyE8IcFHWzAmBmTIch8d27b4RWQmZvLSgTPg/ttt13TxCA7MZAYNGh19u56uPO308Qed/iGH2A0//ReTAE+E/LGoiPNs+u2tfkY/Fhk18u2Zx9nGZeKRWVctnaZR0bhqSNJU0r6KH9XjBTorZGkcWrE3gax2asxa64BB4EdNRlpzgDBso6/qK3nTylNRhfUyOfUwMJmqSRoNZKjPbOp/MMNGhMbPD6V1fgOa3h1/ttSe7Zu0/xS3iSzeJ0W7UBSGSty2jy3NJ2EhKtn05IIJWZxhgMEFRRHBEsEPDkSVCrifRTA0E37NNhvFjCeEW85yx87FkXMt4FDHmLMFgDko52yvZFXu6f9hqr/fZUfnI7Myv08BW6qbZInSSHez4fBIsLMmQ73pYwo1nPjgqkkY/ps+pQM1WKxaxm5NrHv1sSIjia76jvaaXPNNNgWvHjvbv+JIKxXPZhFwpwJ3Ue9YzaQxzIiPQdWfswfYRe2Ui70KC+y6uyzfErGY89Kx34q2PM91T0EERAwSGCXQL6MoM45EPvY0IBoI2ijseHxvXOV6d2bCvSKq2XZ/URAOckDZUPcSCuSZxcN33YVGs1Qu3Cnx0vKHwDY04aKXMehVlECh8xL4tZwZJ9hoxW12ZasSEFMnBj/OUqv5VOzy4akc4R0q+T/+iVbZnrPbNmL04WbS3BThKJeDjcK8sDLPYTpmEbQFuWx4khQt2d/MCDJHKEChxBtPxgtetoBPYQnmDDQfbze8BXmDEW4B3C/jCd4wxgRlij1mdYVxa86rMh5cW8vZ0SuaeBMWBdyasqnfLfVYSsSE0H89c2Z+3IzKtPzu4a38vsN0vbYcvfUKvVGqjHzw9GOr61v21Oqk5kNZnPE/IRD2KVSA63AfQyss85KAKcMcHs7JWFqxheN7aZIH8bGLN0ho/xoKMGOafccgXs/6s+/npfwLde9DtSehbKdJ4EQVJHVEAnAOQSqX6D7nHus3vJ7fsqzcm7ezVcZmRy17CDmAdTotGZXqO0qdcjrpAdYLF9CGy+fEjKOEXop8nxRhVyVCTw/folRmEZo33i0E+K+a4TxrtEFIexkptWJPOW5eYtpPvJXTtmL2QmbI3c6FWC0EZ7k8YErfodktiFIJDeoBNgY3ddpQKZFHec1EFHMDEbwAUpmDhA4IOCtHNCHwcfyeCc+U7bq3oPnK6bihyi595Y23XfipB9GTnpJdLoKcCtWioK3qEne0aLxb5q2VaI5gIdrD2WIeJKL8MDd/Quy7KWbNA1yxLAVOyUcA7JcDSi4Dka+iRKXMr5HDHkh2NL1n9qI5LrVhd14g1v9NjPx3L+tYjrAOmukgerQ9k2Kz6Kej+CvpLoIsIkP2l16D9xDxEVfSfWMkmNCevT2/Z8wn5ePLNWoblp6Tn7fjYoh0dEwCHVz3YUiNThloi7MyGyPKvEcjwWSLCnGK9isx/AiKYUg9M7NjfjZfs/xkr2v8aDvmSVR0C2zv9duFK0r47JLCtrnuEDbCxA42F41DLGUZHSIA8/al/SEcr+EpXqKK8tyywD3QADioCukiDlfTAMrE47qb5WQadj+ntwCv/bu81kHe6BcD4k6xN6j+YW7LLOvTRc90Ddom2yfGMxmfKdy7UyfQjGaFaJuTJvhUJqKyXjHASOElSru9ftyZpu0YHW1F/y0QfgKT5ZHFAfFZ9fdHa+gp2Qb5dm8azVqZt7Xtxe6J7xNsfS8Z5xJOlosK6nkk+Bc8ULcB/CroPmSIw3vp6k5mcgYgQFMXUsvMJ3CGtJTzdx3shPWsPdffLB+u32r6M/Ll5a0rlfT9Zg/w8KgU3JXasJS4frUxNokb5Lw0yH+v65K/Fi1ZBNomAivl4KLNqDwi89wHi1LzVCNgPdY7at/vnvdQd+YOYkVhB64WsmGNNIMjeTCcTs5CcywGEvQEJG1Ei7RSZfjxvAFQAXAQ6jgvPLtBI4DAmHLef+CyiMJbhnMHkBPBh7PjM0071UUC43hARJM1tl37d275kcrmUtxfGx7zn+anrA1bbOWX1CflrAh3VtmuG5gXGJdGK1YzkZC7KxKZa2/DGPuJvme6Y8G7Ks+1oxZp7l+1Cnyg+axdupO2R9/rsOWm5V+eLe/v7GM8888tqeNlcIJPFF0/2nvF/Dn0sQbefad5PgTkDg2oSSNnC3NLvKN1GpjqSEeB1irdfnly05weIRg54ZjqFfBp6JY3lXzTIV2mO7VpLz66/ejaG/DR2WRN8wQ/x/W4jRWseyYcgS/+snYqlrbp9wBrfjdkPMsv2Z3EFDEJEEtDn1sQQBd2T7hEVvKtPAZ0nUJPZjppz5tHt69V9Wt33nsmMBr8FeKSqETC5Wd58D0jl4/4yMTQcx/n1B+fnld/pM8eY/tRN6Y2IDbIUcirJ19wONbZ9XU30ruillS17LpX1jkIN72k8+/TaPyXwzUn7ySyUFqxOs+Sw5Z2FfDeDk97LDD8qf/pYGXhVw0vWpnPRwrnl9U778rtJe3Wq6NfCzAXw0xsl+px4vut2TgNN3RbdLMKKMWF83v/MH2+656C7nXH2A2y/9IbRbiVy+cTYFMjR8OOTSI/Yss5FWBkfIFqITeqwfx9btW8lZuzh7hmr7p73ZQWqI9ck5YdIo2FeeplyWlEJaEdHKGabl0+36gm4hPwfujpi3+iest+MbViXTC+YIgqOrIphaUmVF1NjnnkBJJgYZobJpZG9R135volc+g4wAQ7m19vA9PAUBBJ8XALQbgIvaL+I2cK59eMyUDlP5PPyNefe/xp9Fx1HJXNaSHAf1BYlLY5aI0UJtILud2U9ZzmdG2HCuBIp7tb9/WF5y15a2LAvDy9605LW+JyE0ZIsiA1PGKD8RIVeWTqhMK4voYh8sRt/UNYGDfw/ey1hDw1P2S/mtiy+pjnTPfH4jCvXm5VlQPEFOZ+oOw2yDpJJg0md89G8yTv/U+hjC7pbACeC8SIpfwvoxIqb26uW3yWFlljgrs1rUpbKWm9F80RmPKFxuWj2C83fJanBw6mS3SfpS9YD+ZpVYpJjmbA+RG2SQ+Obdmxs3Y4mZ+1cJmvfWZSvqN8O6hwA2TfawrhZXQSkiVPKH+mORPqYOj9YgQ4mvuB5dSARw3XdaV7/gi1XiBzH4+wngQmTkGeNQBeZmhzOODnYMAc5kfu4/C4AyoF3G90Ouo31XTcxuWcEVZSNk9U1siXGWMdxWj0DzwP4eH7ARym/t0Q/E31t1uyhoZKd7t/19C2ycqhr4v6wxpelB5IHGG/W41hWOCWN95x++ysRc7PAdbgRPTvjt+TzuWMrCFaWCJBiMjOtQB8GqobBE7fy08efduz/B/ohycp9+MSnAAAAAElFTkSuQmCC;" vertex="1" parent="1">
          <mxGeometry x="702.2" y="1986.5" width="42.59" height="37" as="geometry" />
        </mxCell>
        <mxCell id="uvfPK4nCeen5NzdSy093-33" value="&lt;b&gt;&lt;font style=&quot;font-size: 14px;&quot;&gt;Theia Chatbot&lt;/font&gt;&lt;/b&gt;" style="text;strokeColor=none;fillColor=none;spacingLeft=4;spacingRight=4;overflow=hidden;rotatable=0;points=[[0,0.5],[1,0.5]];portConstraint=eastwest;fontSize=12;whiteSpace=wrap;html=1;fontFamily=Helvetica;fontColor=default;" vertex="1" parent="1">
          <mxGeometry x="507" y="1951" width="140" height="30" as="geometry" />
        </mxCell>
        <mxCell id="uvfPK4nCeen5NzdSy093-34" value="" style="sketch=0;points=[[0,0,0],[0.25,0,0],[0.5,0,0],[0.75,0,0],[1,0,0],[0,1,0],[0.25,1,0],[0.5,1,0],[0.75,1,0],[1,1,0],[0,0.25,0],[0,0.5,0],[0,0.75,0],[1,0.25,0],[1,0.5,0],[1,0.75,0]];outlineConnect=0;fontColor=#232F3E;fillColor=#01A88D;strokeColor=#ffffff;dashed=0;verticalLabelPosition=bottom;verticalAlign=top;align=center;html=1;fontSize=12;fontStyle=0;aspect=fixed;shape=mxgraph.aws4.resourceIcon;resIcon=mxgraph.aws4.sagemaker;rounded=1;fontFamily=Helvetica;" vertex="1" parent="1">
          <mxGeometry x="635.51" y="1981" width="42.5" height="42.5" as="geometry" />
        </mxCell>
        <mxCell id="uvfPK4nCeen5NzdSy093-45" style="edgeStyle=orthogonalEdgeStyle;rounded=0;orthogonalLoop=1;jettySize=auto;html=1;exitX=-0.01;exitY=0.234;exitDx=0;exitDy=0;entryX=1;entryY=0.36;entryDx=0;entryDy=0;fontFamily=Helvetica;fontSize=12;fontColor=default;exitPerimeter=0;entryPerimeter=0;" edge="1" parent="1" source="uvfPK4nCeen5NzdSy093-35" target="uvfPK4nCeen5NzdSy093-26">
          <mxGeometry relative="1" as="geometry" />
        </mxCell>
        <mxCell id="uvfPK4nCeen5NzdSy093-35" value="" style="rounded=1;whiteSpace=wrap;html=1;strokeColor=#000000;align=center;verticalAlign=middle;fontFamily=Helvetica;fontSize=12;fontColor=default;fillColor=#FFFFFF;points=[[0,0,0,0,0],[0,0.25,0,0,0],[0,0.5,0,0,0],[0,0.75,0,0,0],[0,1,0,0,0],[0.25,0,0,0,0],[0.25,1,0,0,0],[0.5,0,0,0,0],[0.5,1,0,0,0],[0.75,0,0,0,0],[0.75,1,0,0,0],[1,0,0,0,0],[1,0.16,0,0,0],[1,0.5,0,0,0],[1,0.75,0,0,0],[1,1,0,0,0]];" vertex="1" parent="1">
          <mxGeometry x="814.5" y="1673.5" width="190" height="318.5" as="geometry" />
        </mxCell>
        <mxCell id="uvfPK4nCeen5NzdSy093-36" value="&lt;b&gt;&lt;font style=&quot;font-size: 14px;&quot;&gt;Jumpstart / OpenAI Models&lt;/font&gt;&lt;/b&gt;" style="text;strokeColor=none;fillColor=none;spacingLeft=4;spacingRight=4;overflow=hidden;rotatable=0;points=[[0,0.5],[1,0.5]];portConstraint=eastwest;fontSize=12;whiteSpace=wrap;html=1;fontFamily=Helvetica;fontColor=default;align=center;" vertex="1" parent="1">
          <mxGeometry x="844.5" y="1682.5" width="130" height="51" as="geometry" />
        </mxCell>
        <mxCell id="uvfPK4nCeen5NzdSy093-37" value="Prompt Engineering" style="rounded=1;whiteSpace=wrap;html=1;strokeColor=#000000;align=center;verticalAlign=middle;fontFamily=Helvetica;fontSize=12;fontColor=default;fillColor=#FFFFFF;" vertex="1" parent="1">
          <mxGeometry x="854.5" y="1749.5" width="120" height="60" as="geometry" />
        </mxCell>
        <mxCell id="uvfPK4nCeen5NzdSy093-38" value="Prompt Tuning" style="rounded=1;whiteSpace=wrap;html=1;strokeColor=#000000;align=center;verticalAlign=middle;fontFamily=Helvetica;fontSize=12;fontColor=default;fillColor=#FFFFFF;" vertex="1" parent="1">
          <mxGeometry x="854.5" y="1820.5" width="120" height="60" as="geometry" />
        </mxCell>
        <mxCell id="uvfPK4nCeen5NzdSy093-39" value="LLMS&lt;div&gt;GPT-4 / Llama2&lt;/div&gt;" style="rounded=1;whiteSpace=wrap;html=1;strokeColor=#000000;align=center;verticalAlign=middle;fontFamily=Helvetica;fontSize=12;fontColor=default;fillColor=#FFFFFF;" vertex="1" parent="1">
          <mxGeometry x="854.5" y="1898.5" width="120" height="60" as="geometry" />
        </mxCell>
        <mxCell id="uvfPK4nCeen5NzdSy093-42" value="Text Splitters" style="rounded=1;whiteSpace=wrap;html=1;strokeColor=#000000;align=center;verticalAlign=middle;fontFamily=Helvetica;fontSize=12;fontColor=default;fillColor=#FFFFFF;" vertex="1" parent="1">
          <mxGeometry x="647" y="1752" width="100" height="30" as="geometry" />
        </mxCell>
        <mxCell id="uvfPK4nCeen5NzdSy093-43" value="Embedding Generators" style="rounded=1;whiteSpace=wrap;html=1;strokeColor=#000000;align=center;verticalAlign=middle;fontFamily=Helvetica;fontSize=12;fontColor=default;fillColor=#FFFFFF;" vertex="1" parent="1">
          <mxGeometry x="647" y="1797" width="100" height="30" as="geometry" />
        </mxCell>
        <mxCell id="uvfPK4nCeen5NzdSy093-44" value="" style="group" vertex="1" connectable="0" parent="1">
          <mxGeometry x="677" y="1699" width="84.71000000000004" height="45" as="geometry" />
        </mxCell>
        <mxCell id="uvfPK4nCeen5NzdSy093-40" value="" style="sketch=0;outlineConnect=0;fontColor=#232F3E;gradientColor=none;fillColor=#7AA116;strokeColor=none;dashed=0;verticalLabelPosition=bottom;verticalAlign=top;align=center;html=1;fontSize=12;fontStyle=0;aspect=fixed;pointerEvents=1;shape=mxgraph.aws4.bucket;rounded=1;fontFamily=Helvetica;" vertex="1" parent="uvfPK4nCeen5NzdSy093-44">
          <mxGeometry width="38.46" height="40" as="geometry" />
        </mxCell>
        <mxCell id="uvfPK4nCeen5NzdSy093-41" value="&lt;b&gt;S3&lt;/b&gt;" style="text;strokeColor=none;fillColor=none;spacingLeft=4;spacingRight=4;overflow=hidden;rotatable=0;points=[[0,0.5],[1,0.5]];portConstraint=eastwest;fontSize=12;whiteSpace=wrap;html=1;fontFamily=Helvetica;fontColor=default;" vertex="1" parent="uvfPK4nCeen5NzdSy093-44">
          <mxGeometry x="4.710000000000036" y="15" width="80" height="30" as="geometry" />
        </mxCell>
        <mxCell id="uvfPK4nCeen5NzdSy093-48" style="edgeStyle=orthogonalEdgeStyle;rounded=0;orthogonalLoop=1;jettySize=auto;html=1;fontFamily=Helvetica;fontSize=12;fontColor=default;" edge="1" parent="1">
          <mxGeometry relative="1" as="geometry">
            <mxPoint x="807.5" y="1965" as="sourcePoint" />
            <mxPoint x="767.5" y="1965" as="targetPoint" />
          </mxGeometry>
        </mxCell>
        <mxCell id="uvfPK4nCeen5NzdSy093-50" value="&lt;b&gt;Jumpstart&lt;/b&gt;" style="text;strokeColor=none;fillColor=none;spacingLeft=4;spacingRight=4;overflow=hidden;rotatable=0;points=[[0,0.5],[1,0.5]];portConstraint=eastwest;fontSize=12;whiteSpace=wrap;html=1;fontFamily=Helvetica;fontColor=default;" vertex="1" parent="1">
          <mxGeometry x="617.5" y="1951" width="79" height="30" as="geometry" />
        </mxCell>
        <mxCell id="uvfPK4nCeen5NzdSy093-51" value="&lt;b&gt;React&lt;/b&gt;" style="text;strokeColor=none;fillColor=none;spacingLeft=4;spacingRight=4;overflow=hidden;rotatable=0;points=[[0,0.5],[1,0.5]];portConstraint=eastwest;fontSize=12;whiteSpace=wrap;html=1;fontFamily=Helvetica;fontColor=default;" vertex="1" parent="1">
          <mxGeometry x="696.4999999999999" y="1950" width="79" height="30" as="geometry" />
        </mxCell>
        <mxCell id="uvfPK4nCeen5NzdSy093-53" style="edgeStyle=orthogonalEdgeStyle;rounded=0;orthogonalLoop=1;jettySize=auto;html=1;exitX=1.004;exitY=0.359;exitDx=0;exitDy=0;entryX=-0.002;entryY=0.235;entryDx=0;entryDy=0;entryPerimeter=0;fontFamily=Helvetica;fontSize=12;fontColor=default;exitPerimeter=0;" edge="1" parent="1" source="uvfPK4nCeen5NzdSy093-26" target="uvfPK4nCeen5NzdSy093-35">
          <mxGeometry relative="1" as="geometry" />
        </mxCell>
        <mxCell id="uvfPK4nCeen5NzdSy093-57" style="edgeStyle=orthogonalEdgeStyle;rounded=0;orthogonalLoop=1;jettySize=auto;html=1;exitX=1;exitY=0.5;exitDx=0;exitDy=0;entryX=-0.003;entryY=0.544;entryDx=0;entryDy=0;entryPerimeter=0;fontFamily=Helvetica;fontSize=12;fontColor=default;" edge="1" parent="1" source="uvfPK4nCeen5NzdSy093-23" target="uvfPK4nCeen5NzdSy093-28">
          <mxGeometry relative="1" as="geometry" />
        </mxCell>
        <mxCell id="uvfPK4nCeen5NzdSy093-58" style="edgeStyle=orthogonalEdgeStyle;rounded=0;orthogonalLoop=1;jettySize=auto;html=1;entryX=0.99;entryY=0.503;entryDx=0;entryDy=0;entryPerimeter=0;fontFamily=Helvetica;fontSize=12;fontColor=default;exitX=-0.003;exitY=0.545;exitDx=0;exitDy=0;exitPerimeter=0;" edge="1" parent="1" source="uvfPK4nCeen5NzdSy093-28" target="uvfPK4nCeen5NzdSy093-23">
          <mxGeometry relative="1" as="geometry" />
        </mxCell>
        <mxCell id="uvfPK4nCeen5NzdSy093-59" value="Query &amp;amp; Context Generators" style="rounded=1;whiteSpace=wrap;html=1;strokeColor=#000000;align=center;verticalAlign=middle;fontFamily=Helvetica;fontSize=12;fontColor=default;fillColor=#FFFFFF;" vertex="1" parent="1">
          <mxGeometry x="647" y="1842" width="100" height="30" as="geometry" />
        </mxCell>
        <mxCell id="uvfPK4nCeen5NzdSy093-62" value="&lt;b&gt;Grants Data&lt;/b&gt;" style="text;strokeColor=none;fillColor=none;spacingLeft=4;spacingRight=4;overflow=hidden;rotatable=0;points=[[0,0.5],[1,0.5]];portConstraint=eastwest;fontSize=12;whiteSpace=wrap;html=1;fontFamily=Helvetica;fontColor=default;" vertex="1" parent="1">
          <mxGeometry x="657.01" y="1672" width="80" height="30" as="geometry" />
        </mxCell>
        <mxCell id="uvfPK4nCeen5NzdSy093-63" value="&lt;b&gt;Authorized User with SSO Access&lt;/b&gt;" style="text;strokeColor=none;fillColor=none;spacingLeft=4;spacingRight=4;overflow=hidden;rotatable=0;points=[[0,0.5],[1,0.5]];portConstraint=eastwest;fontSize=12;whiteSpace=wrap;html=1;fontFamily=Helvetica;fontColor=default;" vertex="1" parent="1">
          <mxGeometry x="188" y="2101.5" width="113" height="30" as="geometry" />
        </mxCell>
        <mxCell id="uvfPK4nCeen5NzdSy093-65" value="&lt;b&gt;AWS&amp;nbsp;&lt;/b&gt;&lt;div&gt;&lt;b&gt;Gateway&lt;/b&gt;&lt;/div&gt;" style="text;strokeColor=none;fillColor=none;spacingLeft=4;spacingRight=4;overflow=hidden;rotatable=0;points=[[0,0.5],[1,0.5]];portConstraint=eastwest;fontSize=12;whiteSpace=wrap;html=1;fontFamily=Helvetica;fontColor=default;align=center;" vertex="1" parent="1">
          <mxGeometry x="612" y="2041" width="94.79" height="39" as="geometry" />
        </mxCell>
        <mxCell id="uvfPK4nCeen5NzdSy093-66" value="" style="outlineConnect=0;dashed=0;verticalLabelPosition=bottom;verticalAlign=top;align=center;html=1;shape=mxgraph.aws3.api_gateway;fillColor=#D9A741;gradientColor=none;rounded=1;strokeColor=#000000;fontFamily=Helvetica;fontSize=12;fontColor=default;" vertex="1" parent="1">
          <mxGeometry x="644.39" y="2080" width="30" height="40" as="geometry" />
        </mxCell>
        <mxCell id="uvfPK4nCeen5NzdSy093-68" value="" style="sketch=0;points=[[0,0,0],[0.25,0,0],[0.5,0,0],[0.75,0,0],[1,0,0],[0,1,0],[0.25,1,0],[0.5,1,0],[0.75,1,0],[1,1,0],[0,0.25,0],[0,0.5,0],[0,0.75,0],[1,0.25,0],[1,0.5,0],[1,0.75,0]];outlineConnect=0;fontColor=#232F3E;fillColor=#ED7100;strokeColor=#ffffff;dashed=0;verticalLabelPosition=bottom;verticalAlign=top;align=center;html=1;fontSize=12;fontStyle=0;aspect=fixed;shape=mxgraph.aws4.resourceIcon;resIcon=mxgraph.aws4.lambda;rounded=1;fontFamily=Helvetica;" vertex="1" parent="1">
          <mxGeometry x="710.11" y="2090" width="30" height="30" as="geometry" />
        </mxCell>
        <mxCell id="uvfPK4nCeen5NzdSy093-70" value="&lt;b&gt;AWS&amp;nbsp;&lt;/b&gt;&lt;div&gt;&lt;b&gt;Lambda&lt;/b&gt;&lt;/div&gt;" style="text;strokeColor=none;fillColor=none;spacingLeft=4;spacingRight=4;overflow=hidden;rotatable=0;points=[[0,0.5],[1,0.5]];portConstraint=eastwest;fontSize=12;whiteSpace=wrap;html=1;fontFamily=Helvetica;fontColor=default;align=center;" vertex="1" parent="1">
          <mxGeometry x="677.71" y="2039" width="94.79" height="39" as="geometry" />
        </mxCell>
        <mxCell id="uvfPK4nCeen5NzdSy093-79" style="edgeStyle=orthogonalEdgeStyle;rounded=0;orthogonalLoop=1;jettySize=auto;html=1;fontFamily=Helvetica;fontSize=12;fontColor=default;" edge="1" parent="1" source="uvfPK4nCeen5NzdSy093-71">
          <mxGeometry relative="1" as="geometry">
            <mxPoint x="909.5" y="1992" as="targetPoint" />
          </mxGeometry>
        </mxCell>
        <mxCell id="uvfPK4nCeen5NzdSy093-81" style="edgeStyle=orthogonalEdgeStyle;rounded=0;orthogonalLoop=1;jettySize=auto;html=1;fontFamily=Helvetica;fontSize=12;fontColor=default;exitX=-0.006;exitY=0.59;exitDx=0;exitDy=0;exitPerimeter=0;" edge="1" parent="1" source="uvfPK4nCeen5NzdSy093-71">
          <mxGeometry relative="1" as="geometry">
            <mxPoint x="769.5" y="2099" as="targetPoint" />
          </mxGeometry>
        </mxCell>
        <mxCell id="uvfPK4nCeen5NzdSy093-71" value="" style="rounded=1;whiteSpace=wrap;html=1;strokeColor=#000000;align=center;verticalAlign=middle;fontFamily=Helvetica;fontSize=12;fontColor=default;fillColor=#FFFFFF;points=[[0,0,0,0,0],[0,0.25,0,0,0],[0,0.5,0,0,0],[0,0.75,0,0,0],[0,1,0,0,0],[0.25,0,0,0,0],[0.25,1,0,0,0],[0.5,0,0,0,0],[0.5,1,0,0,0],[0.75,0,0,0,0],[0.75,1,0,0,0],[1,0,0,0,0],[1,0.16,0,0,0],[1,0.5,0,0,0],[1,0.75,0,0,0],[1,1,0,0,0]];" vertex="1" parent="1">
          <mxGeometry x="814.5" y="2022" width="190" height="130" as="geometry" />
        </mxCell>
        <mxCell id="uvfPK4nCeen5NzdSy093-72" value="" style="sketch=0;points=[[0,0,0],[0.25,0,0],[0.5,0,0],[0.75,0,0],[1,0,0],[0,1,0],[0.25,1,0],[0.5,1,0],[0.75,1,0],[1,1,0],[0,0.25,0],[0,0.5,0],[0,0.75,0],[1,0.25,0],[1,0.5,0],[1,0.75,0]];outlineConnect=0;fontColor=#232F3E;fillColor=#C925D1;strokeColor=#ffffff;dashed=0;verticalLabelPosition=bottom;verticalAlign=top;align=center;html=1;fontSize=12;fontStyle=0;aspect=fixed;shape=mxgraph.aws4.resourceIcon;resIcon=mxgraph.aws4.documentdb_with_mongodb_compatibility;rounded=1;fontFamily=Helvetica;" vertex="1" parent="1">
          <mxGeometry x="827.5" y="2063" width="61" height="61" as="geometry" />
        </mxCell>
        <mxCell id="uvfPK4nCeen5NzdSy093-73" value="&lt;b&gt;Document DB&lt;/b&gt;" style="text;strokeColor=none;fillColor=none;spacingLeft=4;spacingRight=4;overflow=hidden;rotatable=0;points=[[0,0.5],[1,0.5]];portConstraint=eastwest;fontSize=12;whiteSpace=wrap;html=1;fontFamily=Helvetica;fontColor=default;" vertex="1" parent="1">
          <mxGeometry x="814.5" y="2030" width="92" height="30" as="geometry" />
        </mxCell>
        <mxCell id="uvfPK4nCeen5NzdSy093-75" value="Model /Prompt Retuning" style="rounded=1;whiteSpace=wrap;html=1;strokeColor=#000000;align=center;verticalAlign=middle;fontFamily=Helvetica;fontSize=12;fontColor=default;fillColor=#FFFFFF;" vertex="1" parent="1">
          <mxGeometry x="893.5" y="2108" width="100" height="30" as="geometry" />
        </mxCell>
        <mxCell id="uvfPK4nCeen5NzdSy093-76" value="User Feedback &amp;amp; Logs" style="rounded=1;whiteSpace=wrap;html=1;strokeColor=#000000;align=center;verticalAlign=middle;fontFamily=Helvetica;fontSize=12;fontColor=default;fillColor=#FFFFFF;" vertex="1" parent="1">
          <mxGeometry x="893.5" y="2063" width="100" height="30" as="geometry" />
        </mxCell>
        <mxCell id="uvfPK4nCeen5NzdSy093-78" style="edgeStyle=orthogonalEdgeStyle;rounded=0;orthogonalLoop=1;jettySize=auto;html=1;entryX=0.5;entryY=0;entryDx=0;entryDy=0;entryPerimeter=0;fontFamily=Helvetica;fontSize=12;fontColor=default;" edge="1" parent="1" source="uvfPK4nCeen5NzdSy093-35" target="uvfPK4nCeen5NzdSy093-71">
          <mxGeometry relative="1" as="geometry" />
        </mxCell>
        <mxCell id="uvfPK4nCeen5NzdSy093-80" style="edgeStyle=orthogonalEdgeStyle;rounded=0;orthogonalLoop=1;jettySize=auto;html=1;entryX=0.002;entryY=0.592;entryDx=0;entryDy=0;entryPerimeter=0;fontFamily=Helvetica;fontSize=12;fontColor=default;" edge="1" parent="1" target="uvfPK4nCeen5NzdSy093-71">
          <mxGeometry relative="1" as="geometry">
            <mxPoint x="769.5" y="2099" as="sourcePoint" />
          </mxGeometry>
        </mxCell>
        <mxCell id="uvfPK4nCeen5NzdSy093-82" style="edgeStyle=orthogonalEdgeStyle;rounded=0;orthogonalLoop=1;jettySize=auto;html=1;entryX=0;entryY=0.5;entryDx=0;entryDy=0;" edge="1" parent="1" source="uvfPK4nCeen5NzdSy093-83" target="uvfPK4nCeen5NzdSy093-86">
          <mxGeometry relative="1" as="geometry" />
        </mxCell>
        <mxCell id="uvfPK4nCeen5NzdSy093-83" value="Pfizer" style="rounded=1;whiteSpace=wrap;html=1;" vertex="1" parent="1">
          <mxGeometry x="1690" y="1397" width="120" height="60" as="geometry" />
        </mxCell>
        <mxCell id="uvfPK4nCeen5NzdSy093-84" value="" style="edgeStyle=orthogonalEdgeStyle;rounded=0;orthogonalLoop=1;jettySize=auto;html=1;" edge="1" parent="1" source="uvfPK4nCeen5NzdSy093-86" target="uvfPK4nCeen5NzdSy093-87">
          <mxGeometry relative="1" as="geometry" />
        </mxCell>
        <mxCell id="uvfPK4nCeen5NzdSy093-85" style="edgeStyle=orthogonalEdgeStyle;rounded=0;orthogonalLoop=1;jettySize=auto;html=1;entryX=0;entryY=0.5;entryDx=0;entryDy=0;" edge="1" parent="1" source="uvfPK4nCeen5NzdSy093-86" target="uvfPK4nCeen5NzdSy093-89">
          <mxGeometry relative="1" as="geometry" />
        </mxCell>
        <mxCell id="uvfPK4nCeen5NzdSy093-86" value="Challenges" style="rounded=1;whiteSpace=wrap;html=1;" vertex="1" parent="1">
          <mxGeometry x="1869" y="1397" width="320" height="60" as="geometry" />
        </mxCell>
        <mxCell id="uvfPK4nCeen5NzdSy093-87" value="&lt;ul&gt;&lt;li&gt;&lt;span style=&quot;background-color: initial;&quot;&gt;Difficulty in retrieving relevant information from RDMS.&lt;/span&gt;&lt;br&gt;&lt;/li&gt;&lt;li&gt;Difficulty in understanding complex schemas.&lt;/li&gt;&lt;li&gt;Time-consuming query writing process.&lt;/li&gt;&lt;li&gt;Lack of expert knowledge in SQL.&lt;/li&gt;&lt;li&gt;Language barriers when interacting with the database.&lt;/li&gt;&lt;/ul&gt;" style="rounded=1;whiteSpace=wrap;html=1;align=left;" vertex="1" parent="1">
          <mxGeometry x="1871.5" y="1497" width="315" height="120" as="geometry" />
        </mxCell>
        <mxCell id="uvfPK4nCeen5NzdSy093-88" style="edgeStyle=orthogonalEdgeStyle;rounded=0;orthogonalLoop=1;jettySize=auto;html=1;entryX=0.5;entryY=0;entryDx=0;entryDy=0;" edge="1" parent="1" source="uvfPK4nCeen5NzdSy093-89">
          <mxGeometry relative="1" as="geometry">
            <mxPoint x="2419" y="1497" as="targetPoint" />
          </mxGeometry>
        </mxCell>
        <mxCell id="uvfPK4nCeen5NzdSy093-89" value="Solution" style="rounded=1;whiteSpace=wrap;html=1;" vertex="1" parent="1">
          <mxGeometry x="2259" y="1397" width="320" height="60" as="geometry" />
        </mxCell>
        <mxCell id="uvfPK4nCeen5NzdSy093-91" style="edgeStyle=orthogonalEdgeStyle;rounded=0;orthogonalLoop=1;jettySize=auto;html=1;entryX=0;entryY=0.5;entryDx=0;entryDy=0;" edge="1" parent="1" source="uvfPK4nCeen5NzdSy093-92" target="uvfPK4nCeen5NzdSy093-95">
          <mxGeometry relative="1" as="geometry" />
        </mxCell>
        <mxCell id="uvfPK4nCeen5NzdSy093-92" value="Pfizer" style="rounded=1;whiteSpace=wrap;html=1;" vertex="1" parent="1">
          <mxGeometry x="1690" y="1397" width="120" height="60" as="geometry" />
        </mxCell>
        <mxCell id="uvfPK4nCeen5NzdSy093-93" value="" style="edgeStyle=orthogonalEdgeStyle;rounded=0;orthogonalLoop=1;jettySize=auto;html=1;" edge="1" parent="1" source="uvfPK4nCeen5NzdSy093-95" target="uvfPK4nCeen5NzdSy093-96">
          <mxGeometry relative="1" as="geometry" />
        </mxCell>
        <mxCell id="uvfPK4nCeen5NzdSy093-94" style="edgeStyle=orthogonalEdgeStyle;rounded=0;orthogonalLoop=1;jettySize=auto;html=1;entryX=0;entryY=0.5;entryDx=0;entryDy=0;" edge="1" parent="1" source="uvfPK4nCeen5NzdSy093-95" target="uvfPK4nCeen5NzdSy093-98">
          <mxGeometry relative="1" as="geometry" />
        </mxCell>
        <mxCell id="uvfPK4nCeen5NzdSy093-95" value="Challenges" style="rounded=1;whiteSpace=wrap;html=1;" vertex="1" parent="1">
          <mxGeometry x="1869" y="1397" width="320" height="60" as="geometry" />
        </mxCell>
        <mxCell id="uvfPK4nCeen5NzdSy093-96" value="&lt;ul&gt;&lt;li&gt;&lt;span style=&quot;background-color: initial;&quot;&gt;Difficulty in converting SMPCs to PILs ensuring medical regulatory norms.&lt;/span&gt;&lt;br&gt;&lt;/li&gt;&lt;li&gt;Difficulty in understanding medical terms.&lt;/li&gt;&lt;li&gt;Time-consuming process without expertise knowledge.&lt;/li&gt;&lt;li&gt;Lack of medical domain knowledge.&lt;/li&gt;&lt;/ul&gt;" style="rounded=1;whiteSpace=wrap;html=1;align=left;" vertex="1" parent="1">
          <mxGeometry x="1871.5" y="1497" width="315" height="120" as="geometry" />
        </mxCell>
        <mxCell id="uvfPK4nCeen5NzdSy093-97" style="edgeStyle=orthogonalEdgeStyle;rounded=0;orthogonalLoop=1;jettySize=auto;html=1;entryX=0.5;entryY=0;entryDx=0;entryDy=0;" edge="1" parent="1" source="uvfPK4nCeen5NzdSy093-98" target="uvfPK4nCeen5NzdSy093-99">
          <mxGeometry relative="1" as="geometry" />
        </mxCell>
        <mxCell id="uvfPK4nCeen5NzdSy093-98" value="Solution" style="rounded=1;whiteSpace=wrap;html=1;" vertex="1" parent="1">
          <mxGeometry x="2259" y="1397" width="320" height="60" as="geometry" />
        </mxCell>
        <mxCell id="uvfPK4nCeen5NzdSy093-99" value="&lt;span style=&quot;font-size: 16px;&quot;&gt;SMPC to PIL convertor&amp;nbsp;&lt;/span&gt;&lt;br&gt;&lt;div&gt;&lt;span style=&quot;font-size: 16px;&quot;&gt;&lt;br&gt;&lt;/span&gt;&lt;div&gt;&lt;div style=&quot;text-align: left;&quot;&gt;&lt;span style=&quot;background-color: initial;&quot;&gt;&amp;nbsp; &amp;nbsp; &amp;nbsp;Advantages:&lt;/span&gt;&lt;/div&gt;&lt;ul&gt;&lt;li style=&quot;text-align: left;&quot;&gt;&lt;span style=&quot;background-color: initial;&quot;&gt;Complacence with QRD templates&lt;/span&gt;&lt;/li&gt;&lt;li style=&quot;text-align: left;&quot;&gt;&lt;span style=&quot;background-color: initial;&quot;&gt;Efficient and accurate information retrieval from vector DB.&lt;/span&gt;&lt;br&gt;&lt;/li&gt;&lt;li style=&quot;text-align: left;&quot;&gt;&lt;span style=&quot;background-color: initial;&quot;&gt;Adaptable to new format templates.&lt;/span&gt;&lt;br&gt;&lt;/li&gt;&lt;li style=&quot;text-align: left;&quot;&gt;&lt;span style=&quot;background-color: initial;&quot;&gt;Cost-effective comparative to manual conversion.&lt;/span&gt;&lt;br&gt;&lt;/li&gt;&lt;/ul&gt;&lt;/div&gt;&lt;/div&gt;" style="rounded=1;whiteSpace=wrap;html=1;align=center;" vertex="1" parent="1">
          <mxGeometry x="2261.5" y="1497" width="315" height="213" as="geometry" />
        </mxCell>
      </root>
    </mxGraphModel>
  </diagram>
</mxfile>
